<svg id="Layer_1" data-name="Layer 1" xmlns="http://www.w3.org/2000/svg" viewBox="0 0 1440 741.28"><defs><style>.cls-1,.cls-13,.cls-19{fill:#fff;}.cls-1,.cls-5{stroke:#858b8b;}.cls-1,.cls-10,.cls-11,.cls-19,.cls-20,.cls-21,.cls-22,.cls-26,.cls-27,.cls-28,.cls-35,.cls-40,.cls-5,.cls-6,.cls-7,.cls-9{stroke-miterlimit:10;}.cls-1{stroke-width:6.25px;}.cls-2{fill:#d6e6eb;}.cls-3{fill:#ecf5f4;}.cls-4{fill:#d9e7f9;}.cls-10,.cls-11,.cls-27,.cls-28,.cls-35,.cls-40,.cls-5{fill:none;}.cls-5{stroke-linecap:round;stroke-width:9.23px;stroke-dasharray:33.9 62.36;}.cls-18,.cls-6{fill:#a5d19e;}.cls-20,.cls-21,.cls-22,.cls-35,.cls-40,.cls-6,.cls-7{stroke:#000;}.cls-6,.cls-7{stroke-width:3.85px;}.cls-15,.cls-22,.cls-7{fill:#8bb2f2;}.cls-8{fill:gray;}.cls-26,.cls-9{fill:#dfe1e1;stroke:#2d292b;}.cls-9{stroke-width:0.48px;}.cls-10,.cls-11,.cls-27,.cls-28{stroke:#797979;}.cls-10{stroke-width:2.47px;}.cls-11{stroke-width:2.64px;}.cls-12{fill:#d5a5d9;}.cls-13{opacity:0.65;}.cls-14{fill:#959595;}.cls-16{fill:#626262;}.cls-17{font-size:12.49px;}.cls-17,.cls-23,.cls-24,.cls-29,.cls-30,.cls-31{font-family:ArialMT, Arial;}.cls-19{stroke:#003545;}.cls-19,.cls-21{stroke-width:3.69px;}.cls-20,.cls-33{fill:#98c456;}.cls-20{stroke-width:3.6px;}.cls-21{fill:#cadbf0;}.cls-22{stroke-width:3.08px;}.cls-23{font-size:50.17px;}.cls-24{font-size:21.79px;}.cls-25{letter-spacing:-0.06em;}.cls-26{stroke-width:0.39px;}.cls-27{stroke-width:1.98px;}.cls-28{stroke-width:2.11px;}.cls-29,.cls-31{font-size:33.46px;}.cls-30{font-size:39.01px;}.cls-31{letter-spacing:-0.06em;}.cls-32{fill:#f67088;}.cls-34{fill:#33b07a;}.cls-35{stroke-width:3px;}.cls-36{fill:#db8831;}.cls-37{fill:#ad9c31;}.cls-38{fill:#38a8c5;}.cls-39{fill:#cc79f4;}.cls-40{stroke-width:4.25px;}</style></defs><path class="cls-1" d="M236.9,69.25c-6.46,1.64-103,27.81-137.22,118.64C64,282.79,119,388,191.16,436.59c112.82,76,298.08,34.17,340.18-74.32,34-87.7-35.79-192.43-101.48-243C409.3,103.46,333.13,44.84,236.9,69.25Z"/><path class="cls-2" d="M244.89,91c-5.75,1.46-91.69,24.76-122.14,105.6C90.94,281.08,139.93,374.72,204.18,418,304.6,485.59,469.5,448.39,507,351.82c30.29-78.07-31.86-171.29-90.33-216.29C398.35,121.45,330.55,69.28,244.89,91Z"/><circle class="cls-3" cx="411.37" cy="317.96" r="91.91"/><circle class="cls-4" cx="411.45" cy="316.84" r="80.28"/><circle class="cls-5" cx="411.37" cy="317.96" r="91.91"/><path class="cls-6" d="M235.15,144.46A18.83,18.83,0,1,0,254,125.63,18.83,18.83,0,0,0,235.15,144.46Z"/><path class="cls-7" d="M158.31,164.85A18.84,18.84,0,1,0,177.15,146,18.84,18.84,0,0,0,158.31,164.85Z"/><path class="cls-7" d="M214.05,198.44a18.83,18.83,0,1,0,18.83-18.83A18.83,18.83,0,0,0,214.05,198.44Z"/><path class="cls-8" d="M68.22,353.82a1.38,1.38,0,0,0,0-2.76,1.38,1.38,0,0,0,0,2.76Z"/><path class="cls-9" d="M357.91,277.72l-10.45.87c-2.79.23-4.32,9.14-3.43,19.89s3.89,19.27,6.67,19l10.46-.87"/><ellipse class="cls-9" cx="359.53" cy="297.19" rx="5.06" ry="19.53" transform="translate(-23.46 30.91) rotate(-4.77)"/><path class="cls-10" d="M355.21,317.15c.1,1.26-1.52,1.39-2.3.73-1.37-1.15-3.84-6.94-5.54-19.62-1.56-11.69-.59-18.67.93-20.46,1-1.18,2.16-.76,2.27.5"/><path class="cls-11" d="M372.5,316.48c.34,2-1.09,6-5.94,6.46-8,.82-12.88-13.29-14.51-25.13-1.6-11.68-.63-19.55,1.62-20.83a1.1,1.1,0,0,1,1.72.95"/><path class="cls-9" d="M379.43,277.48l-10.45.87c-2.79.23-4.32,9.13-3.42,19.88s3.88,19.28,6.67,19l10.45-.87"/><ellipse class="cls-9" cx="381.06" cy="296.94" rx="5.06" ry="19.53" transform="translate(-23.36 32.7) rotate(-4.77)"/><path class="cls-10" d="M376.73,316.9c.11,1.26-1.51,1.4-2.29.74-1.37-1.16-3.85-6.94-5.54-19.63-1.56-11.68-.59-18.67.92-20.46,1-1.17,2.17-.76,2.27.5"/><path class="cls-11" d="M394,316.32c.35,2-1.08,6-5.93,6.46-8,.82-12.89-13.29-14.51-25.13C372,286,373,278.1,375.2,276.82a1.09,1.09,0,0,1,1.71.95"/><path class="cls-9" d="M400.85,276.93l-10.45.87c-2.79.23-4.32,9.14-3.42,19.89s3.88,19.27,6.67,19l10.45-.87"/><ellipse class="cls-9" cx="402.48" cy="296.39" rx="5.06" ry="19.53" transform="translate(-23.24 34.48) rotate(-4.77)"/><path class="cls-10" d="M398.15,316.36c.11,1.26-1.51,1.39-2.29.73-1.37-1.15-3.85-6.94-5.54-19.62-1.56-11.69-.59-18.67.92-20.47,1-1.17,2.17-.75,2.27.51"/><path class="cls-11" d="M420.15,314.59c.06.63-3.19,6-4.94,6.17-13.74,1.63-18.59-11.9-20.21-23.74-1.6-11.68-.63-19.55,1.62-20.83a1.09,1.09,0,0,1,1.71.95"/><path class="cls-9" d="M427.53,275.68l-10.46.87c-2.78.23-4.32,9.14-3.42,19.89s3.88,19.28,6.67,19l10.45-.87"/><ellipse class="cls-9" cx="429.15" cy="295.15" rx="5.06" ry="19.53" transform="translate(-23.05 36.69) rotate(-4.77)"/><path class="cls-10" d="M424.83,315.11c.1,1.26-1.52,1.39-2.3.73-1.37-1.15-3.85-6.94-5.54-19.62-1.56-11.69-.59-18.67.92-20.46,1-1.18,2.17-.76,2.27.5"/><path class="cls-11" d="M442.11,314.44c.35,2-1.08,6-5.93,6.46-8,.82-12.89-13.29-14.51-25.13-1.6-11.68-.63-19.55,1.62-20.83a1.09,1.09,0,0,1,1.71.95"/><path class="cls-9" d="M449.05,275.44l-10.45.87c-2.79.23-4.32,9.13-3.42,19.88s3.88,19.28,6.67,19.05l10.45-.87"/><ellipse class="cls-9" cx="450.68" cy="294.9" rx="5.06" ry="19.53" transform="translate(-22.95 38.48) rotate(-4.77)"/><path class="cls-10" d="M446.35,314.86c.11,1.26-1.52,1.4-2.3.74-1.36-1.16-3.84-6.94-5.54-19.63-1.56-11.68-.59-18.67.93-20.46,1-1.17,2.16-.76,2.27.5"/><path class="cls-11" d="M463.64,314.28c.34,2-1.09,6-5.93,6.46-8,.82-12.89-13.29-14.51-25.13-1.6-11.68-.64-19.55,1.62-20.83a1.1,1.1,0,0,1,1.71,1"/><path class="cls-9" d="M470.47,274.89l-10.45.87c-2.79.23-4.32,9.14-3.42,19.89s3.88,19.27,6.67,19l10.45-.87"/><ellipse class="cls-9" cx="472.1" cy="294.35" rx="5.06" ry="19.53" transform="translate(-22.83 40.26) rotate(-4.77)"/><path class="cls-10" d="M467.77,314.32c.11,1.26-1.52,1.39-2.3.73-1.36-1.15-3.84-6.94-5.54-19.62-1.56-11.69-.59-18.67.93-20.46,1-1.18,2.16-.76,2.27.5"/><path class="cls-11" d="M479.13,320.11c-8.08-.21-12.89-13.29-14.51-25.13-1.6-11.68-.64-19.55,1.62-20.83a1.1,1.1,0,0,1,1.71,1"/><path class="cls-12" d="M458.75,64.49a1.39,1.39,0,0,0,0-2.77,1.39,1.39,0,0,0,0,2.77Z"/><rect class="cls-13" x="39.4" y="-27.22" width="526.69" height="554.18"/><rect class="cls-14" x="187.69" y="331.79" width="94.85" height="3.24"/><rect class="cls-15" x="201.81" y="329.71" width="69.68" height="7.4"/><circle class="cls-16" cx="189.08" cy="333.41" r="6.48"/><text class="cls-17" transform="translate(285.77 337.22)">A</text><text class="cls-17" transform="translate(294.11 341.38) scale(0.58)">(n)</text><rect class="cls-14" x="173.69" y="359.64" width="94.85" height="3.24"/><rect class="cls-18" x="187.81" y="357.56" width="69.68" height="7.4"/><circle class="cls-16" cx="175.08" cy="361.26" r="6.48"/><text class="cls-17" transform="translate(271.77 365.07)">A</text><text class="cls-17" transform="translate(280.1 369.23) scale(0.58)">(n)</text><rect class="cls-14" x="194.51" y="385.55" width="94.85" height="3.24"/><rect class="cls-15" x="208.63" y="383.47" width="69.68" height="7.4"/><circle class="cls-16" cx="195.9" cy="387.17" r="6.48"/><text class="cls-17" transform="translate(292.59 390.98)">A</text><text class="cls-17" transform="translate(300.93 395.14) scale(0.58)">(n)</text><line class="cls-19" x1="217.63" y1="33.47" x2="238.65" y2="91"/><line class="cls-19" x1="288.65" y1="22.62" x2="288.94" y2="83.88"/><path class="cls-20" d="M273.05,18.29a16.5,16.5,0,1,0,21.11-9.93A16.5,16.5,0,0,0,273.05,18.29Z"/><path class="cls-21" d="M202.47,28.33a16.49,16.49,0,1,0,21.1-9.93A16.48,16.48,0,0,0,202.47,28.33Z"/><rect class="cls-14" x="364.87" y="344.89" width="53.09" height="3.24"/><rect class="cls-15" x="378.99" y="342.81" width="28.19" height="7.4"/><circle class="cls-16" cx="366.26" cy="346.51" r="6.48"/><text class="cls-17" transform="translate(420.51 350.21)">A</text><text class="cls-17" transform="translate(428.84 354.37) scale(0.58)">(n)</text><rect class="cls-14" x="383.41" y="369.14" width="53.09" height="3.24"/><rect class="cls-18" x="397.53" y="367.06" width="28.19" height="7.4"/><circle class="cls-16" cx="384.8" cy="370.76" r="6.48"/><text class="cls-17" transform="translate(439.05 374.46)">A</text><text class="cls-17" transform="translate(447.38 378.62) scale(0.58)">(n)</text><path class="cls-22" d="M48.88,535.23a15.06,15.06,0,1,0,15.06-15.06A15.05,15.05,0,0,0,48.88,535.23Z"/><text class="cls-23" transform="translate(142.41 550.28)">Protein</text><rect class="cls-14" x="27.49" y="621.11" width="64.97" height="5.65"/><rect class="cls-15" x="37.75" y="617.48" width="49.17" height="12.91"/><circle class="cls-16" cx="27.49" cy="623.94" r="6.47"/><text class="cls-24" transform="translate(96.47 630.39)">A</text><text class="cls-24" transform="translate(111 637.65) scale(0.58)">(n)</text><text class="cls-23" transform="translate(142.41 637.24)">RN<tspan class="cls-25" x="72.46" y="0">A</tspan></text><path class="cls-26" d="M15.48,688.14l-8.35.7c-2.23.19-3.46,7.3-2.74,15.9S7.49,720.15,9.72,720l8.36-.7"/><ellipse class="cls-26" cx="16.78" cy="703.71" rx="4.05" ry="15.62" transform="translate(-58.43 3.83) rotate(-4.77)"/><path class="cls-27" d="M13.33,719.67c.08,1-1.22,1.12-1.84.59-1.1-.93-3.08-5.55-4.43-15.7-1.25-9.34-.47-14.92.74-16.36.79-.93,1.73-.6,1.81.4"/><path class="cls-28" d="M27.15,719.13c.27,1.63-.87,4.78-4.74,5.17C16,725,12.1,713.68,10.8,704.21s-.5-15.63,1.3-16.66a.88.88,0,0,1,1.37.76"/><path class="cls-26" d="M32.7,688l-8.36.69c-2.23.19-3.46,7.31-2.74,15.91s3.11,15.41,5.33,15.22l8.36-.69"/><ellipse class="cls-26" cx="33.99" cy="703.51" rx="4.05" ry="15.62" transform="translate(-58.36 5.26) rotate(-4.77)"/><path class="cls-27" d="M30.54,719.47c.08,1-1.22,1.12-1.84.59-1.09-.92-3.08-5.55-4.43-15.69C23,695,23.8,689.44,25,688c.79-.94,1.73-.61,1.81.4"/><path class="cls-28" d="M44.36,719c.28,1.63-.87,4.78-4.74,5.17-6.43.66-10.31-10.62-11.61-20.09s-.5-15.63,1.3-16.65a.87.87,0,0,1,1.37.75"/><path class="cls-26" d="M49.82,687.51l-8.35.7c-2.23.18-3.46,7.3-2.74,15.9s3.1,15.41,5.33,15.23l8.36-.7"/><ellipse class="cls-26" cx="51.12" cy="703.07" rx="4.05" ry="15.62" transform="translate(-58.26 6.68) rotate(-4.77)"/><path class="cls-27" d="M47.66,719c.09,1-1.21,1.11-1.83.58-1.1-.92-3.08-5.54-4.43-15.69-1.25-9.34-.48-14.93.74-16.36.79-.94,1.73-.61,1.81.4"/><path class="cls-28" d="M65.25,717.62c0,.51-2.55,4.77-3.94,4.94-11,1.3-14.87-9.52-16.17-19s-.5-15.63,1.3-16.65a.88.88,0,0,1,1.37.76"/><path class="cls-26" d="M71.15,686.51l-8.36.7c-2.23.18-3.45,7.3-2.74,15.9s3.11,15.41,5.34,15.23l8.36-.7"/><ellipse class="cls-26" cx="72.45" cy="702.08" rx="4.05" ry="15.62" transform="translate(-58.11 8.45) rotate(-4.77)"/><path class="cls-27" d="M69,718c.09,1-1.21,1.11-1.84.59-1.09-.93-3.07-5.55-4.43-15.7-1.24-9.34-.47-14.92.74-16.36.8-.93,1.73-.61,1.82.4"/><path class="cls-28" d="M82.81,717.5c.28,1.63-.86,4.77-4.74,5.17-6.42.66-10.3-10.63-11.6-20.1s-.51-15.63,1.29-16.65a.88.88,0,0,1,1.37.76"/><path class="cls-26" d="M88.36,686.32,80,687c-2.22.19-3.45,7.31-2.73,15.9s3.1,15.42,5.33,15.23l8.36-.69"/><ellipse class="cls-26" cx="89.66" cy="701.88" rx="4.05" ry="15.62" transform="translate(-58.03 9.88) rotate(-4.77)"/><path class="cls-27" d="M86.2,717.84c.09,1-1.21,1.12-1.83.59-1.1-.92-3.08-5.55-4.43-15.69-1.25-9.35-.48-14.93.74-16.36.79-.94,1.73-.61,1.81.4"/><path class="cls-28" d="M100,717.37c.27,1.63-.87,4.78-4.75,5.17-6.42.66-10.3-10.62-11.6-20.09s-.51-15.63,1.3-16.65a.87.87,0,0,1,1.37.75"/><path class="cls-26" d="M105.49,685.88l-8.36.7c-2.23.18-3.45,7.3-2.74,15.9s3.11,15.41,5.34,15.23l8.36-.7"/><ellipse class="cls-26" cx="106.79" cy="701.44" rx="4.05" ry="15.62" transform="translate(-57.94 11.3) rotate(-4.77)"/><path class="cls-27" d="M103.33,717.4c.08,1-1.21,1.12-1.84.59-1.09-.92-3.07-5.54-4.43-15.69-1.24-9.34-.47-14.93.74-16.36.8-.94,1.73-.61,1.82.4"/><path class="cls-28" d="M112.41,722c-6.45-.17-10.3-10.63-11.6-20.1s-.51-15.63,1.29-16.65a.87.87,0,0,1,1.37.76"/><text class="cls-23" transform="translate(142.41 724.2)">Chromatin</text><text class="cls-29" transform="translate(1031.12 345.14)">Protein</text><text class="cls-30" transform="translate(912.19 250.93) rotate(-90)">Abundance</text><text class="cls-31" transform="translate(979.51 303.78)">A</text><text class="cls-29" transform="translate(1076.4 303.78)">D</text><text class="cls-29" transform="translate(1172.36 303.78)">E</text><rect class="cls-32" x="972.45" y="230.69" width="38.36" height="38.36"/><rect class="cls-33" x="1069.1" y="49.61" width="38.36" height="219.44"/><rect class="cls-34" x="1165.75" y="188.24" width="38.36" height="80.82"/><polyline class="cls-35" points="946.12 31.33 946.12 269.05 1218.73 269.05"/><text class="cls-29" transform="translate(1042.29 722.12)">Gene </text><text class="cls-30" transform="translate(765.69 627.91) rotate(-90)">Expression</text><text class="cls-31" transform="translate(841.53 682.63)">A</text><text class="cls-29" transform="translate(917.7 682.63)">B</text><text class="cls-29" transform="translate(992.94 682.63)">C</text><rect class="cls-32" x="832.82" y="607.67" width="38.36" height="38.36"/><rect class="cls-36" x="908.67" y="492.35" width="38.36" height="153.68"/><rect class="cls-37" x="984.52" y="556.94" width="38.36" height="89.09"/><text class="cls-29" transform="translate(1069.11 682.63)">D</text><text class="cls-29" transform="translate(1146.19 682.63)">E</text><text class="cls-29" transform="translate(1223.3 682.63)">F</text><text class="cls-29" transform="translate(1296.67 682.63)">G</text><rect class="cls-33" x="1060.38" y="424.54" width="38.36" height="221.49"/><rect class="cls-34" x="1136.23" y="452.01" width="38.36" height="194.02"/><rect class="cls-38" x="1212.08" y="519.13" width="38.36" height="126.9"/><rect class="cls-39" x="1287.94" y="539.2" width="38.36" height="106.83"/><polyline class="cls-40" points="805.73 408.31 805.73 646.03 1354.11 646.03"/></svg>