<svg id="Layer_1" data-name="Layer 1" xmlns="http://www.w3.org/2000/svg" viewBox="0 0 1440 741.28"><defs><style>.cls-1,.cls-23,.cls-4{fill:#8bb2f2;}.cls-1,.cls-16,.cls-19,.cls-22,.cls-23,.cls-28,.cls-29{stroke:#000;}.cls-1,.cls-10,.cls-16,.cls-19,.cls-20,.cls-22,.cls-23,.cls-27,.cls-28,.cls-29,.cls-33,.cls-34,.cls-35,.cls-36,.cls-37,.cls-38,.cls-39,.cls-8,.cls-9{stroke-miterlimit:10;}.cls-1{stroke-width:3.08px;}.cls-2{font-size:50.17px;}.cls-11,.cls-17,.cls-18,.cls-2,.cls-25,.cls-6{font-family:ArialMT, Arial;}.cls-3{fill:#959595;}.cls-5{fill:#626262;}.cls-6{font-size:21.79px;}.cls-7{letter-spacing:-0.06em;}.cls-34,.cls-8{fill:#dfe1e1;stroke:#2d292b;}.cls-8{stroke-width:0.39px;}.cls-10,.cls-16,.cls-19,.cls-33,.cls-35,.cls-36,.cls-37,.cls-38,.cls-39,.cls-9{fill:none;}.cls-10,.cls-36,.cls-37,.cls-9{stroke:#797979;}.cls-9{stroke-width:1.98px;}.cls-10{stroke-width:2.11px;}.cls-11{font-size:39.01px;}.cls-12{fill:#e2e2e2;}.cls-13{fill:#f67088;}.cls-14{fill:#98c456;}.cls-15{fill:#7bcbe0;}.cls-16{stroke-width:2.55px;}.cls-17,.cls-18{font-size:33.46px;}.cls-18{letter-spacing:-0.06em;}.cls-19,.cls-38{stroke-width:3px;}.cls-20,.cls-27,.cls-30{fill:#fff;}.cls-20,.cls-33{stroke:#858b8b;}.cls-20{stroke-width:6.25px;}.cls-21{fill:#d6e6eb;}.cls-22,.cls-26{fill:#a5d19e;}.cls-22,.cls-23{stroke-width:3.85px;}.cls-24{fill:gray;}.cls-25{font-size:12.49px;}.cls-27{stroke:#003545;}.cls-27,.cls-28,.cls-29{stroke-width:3.69px;}.cls-28{fill:#bfddb8;}.cls-29{fill:#cadbf0;}.cls-30{opacity:0.65;}.cls-31{fill:#c8d9d7;}.cls-32{fill:#d9e7f9;}.cls-33{stroke-linecap:round;stroke-width:9.23px;stroke-dasharray:33.9 62.36;}.cls-34{stroke-width:0.48px;}.cls-35{stroke:#f67088;}.cls-35,.cls-39{stroke-width:2px;}.cls-36{stroke-width:2.47px;}.cls-37{stroke-width:2.64px;}.cls-38{stroke:#77aa31;}.cls-39{stroke:#38a8c5;}</style></defs><path class="cls-1" d="M56.29,531.59a15.06,15.06,0,1,0,15.06-15.06A15.07,15.07,0,0,0,56.29,531.59Z"/><text class="cls-2" transform="translate(149.83 546.64)">Protein</text><rect class="cls-3" x="34.91" y="617.47" width="64.97" height="5.65"/><rect class="cls-4" x="45.16" y="613.84" width="49.17" height="12.91"/><circle class="cls-5" cx="34.91" cy="620.3" r="6.47"/><text class="cls-6" transform="translate(103.88 626.75)">A</text><text class="cls-6" transform="translate(118.42 634.01) scale(0.58)">(n)</text><text class="cls-2" transform="translate(149.83 633.6)">RN<tspan class="cls-7" x="72.46" y="0">A</tspan></text><path class="cls-8" d="M26.13,684.5l-8.36.7c-2.23.19-3.45,7.3-2.74,15.9s3.11,15.41,5.34,15.23l8.35-.7"/><ellipse class="cls-8" cx="27.43" cy="700.07" rx="4.05" ry="15.62" transform="translate(-58.1 4.7) rotate(-4.77)"/><path class="cls-9" d="M24,716c.08,1-1.21,1.12-1.84.59-1.09-.93-3.07-5.55-4.43-15.7-1.24-9.34-.47-14.92.74-16.36.79-.93,1.73-.6,1.82.4"/><path class="cls-10" d="M37.79,715.49c.28,1.63-.87,4.78-4.74,5.17-6.43.66-10.31-10.62-11.6-20.09s-.51-15.63,1.29-16.66a.88.88,0,0,1,1.37.76"/><path class="cls-8" d="M43.34,684.31,35,685c-2.23.19-3.45,7.31-2.74,15.91s3.11,15.41,5.34,15.22l8.36-.69"/><ellipse class="cls-8" cx="44.64" cy="699.87" rx="4.05" ry="15.62" transform="translate(-58.02 6.13) rotate(-4.77)"/><path class="cls-9" d="M41.18,715.83c.08,1-1.21,1.12-1.84.59-1.09-.92-3.07-5.55-4.43-15.69-1.24-9.34-.47-14.93.74-16.36.8-.94,1.73-.61,1.82.4"/><path class="cls-10" d="M55,715.36c.28,1.63-.86,4.78-4.74,5.17-6.42.66-10.3-10.62-11.6-20.09s-.51-15.63,1.29-16.65a.87.87,0,0,1,1.37.75"/><path class="cls-8" d="M60.47,683.87l-8.36.7c-2.23.18-3.45,7.3-2.74,15.9s3.11,15.41,5.34,15.23l8.35-.7"/><ellipse class="cls-8" cx="61.77" cy="699.43" rx="4.05" ry="15.62" transform="translate(-57.92 7.55) rotate(-4.77)"/><path class="cls-9" d="M58.31,715.4c.08,1-1.21,1.11-1.84.58-1.09-.92-3.07-5.54-4.43-15.69-1.24-9.34-.47-14.93.74-16.36.79-.94,1.73-.61,1.82.4"/><path class="cls-10" d="M75.9,714c0,.51-2.56,4.77-4,4.94-11,1.3-14.87-9.52-16.16-19s-.51-15.63,1.29-16.65a.87.87,0,0,1,1.37.76"/><path class="cls-8" d="M81.79,682.87l-8.35.7c-2.23.18-3.46,7.3-2.74,15.9S73.8,714.88,76,714.7l8.36-.7"/><ellipse class="cls-8" cx="83.09" cy="698.44" rx="4.05" ry="15.62" transform="translate(-57.77 9.32) rotate(-4.77)"/><path class="cls-9" d="M79.63,714.4c.09,1-1.21,1.11-1.83.59-1.1-.93-3.08-5.55-4.43-15.7-1.25-9.34-.48-14.92.74-16.36.79-.93,1.73-.61,1.81.4"/><path class="cls-10" d="M93.46,713.86c.27,1.63-.87,4.78-4.74,5.17-6.43.66-10.31-10.63-11.61-20.09s-.5-15.64,1.3-16.66a.88.88,0,0,1,1.37.76"/><path class="cls-8" d="M99,682.68l-8.36.69c-2.23.19-3.46,7.31-2.74,15.9S91,714.69,93.24,714.5l8.36-.69"/><ellipse class="cls-8" cx="100.3" cy="698.24" rx="4.05" ry="15.62" transform="translate(-57.69 10.75) rotate(-4.77)"/><path class="cls-9" d="M96.85,714.2c.08,1-1.22,1.12-1.84.59-1.09-.92-3.08-5.55-4.43-15.69-1.25-9.34-.47-14.93.74-16.36.79-.94,1.73-.61,1.81.4"/><path class="cls-10" d="M110.67,713.73c.28,1.63-.87,4.78-4.74,5.17-6.43.66-10.31-10.62-11.61-20.09s-.5-15.63,1.3-16.65a.87.87,0,0,1,1.37.75"/><path class="cls-8" d="M116.13,682.24l-8.35.7c-2.23.18-3.46,7.3-2.74,15.9s3.1,15.41,5.33,15.23l8.36-.7"/><ellipse class="cls-8" cx="117.43" cy="697.8" rx="4.05" ry="15.62" transform="translate(-57.6 12.18) rotate(-4.77)"/><path class="cls-9" d="M114,713.77c.09,1-1.21,1.11-1.83.58-1.1-.92-3.08-5.54-4.43-15.69-1.25-9.34-.48-14.93.74-16.36.79-.94,1.73-.61,1.81.4"/><path class="cls-10" d="M123.05,718.4c-6.45-.17-10.3-10.63-11.6-20.1s-.5-15.63,1.3-16.65a.88.88,0,0,1,1.37.76"/><text class="cls-2" transform="translate(149.83 720.56)">Chromatin</text><text class="cls-11" transform="translate(749.22 326) rotate(-90)">Accessability</text><path class="cls-12" d="M1304.88,261.48c-1.12-7-2.73-18-4.13-32-2.3-22.9-2.19-35.26-4.63-37.59-2.93-2.81-7.07,11.25-8.27,15.31-5.6,19-4.16,34.84-9.73,45.25-2,3.79-3.94,4.92-5.11,5.57-5.24,2.93-9.93-2.41-15.57-9.05-3.92-4.63-3.15-5-4.86-6.27-4.24-3.08-7.66.33-15.33,7.66-7.16,6.84-13.89,8.17-21.16-9.05-8-19-10-34.8-17-46.64-2.54-4.28-9.66,25.63-22.8,42.11-9.3,11.67-23.52,26.66-37,24.72-10.55-1.52-16.83.21-19.72-5.73-4.51-9.24-14.22-70.8-20.44-70.8s-13.7,85.5-20.28,85.5-15.33-61.51-23.27-61.51c-9.85,0-9.77,15.71-13.75,26-6.68,17.33-19.54,7.57-26.39-19.57-9.12-36.15-14.63-74.59-21.43-74.59-10.89,0-16.49,43.53-19.13,53.81-6.07,23.6-7.74,36-12.21,37.9-8.86,3.73-11.81,24.22-22,21.47-11.08-3-14.82-16.95-25.52-20.24-9.36-2.88-17.59,2.46-28.8-10.14-7.34-8.26-11-49.08-17.7-27.77-5.48,17.51-5.26,36.21-11.21,47.69-4.91,9.46-13.86,16.38-13.86,16.38-5-.85-9.3-1.49-12.78-2-5.29-.74-24.29-2.76-35.59-17.54v58.06h509.72Z"/><path class="cls-13" d="M908.23,232.27a25.73,25.73,0,0,1,6.87,1.09c10.7,3.49,14.44,18.3,25.52,21.49,10.16,2.92,13.11-18.83,22-22.79,4.47-2,6.14-14.18,12.21-39.24,1.22-5.06,3.09-18.75,5.83-30.88V295.15H908.08Z"/><path class="cls-14" d="M1137.44,261.27c-7.37-.34-16.3-1.47-18-4.85-4.51-9.24-14.22-70.8-20.44-70.8s-13.7,85.5-20.28,85.5-15.33-61.51-23.27-61.51c-9.85,0-9.77,15.71-13.75,26-2.93,7.6-7,10-11.33,8v52.51h107Z"/><path class="cls-15" d="M1189.1,214c5.23-12,8.46-21.94,10-19.34,7,11.84,9,27.62,17,46.64,7.27,17.22,14,15.89,21.16,9.05,7.67-7.33,11.09-10.74,15.33-7.66,1.71,1.25.94,1.64,4.86,6.27,5.64,6.64,10.33,12,15.57,9.05,1.17-.65,3.09-1.78,5.11-5.57,5.57-10.41,4.13-26.23,9.73-45.25,1.2-4.06,5.34-18.12,8.27-15.31,2.44,2.33,2.33,14.69,4.63,37.59,1.4,14,3,25,4.13,32v37H1189.1Z"/><polyline class="cls-16" points="796.23 180.59 796.23 297.11 1318.89 297.11"/><text class="cls-17" transform="translate(1018.08 728.15)">Gene </text><text class="cls-11" transform="translate(887.98 638.94) rotate(-90)">Expression</text><text class="cls-18" transform="translate(955.29 691.78)">A</text><text class="cls-17" transform="translate(1052.19 691.78)">B</text><text class="cls-17" transform="translate(1148.15 691.79)">C</text><rect class="cls-13" x="948.24" y="618.7" width="38.36" height="38.36"/><rect class="cls-14" x="1044.89" y="503.37" width="38.36" height="153.68"/><rect class="cls-15" x="1141.53" y="550.23" width="38.36" height="106.83"/><polyline class="cls-19" points="921.91 448.67 921.91 657.05 1194.52 657.05"/><path class="cls-20" d="M249.06,65.62c-6.46,1.63-103,27.8-137.22,118.63-35.73,94.9,19.31,200.11,91.48,248.7,112.82,76,298.09,34.17,340.18-74.32,34-87.7-35.79-192.43-101.48-243C421.46,99.82,345.29,41.2,249.06,65.62Z"/><path class="cls-21" d="M257.05,87.37C251.3,88.82,165.36,112.12,134.91,193c-31.81,84.48,17.18,178.12,81.43,221.37C316.76,482,481.66,444.75,519.13,348.18c30.29-78.07-31.86-171.29-90.33-216.29C410.51,117.81,342.71,65.64,257.05,87.37Z"/><path class="cls-22" d="M247.31,140.82A18.83,18.83,0,1,0,266.14,122,18.83,18.83,0,0,0,247.31,140.82Z"/><path class="cls-23" d="M170.47,161.21a18.84,18.84,0,1,0,18.84-18.84A18.84,18.84,0,0,0,170.47,161.21Z"/><path class="cls-23" d="M226.21,194.8A18.83,18.83,0,1,0,245,176,18.83,18.83,0,0,0,226.21,194.8Z"/><path class="cls-24" d="M80.38,350.18a1.38,1.38,0,0,0,0-2.76,1.38,1.38,0,0,0,0,2.76Z"/><rect class="cls-3" x="199.85" y="328.15" width="94.85" height="3.24"/><rect class="cls-4" x="213.97" y="326.07" width="69.68" height="7.4"/><circle class="cls-5" cx="201.24" cy="329.77" r="6.48"/><text class="cls-25" transform="translate(297.93 333.58)">A</text><text class="cls-25" transform="translate(306.27 337.74) scale(0.58)">(n)</text><rect class="cls-3" x="185.85" y="356" width="94.85" height="3.24"/><rect class="cls-26" x="199.97" y="353.92" width="69.68" height="7.4"/><circle class="cls-5" cx="187.24" cy="357.62" r="6.48"/><text class="cls-25" transform="translate(283.93 361.43)">A</text><text class="cls-25" transform="translate(292.26 365.59) scale(0.58)">(n)</text><rect class="cls-3" x="206.67" y="381.91" width="94.85" height="3.24"/><rect class="cls-4" x="220.79" y="379.83" width="69.68" height="7.4"/><circle class="cls-5" cx="208.06" cy="383.53" r="6.48"/><text class="cls-25" transform="translate(304.75 387.34)">A</text><text class="cls-25" transform="translate(313.09 391.5) scale(0.58)">(n)</text><line class="cls-27" x1="229.79" y1="29.83" x2="250.81" y2="87.37"/><line class="cls-27" x1="300.81" y1="18.98" x2="301.1" y2="80.24"/><path class="cls-28" d="M285.21,14.65a16.5,16.5,0,1,0,21.11-9.92A16.5,16.5,0,0,0,285.21,14.65Z"/><path class="cls-29" d="M214.63,24.69a16.49,16.49,0,1,0,21.1-9.93A16.48,16.48,0,0,0,214.63,24.69Z"/><rect class="cls-30" x="76.76" y="-27.22" width="526.69" height="526.69"/><circle class="cls-31" cx="423.53" cy="314.32" r="91.91"/><circle class="cls-32" cx="423.61" cy="313.2" r="80.28"/><circle class="cls-33" cx="423.53" cy="314.32" r="91.91"/><path class="cls-34" d="M370.07,274.08l-10.45.87c-2.79.23-4.32,9.14-3.43,19.89s3.89,19.28,6.67,19l10.46-.87"/><ellipse class="cls-34" cx="371.69" cy="293.55" rx="5.06" ry="19.53" transform="translate(-23.11 31.91) rotate(-4.77)"/><path class="cls-35" d="M367.37,313.51c.1,1.26-1.52,1.39-2.3.73-1.37-1.15-3.84-6.94-5.54-19.62-1.56-11.69-.59-18.67.93-20.46,1-1.18,2.16-.76,2.27.5"/><path class="cls-35" d="M384.66,312.84c.34,2-1.09,6-5.94,6.46-8,.82-12.88-13.29-14.51-25.13-1.6-11.68-.63-19.55,1.62-20.83a1.1,1.1,0,0,1,1.72,1"/><path class="cls-34" d="M391.6,273.84l-10.46.87c-2.79.23-4.32,9.13-3.42,19.88s3.88,19.28,6.67,19.05l10.45-.87"/><ellipse class="cls-34" cx="393.22" cy="293.3" rx="5.06" ry="19.53" transform="translate(-23.02 33.7) rotate(-4.77)"/><path class="cls-36" d="M388.89,313.26c.11,1.26-1.51,1.4-2.29.74-1.37-1.16-3.85-6.94-5.54-19.63-1.56-11.68-.59-18.67.92-20.46,1-1.17,2.17-.76,2.27.5"/><path class="cls-37" d="M406.18,312.68c.35,2-1.08,6-5.93,6.46-8,.82-12.89-13.29-14.51-25.13-1.6-11.68-.63-19.55,1.62-20.83a1.09,1.09,0,0,1,1.71.95"/><path class="cls-34" d="M413,273.29l-10.46.87c-2.79.23-4.32,9.14-3.42,19.89s3.88,19.27,6.67,19l10.45-.87"/><ellipse class="cls-34" cx="414.64" cy="292.75" rx="5.06" ry="19.53" transform="translate(-22.9 35.48) rotate(-4.77)"/><path class="cls-38" d="M410.31,312.72c.11,1.26-1.51,1.39-2.29.73-1.37-1.15-3.85-6.94-5.54-19.62-1.56-11.69-.59-18.67.92-20.46,1-1.18,2.17-.76,2.27.5"/><path class="cls-37" d="M432.31,311c.06.63-3.19,6-4.94,6.17-13.74,1.63-18.59-11.9-20.21-23.74-1.6-11.68-.63-19.55,1.62-20.83a1.09,1.09,0,0,1,1.71.95"/><path class="cls-34" d="M439.69,272l-10.46.87c-2.78.23-4.32,9.14-3.42,19.89s3.88,19.28,6.67,19l10.45-.87"/><ellipse class="cls-34" cx="441.31" cy="291.51" rx="5.06" ry="19.53" transform="translate(-22.7 37.69) rotate(-4.77)"/><path class="cls-36" d="M437,311.47c.1,1.26-1.52,1.39-2.3.73-1.37-1.15-3.85-6.94-5.54-19.62-1.56-11.69-.59-18.67.92-20.46,1-1.18,2.17-.76,2.27.5"/><path class="cls-39" d="M454.27,310.8c.35,2-1.08,6-5.93,6.46-8,.82-12.89-13.29-14.51-25.13-1.6-11.68-.63-19.55,1.62-20.83a1.09,1.09,0,0,1,1.71.95"/><path class="cls-34" d="M461.21,271.8l-10.45.87c-2.79.23-4.32,9.13-3.42,19.88s3.88,19.28,6.67,19.05l10.45-.87"/><ellipse class="cls-34" cx="462.84" cy="291.26" rx="5.06" ry="19.53" transform="translate(-22.61 39.48) rotate(-4.77)"/><path class="cls-39" d="M458.51,311.22c.11,1.26-1.52,1.4-2.3.74-1.36-1.16-3.84-6.94-5.54-19.63-1.55-11.68-.59-18.66.93-20.46,1-1.17,2.16-.76,2.27.5"/><path class="cls-37" d="M475.8,310.64c.34,2-1.09,6-5.93,6.46-8,.82-12.89-13.29-14.51-25.13-1.6-11.68-.64-19.55,1.62-20.82a1.09,1.09,0,0,1,1.71.94"/><path class="cls-34" d="M482.63,271.25l-10.45.87c-2.79.23-4.32,9.14-3.42,19.89s3.88,19.27,6.67,19l10.45-.87"/><ellipse class="cls-34" cx="484.26" cy="290.72" rx="5.06" ry="19.53" transform="translate(-22.49 41.26) rotate(-4.77)"/><path class="cls-36" d="M479.93,310.68c.11,1.26-1.52,1.39-2.3.73-1.36-1.15-3.84-6.94-5.54-19.62-1.55-11.69-.59-18.67.93-20.46,1-1.18,2.16-.76,2.27.5"/><path class="cls-37" d="M491.29,316.47c-8.08-.2-12.89-13.29-14.51-25.13-1.6-11.68-.64-19.55,1.62-20.83a1.1,1.1,0,0,1,1.71.95"/><rect class="cls-3" x="377.03" y="341.25" width="53.09" height="3.24"/><rect class="cls-4" x="391.15" y="339.17" width="28.19" height="7.4"/><circle class="cls-5" cx="378.42" cy="342.87" r="6.48"/><text class="cls-25" transform="translate(432.67 346.57)">A</text><text class="cls-25" transform="translate(441.01 350.73) scale(0.58)">(n)</text><rect class="cls-3" x="395.57" y="365.5" width="53.09" height="3.24"/><rect class="cls-26" x="409.69" y="363.42" width="28.19" height="7.4"/><circle class="cls-5" cx="396.96" cy="367.12" r="6.48"/><text class="cls-25" transform="translate(451.21 370.82)">A</text><text class="cls-25" transform="translate(459.54 374.98) scale(0.58)">(n)</text><text class="cls-18" transform="translate(933.99 344.49)">A</text><text class="cls-17" transform="translate(1073.1 344.49)">B</text><text class="cls-17" transform="translate(1237.21 344.49)">C</text></svg>