<svg id="Layer_1" data-name="Layer 1" xmlns="http://www.w3.org/2000/svg" viewBox="0 0 149 50.5"><defs><style>.cls-1{fill:#797d83;}.cls-2{fill:#00a0df;}.cls-3{fill:#fff;}</style></defs><title>bmgf_logo</title><path class="cls-1" d="M60,15.1l-.63-.31a.31.31,0,0,0-.28,0,.34.34,0,0,0-.19.18,1.35,1.35,0,0,1-1.28.87,1.21,1.21,0,0,1-1.26-.93,6,6,0,0,1-.13-1.78,6.54,6.54,0,0,1,.12-1.77,1.23,1.23,0,0,1,1.27-.93,1.33,1.33,0,0,1,1.27.85.36.36,0,0,0,.2.2.32.32,0,0,0,.27,0l.66-.33a.36.36,0,0,0,.14-.45A2.65,2.65,0,0,0,57.58,9,2.57,2.57,0,0,0,55,10.93a6.77,6.77,0,0,0-.2,2.18,6.69,6.69,0,0,0,.2,2.18,2.57,2.57,0,0,0,2.62,1.94,2.66,2.66,0,0,0,2.54-1.67A.37.37,0,0,0,60,15.1"/><path class="cls-1" d="M66.09,9.12h-.74a.35.35,0,0,0-.34.36v2.89H62.23V9.48a.35.35,0,0,0-.35-.36h-.73a.35.35,0,0,0-.35.36v7.27a.35.35,0,0,0,.35.36h.73a.35.35,0,0,0,.35-.36v-3H65v3a.35.35,0,0,0,.34.36h.74a.35.35,0,0,0,.34-.36V9.48a.35.35,0,0,0-.34-.36"/><path class="cls-1" d="M71,9.4a.37.37,0,0,0-.36-.28H70a.36.36,0,0,0-.35.28l-2.51,7.27a.34.34,0,0,0,0,.3.3.3,0,0,0,.26.14h.74a.39.39,0,0,0,.37-.28L69,15.37h2.58l.49,1.45a.38.38,0,0,0,.37.29h.75a.31.31,0,0,0,.26-.14.34.34,0,0,0,0-.3Zm.1,4.57H69.49l.82-2.43Z"/><path class="cls-1" d="M79.25,9.12h-.66a.35.35,0,0,0-.35.36v4.8L75.38,9.37A.4.4,0,0,0,75,9.12h-.68a.35.35,0,0,0-.35.36v7.27a.35.35,0,0,0,.35.36H75a.35.35,0,0,0,.34-.36V12l2.86,4.87a.43.43,0,0,0,.4.25h.67a.35.35,0,0,0,.35-.36V9.48a.35.35,0,0,0-.35-.36"/><path class="cls-1" d="M87.86,9.12H83.55a.35.35,0,0,0-.34.36v.69a.34.34,0,0,0,.34.36h2.9l-3.28,5.25a.48.48,0,0,0-.09.27v.7a.35.35,0,0,0,.35.36h4.43a.35.35,0,0,0,.35-.36v-.7a.34.34,0,0,0-.35-.35h-3l3.29-5.26a.44.44,0,0,0,.09-.27V9.48a.35.35,0,0,0-.35-.36"/><path class="cls-1" d="M94.32,9.12h-.73a.34.34,0,0,0-.34.36v4.76c0,1-.49,1.58-1.37,1.58s-1.37-.56-1.37-1.58V9.48a.35.35,0,0,0-.35-.36h-.73a.34.34,0,0,0-.34.36v4.77a2.8,2.8,0,1,0,5.58,0V9.48a.35.35,0,0,0-.35-.36"/><path class="cls-1" d="M100.66,15.1l-.64-.31a.31.31,0,0,0-.28,0,.37.37,0,0,0-.19.18,1.33,1.33,0,0,1-1.27.87A1.22,1.22,0,0,1,97,14.89a6.58,6.58,0,0,1-.12-1.78A6.54,6.54,0,0,1,97,11.34a1.22,1.22,0,0,1,1.27-.93,1.34,1.34,0,0,1,1.27.85.34.34,0,0,0,.19.2.34.34,0,0,0,.28,0l.66-.33a.35.35,0,0,0,.13-.45A2.63,2.63,0,0,0,98.28,9a2.57,2.57,0,0,0-2.62,1.93,6.69,6.69,0,0,0-.21,2.18,6.61,6.61,0,0,0,.21,2.18,2.57,2.57,0,0,0,2.62,1.94,2.66,2.66,0,0,0,2.54-1.67.38.38,0,0,0-.16-.46"/><path class="cls-1" d="M105.09,12.34l2.14-2.68a.34.34,0,0,0,.06-.36.31.31,0,0,0-.28-.18h-.87a.4.4,0,0,0-.36.19l-2.64,3.37V9.48a.35.35,0,0,0-.35-.36h-.73a.35.35,0,0,0-.35.36v7.27a.35.35,0,0,0,.35.36h.73a.35.35,0,0,0,.35-.36v-2l1-1.26L106,16.88a.38.38,0,0,0,.36.23h.85a.32.32,0,0,0,.28-.17.32.32,0,0,0,0-.33Z"/><path class="cls-1" d="M112.94,9.12H108.6a.35.35,0,0,0-.35.36v7.27a.35.35,0,0,0,.35.36h4.34a.34.34,0,0,0,.34-.36v-.7a.33.33,0,0,0-.34-.35h-3.26V13.78h2.74a.34.34,0,0,0,.34-.36v-.69a.34.34,0,0,0-.34-.36h-2.74V10.53h3.26a.34.34,0,0,0,.34-.36V9.48a.34.34,0,0,0-.34-.36"/><path class="cls-1" d="M118.14,13.7a2.27,2.27,0,0,0,1.33-2.17A2.32,2.32,0,0,0,117,9.12h-2.61a.35.35,0,0,0-.35.36v7.27a.35.35,0,0,0,.35.36h.73a.35.35,0,0,0,.35-.36V13.94h1.26l1.38,2.91a.37.37,0,0,0,.36.26h.84a.33.33,0,0,0,.29-.17.37.37,0,0,0,0-.34Zm-2.7-3.17H117a1,1,0,0,1,1.1,1c0,.87-.69,1-1.1,1h-1.51Z"/><path class="cls-1" d="M125,13a2,2,0,0,0,.71-1.63,2.13,2.13,0,0,0-2.42-2.22H120.7a.35.35,0,0,0-.35.36v7.27a.35.35,0,0,0,.35.36h2.5c1.65,0,2.6-.87,2.6-2.39A2.1,2.1,0,0,0,125,13m-1.73-.61h-1.46V10.51h1.46c.65,0,1,.34,1,.93s-.39.92-1,.92m-1.46,1.39h1.52c.69,0,1.08.36,1.08,1s-.38,1-1.08,1h-1.52Z"/><path class="cls-1" d="M131.23,9.12h-4.34a.35.35,0,0,0-.34.36v7.27a.35.35,0,0,0,.34.36h4.34a.35.35,0,0,0,.35-.36v-.7a.34.34,0,0,0-.35-.35H128V13.78h2.74a.34.34,0,0,0,.35-.36v-.69a.34.34,0,0,0-.35-.36H128V10.53h3.26a.34.34,0,0,0,.35-.36V9.48a.35.35,0,0,0-.35-.36"/><path class="cls-1" d="M136.65,13.7A2.27,2.27,0,0,0,138,11.53a2.33,2.33,0,0,0-2.5-2.41h-2.61a.35.35,0,0,0-.35.36v7.27a.35.35,0,0,0,.35.36h.73a.35.35,0,0,0,.35-.36V13.94h1.26l1.37,2.91a.39.39,0,0,0,.36.26h.85a.33.33,0,0,0,.29-.17.35.35,0,0,0,0-.34Zm-.1-2.17a1,1,0,0,1-1.09,1H134v-2h1.51a1,1,0,0,1,1.09,1"/><path class="cls-1" d="M144,12.63h-2.3a.35.35,0,0,0-.35.36v.64a.34.34,0,0,0,.35.36h1.22a3.81,3.81,0,0,1-.12.92,1.3,1.3,0,0,1-1.32.91,1.26,1.26,0,0,1-1.34-1,6.07,6.07,0,0,1-.13-1.76,6.18,6.18,0,0,1,.13-1.76,1.26,1.26,0,0,1,1.34-.94,1.37,1.37,0,0,1,1.36.86.33.33,0,0,0,.47.16l.66-.33a.37.37,0,0,0,.12-.47A2.72,2.72,0,0,0,141.49,9a2.63,2.63,0,0,0-2.71,1.93,7.27,7.27,0,0,0-.2,2.18,7.43,7.43,0,0,0,.2,2.2,2.84,2.84,0,0,0,5.39,0,6.7,6.7,0,0,0,.19-1.72V13a.35.35,0,0,0-.35-.36"/><path class="cls-1" d="M66.89,30.16A4.9,4.9,0,0,0,68.77,26c0-3.57-2.29-5.62-6.28-5.62H55.42a.63.63,0,0,0-.64.66V40.17a.63.63,0,0,0,.64.66h6.79c4.51,0,6.9-2.14,6.9-6.17a5.26,5.26,0,0,0-2.22-4.5m-8.1,2.17h3.78a2.37,2.37,0,1,1,0,4.74H58.79Zm3.61-3.76H58.79V24.12H62.4a2.23,2.23,0,1,1,0,4.45"/><path class="cls-1" d="M74.68,20.36H71.94a.63.63,0,0,0-.64.66V40.17a.63.63,0,0,0,.64.66h2.74a.62.62,0,0,0,.63-.66V21a.62.62,0,0,0-.63-.66"/><path class="cls-1" d="M92.51,25.06a6.87,6.87,0,0,0-7.08-5,6.84,6.84,0,0,0-7,5c-.42,1.29-.53,2.43-.53,5.55s.11,4.25.53,5.53a6.84,6.84,0,0,0,7,5,6.87,6.87,0,0,0,7.08-5c.41-1.29.52-2.43.52-5.54s-.11-4.26-.52-5.54M88.65,35a3.13,3.13,0,0,1-3.22,2.33A3.09,3.09,0,0,1,82.25,35a16,16,0,0,1-.32-4.41,15.88,15.88,0,0,1,.32-4.41,3.36,3.36,0,0,1,6.39,0A15.6,15.6,0,0,1,89,30.6a16.1,16.1,0,0,1-.31,4.4"/><path class="cls-1" d="M109.54,20.36H106.8a.62.62,0,0,0-.63.66V28.6H99.3V21a.63.63,0,0,0-.63-.66H95.93a.63.63,0,0,0-.64.66V40.17a.63.63,0,0,0,.64.66h2.74a.63.63,0,0,0,.63-.66V32.42h6.87v7.75a.62.62,0,0,0,.63.66h2.74a.63.63,0,0,0,.64-.66V21a.63.63,0,0,0-.64-.66"/><path class="cls-1" d="M126.83,20.36h-2.74a.64.64,0,0,0-.64.66V33.47c0,2.38-1.29,3.86-3.36,3.86s-3.34-1.48-3.34-3.86V21a.62.62,0,0,0-.63-.66h-2.74a.64.64,0,0,0-.64.66v12.5c0,4.56,3,7.63,7.35,7.63s7.37-3.07,7.37-7.63V21a.63.63,0,0,0-.63-.66"/><path class="cls-1" d="M142.14,30.16A4.9,4.9,0,0,0,144,26c0-3.57-2.29-5.62-6.28-5.62h-7.07A.63.63,0,0,0,130,21V40.17a.63.63,0,0,0,.64.66h6.79c4.51,0,6.9-2.14,6.9-6.17a5.26,5.26,0,0,0-2.22-4.5M134,32.33h3.78a2.37,2.37,0,1,1,0,4.74H134Zm3.61-3.76H134V24.12h3.61a2.23,2.23,0,1,1,0,4.45"/><path class="cls-2" d="M25.9,2C38.2,2,48.16,12.34,48.16,25.1S38.2,48.2,25.9,48.2,3.64,37.86,3.64,25.1,13.6,2,25.9,2"/><path class="cls-3" d="M38.7,15.53A4.68,4.68,0,0,0,34,12a4.48,4.48,0,0,0-3.7,2.68,2.51,2.51,0,0,1-2,1.5l-4.92.52a3,3,0,0,1-2.66-1.11,6,6,0,0,0-6-2.16,6.32,6.32,0,0,0-4.72,6.77A6.13,6.13,0,0,0,17,25.8a6.15,6.15,0,0,0,4.77-4.27,2.86,2.86,0,0,1,2-2l4.84-1.15a2,2,0,0,1,2.1.85l.13.18a1.94,1.94,0,0,1,.18,2l-1.29,2.7a4.28,4.28,0,0,1-3.05,2.36,7.48,7.48,0,0,0-5.94,7A7.29,7.29,0,0,0,23,39.36,7.16,7.16,0,0,0,34.69,37a7.77,7.77,0,0,0-.77-7.5A5.4,5.4,0,0,1,33.17,25l.71-2.68a1.56,1.56,0,0,1,1.23-1.14,4.61,4.61,0,0,0,3.59-5.62"/></svg>