<?xml version="1.0" encoding="utf-8"?>
<!-- Generator: Adobe Illustrator 25.3.1, SVG Export Plug-In . SVG Version: 6.00 Build 0)  -->
<svg version="1.1" id="Layer_1" xmlns="http://www.w3.org/2000/svg" xmlns:xlink="http://www.w3.org/1999/xlink" x="0px" y="0px"
	 viewBox="0 0 159.7 34.9" style="enable-background:new 0 0 159.7 34.9;" xml:space="preserve">
<style type="text/css">
	.st0{fill:#FF4438;}
	.st1{fill:#636569;}
	.st2{opacity:0.5;}
</style>
<circle class="st0" cx="142.6" cy="2.4" r="2.4"/>
<path class="st1" d="M142.6,34.1c3.2,0,6.3-0.9,9-2.6h-18C136.4,33.2,139.5,34.1,142.6,34.1z"/>
<path class="st1" d="M129.3,27.7c0.5,0.6,1,1.2,1.6,1.8h23.4c0.6-0.5,1.1-1.1,1.6-1.8H129.3z"/>
<path class="st1" d="M128.9,7c-0.1,0.1-0.2,0.3-0.3,0.4h9.6c0-0.2-0.1-0.3-0.1-0.4H128.9z"/>
<path class="st1" d="M156.8,7.4L156.4,7h-9.3c0,0.2-0.1,0.3-0.1,0.4L156.8,7.4z"/>
<path class="st1" d="M138.1,7.4c0.8,2.5,3.5,3.8,6,2.9c1.4-0.5,2.5-1.6,2.9-2.9H138.1z"/>
<path class="st1" d="M158.9,11.8l-0.2-0.7h-11.8c-0.1,0.2-0.1,0.4-0.2,0.7H158.9z"/>
<path class="st1" d="M126.6,11.1c-0.1,0.2-0.2,0.4-0.2,0.7h12.1c-0.1-0.2-0.1-0.4-0.2-0.7H126.6z"/>
<path class="st1" d="M138.5,11.8c0.8,2.2,3.3,3.4,5.6,2.5c1.2-0.4,2.1-1.4,2.5-2.5H138.5z"/>
<path class="st1" d="M159.7,16.2c0-0.3,0-0.6-0.1-0.9h-13.4c-0.1,0.3-0.2,0.6-0.3,0.9H159.7z"/>
<path class="st1" d="M125.7,15.3c0,0.3-0.1,0.6-0.1,0.9h13.6c-0.1-0.3-0.2-0.6-0.3-0.9H125.7z"/>
<path class="st1" d="M139.2,16.2c0.9,1.9,3.2,2.6,5,1.7c0.7-0.4,1.3-1,1.7-1.7H139.2z"/>
<path class="st1" d="M159.6,19.5h-13.9c-0.1,0.4-0.2,0.8-0.4,1.1h14.2C159.4,20.2,159.5,19.9,159.6,19.5z"/>
<path class="st1" d="M125.7,19.5c0.1,0.4,0.1,0.7,0.2,1.1H140c-0.2-0.3-0.4-0.7-0.4-1.1H125.7z"/>
<path class="st1" d="M142.6,22c1,0,2-0.5,2.6-1.4H140C140.6,21.5,141.6,22,142.6,22z"/>
<path class="st1" d="M140.2,23.6h-13.3c0.2,0.5,0.4,0.9,0.6,1.3h13c-0.2-0.4-0.3-0.8-0.3-1.2C140.2,23.8,140.2,23.7,140.2,23.6z"/>
<path class="st1" d="M158.4,23.6H145v0.1c0,0.4-0.1,0.8-0.3,1.2h13.1C158,24.5,158.2,24.1,158.4,23.6z"/>
<path class="st1" d="M142.6,26.2c0.9,0,1.6-0.5,2.1-1.2h-4.1C141,25.7,141.7,26.2,142.6,26.2z"/>
<path class="st1" d="M23.5,20.1c-1.5,4.6-5,8.3-11.3,8.3C4.8,28.4,0,23.7,0,16.5c-0.1-2.9,0.9-5.7,2.7-8c2.1-2.6,5.4-3.9,9.8-3.9
	c3.9,0,7,1.2,9,3.6c1.2,1.3,1.8,2.9,2,4.7H21c-0.9-4.1-3.8-6.3-8.5-6.3c-4,0-7,1.4-8.6,4.2c-1,1.7-1.5,3.7-1.5,5.7
	c0,6,3.8,9.9,9.7,9.9c3.4,0,6.1-1.3,7.7-3.6c0.6-0.8,1.1-1.7,1.3-2.7H23.5z"/>
<path class="st1" d="M43.7,23.1c-0.3,1-0.9,2-1.7,2.7c-1.9,1.7-4.3,2.6-6.9,2.5c-5.5,0-9.2-3.6-9.2-8.8s3.8-8.9,9.4-8.9
	c3.2-0.1,6.3,1.5,8,4.2c0.9,1.6,1.4,3.4,1.2,5.3H28.2c0,1.8,0.8,3.5,2.2,4.7c1.4,1.1,3.1,1.7,4.8,1.6c2.5,0.2,4.8-1.1,6-3.3
	L43.7,23.1z M42.1,18.3c-0.1-1.1-0.5-2.2-1.2-3.1c-1.4-1.7-3.5-2.7-5.7-2.6c-2.5-0.1-4.9,1.1-6.2,3.3c-0.4,0.8-0.6,1.6-0.7,2.4H42.1
	z"/>
<path class="st1" d="M47.4,5h2.2v22.9h-2.2V5z"/>
<path class="st1" d="M53.2,5h2.2v22.9h-2.2V5z"/>
<path class="st1" d="M76.4,27.9c-0.6,0.2-1.3,0.3-2,0.2c-1.2-0.1-2-1.5-2.2-2.9c-1.8,2.2-4.6,3.4-7.5,3.2c-4.1,0-6.7-1.9-6.7-4.9
	c-0.1-1.9,1-3.6,2.8-4.2c1.3-0.5,2.8-0.8,4.2-0.9l3.6-0.5c2.7-0.4,3.5-0.9,3.5-2.3c0-2-1.8-3-5.1-3c-4,0-5.8,1.2-6.1,3.9h-2.2
	c0.1-1.3,0.6-2.6,1.5-3.5c1.4-1.6,3.5-2.3,7-2.3c3.1,0,5.1,0.7,6.2,2.2c0.8,1,0.9,1.7,0.9,4.3v7.5c0,1,0.3,1.5,1.1,1.5
	c0.3,0,0.7,0,1-0.1L76.4,27.9z M72.1,20c0-0.6,0-1.5,0.1-2.1c-0.8,1-1.2,1.5-4,1.9L65,20.3c-3.7,0.6-4.5,1.2-4.5,3c0,2,1.7,3,4.7,3
	c2.2,0.2,4.4-0.7,6-2.3c0.7-0.9,0.9-0.8,0.9-2.3L72.1,20z"/>
<path class="st1" d="M79,27.9V11.1h2.1V13c0,0.4,0,0.5,0,1.2c1.1-1.9,3.2-3.2,5.4-3.3c0.7,0,1.3,0.1,2,0.2v2
	c-0.7-0.2-1.4-0.3-2.1-0.3c-2.1,0.1-4,1.4-4.8,3.4c-0.3,0.8-0.4,1.6-0.3,2.4V28L79,27.9z"/>
<path class="st1" d="M105.4,28c-1.1,0.1-2.2,0.2-3.3,0.2c-1.6,0-2.5-0.5-3-1.3c-0.4-0.7-0.5-1.6-0.5-4.2V13h-3v-1.9h3v-5h2.2v5h3.7
	l0.9,1.9h-4.6v11c0,1.9,0.3,2.3,1.7,2.3c1,0,1.9,0,2.8-0.1L105.4,28z"/>
<path class="st1" d="M106.8,31.4c1.2,0.4,2.4,0.7,3.6,0.9c1.8,0.2,2.7-0.6,3.4-2.2l1-2.2l-8-16.8h2.4l5.1,10.9
	c0.6,1.3,1.2,2.6,1.7,4c1-2.6,1.2-3.1,1.7-4.1l5-10.8h2.3l-8.5,18.4c-0.5,1.4-1.3,2.7-2.3,3.8c-0.9,0.8-2.1,1.1-3.3,1
	c-1.4-0.2-2.7-0.5-4-0.8L106.8,31.4z"/>
<path class="st1" d="M90.9,27.9V11.1h2.2v16.8H90.9z"/>
<circle class="st1" cx="92" cy="6.3" r="1.3"/>
<g class="st2">
	<path class="st1" d="M31.7,32.8h0.9l-0.2-0.7c-0.1-0.3-0.2-0.7-0.2-1l0,0c0,0-0.1,0.6-0.2,1L31.7,32.8z M31.8,30.4h0.9l1.3,3.6
		h-0.9l-0.2-0.7h-1.3L31.3,34h-0.8L31.8,30.4z"/>
	<polygon class="st1" points="35.5,30.4 38.1,30.4 38.1,31.1 36.3,31.1 36.3,31.9 37.8,31.9 37.8,32.6 36.3,32.6 36.3,34 35.5,34 	
		"/>
	<rect x="38.5" y="30.4" class="st1" width="0.8" height="3.6"/>
	<path class="st1" d="M41.4,33.1v-0.3c-0.1,0.1-0.3,0.1-0.5,0.2c-0.3,0.1-0.5,0.2-0.5,0.4s0.2,0.3,0.4,0.3
		C41.1,33.6,41.3,33.4,41.4,33.1C41.4,33.1,41.4,33.1,41.4,33.1 M41.4,33.7L41.4,33.7c-0.2,0.3-0.5,0.4-0.8,0.4
		c-0.4,0.1-0.8-0.2-0.9-0.7c0,0,0-0.1,0-0.1c0-0.6,0.5-0.7,1-0.8s0.7-0.1,0.7-0.3s-0.1-0.3-0.4-0.3s-0.4,0.1-0.5,0.3h-0.7
		c0-0.4,0.4-0.9,1.1-0.9c0.3,0,0.5,0,0.8,0.2c0.3,0.2,0.4,0.5,0.4,0.8v1.3c0,0.2,0,0.3,0.1,0.4l0,0h-0.8
		C41.4,33.9,41.4,33.8,41.4,33.7"/>
	<path class="st1" d="M44.3,32.6c0-0.4-0.2-0.7-0.6-0.7s-0.5,0.3-0.5,0.7s0.2,0.7,0.5,0.7S44.3,33,44.3,32.6 M42.6,34.1h0.7
		c0,0.2,0.2,0.3,0.5,0.3c0.3,0,0.5-0.1,0.5-0.4c0,0,0-0.1,0-0.1v-0.1c0-0.1,0-0.2,0-0.3l0,0c-0.1,0.3-0.4,0.4-0.7,0.4
		c-0.6,0-1.1-0.5-1.1-1.1c0,0,0-0.1,0-0.1c-0.1-0.6,0.4-1.2,1-1.3c0,0,0.1,0,0.1,0c0.3,0,0.6,0.1,0.7,0.4l0,0v-0.3h0.7v2.3
		c0,0.3-0.1,0.6-0.3,0.8c-0.3,0.2-0.6,0.3-0.9,0.3C43.1,34.9,42.6,34.6,42.6,34.1"/>
	<path class="st1" d="M45.4,33.2h0.7c0.1,0.2,0.3,0.4,0.5,0.4c0.3,0,0.4-0.1,0.4-0.3s-0.3-0.3-0.7-0.3s-0.9-0.2-0.9-0.8
		s0.5-0.8,1.1-0.8s1.1,0.3,1.1,0.8H47c0-0.2-0.2-0.3-0.4-0.3s-0.4,0.1-0.4,0.3s0.3,0.2,0.6,0.3s1,0.2,1,0.9s-0.5,0.8-1.2,0.8
		S45.5,33.8,45.4,33.2"/>
	<path class="st1" d="M48.9,31.8L48.9,31.8c0.3-0.4,0.8-0.6,1.3-0.3c0.3,0.2,0.4,0.5,0.4,0.8V34h-0.8v-1.5c0-0.2-0.1-0.4-0.4-0.5
		c0,0,0,0-0.1,0c-0.3,0-0.5,0.2-0.5,0.5c0,0,0,0,0,0.1V34h-0.8v-3.6h0.8L48.9,31.8"/>
	<path class="st1" d="M51.1,31.5h0.8V34h-0.8V31.5z M51.1,30.5h0.8v0.7h-0.8V30.5z"/>
	<path class="st1" d="M54.2,32.8c0-0.5-0.2-0.8-0.6-0.8s-0.6,0.3-0.6,0.8s0.2,0.8,0.6,0.8S54.2,33.2,54.2,32.8 M52.4,31.5h0.7v0.4
		l0,0c0.2-0.3,0.5-0.5,0.8-0.4c0.7,0,1.1,0.6,1.1,1.4s-0.5,1.4-1.1,1.4c-0.3,0-0.6-0.1-0.8-0.4l0,0c0,0.2,0,0.4,0,0.6v0.6h-0.8
		L52.4,31.5z"/>
	<path class="st1" d="M57.5,32.1h0.7c0.3,0,0.5-0.2,0.5-0.4c0,0,0-0.1,0-0.1c0-0.3-0.2-0.5-0.4-0.5c0,0-0.1,0-0.1,0h-0.7L57.5,32.1z
		 M56.6,30.4h1.6c0.4,0,0.7,0.1,1,0.3c0.2,0.2,0.3,0.5,0.3,0.9c0,0.6-0.4,1.1-1.1,1.2c-0.1,0-0.1,0-0.2,0h-0.9V34h-0.8L56.6,30.4z"
		/>
	<path class="st1" d="M59.9,31.5h0.8V34h-0.8V31.5z M59.9,30.5h0.8v0.7h-0.8V30.5z"/>
	<path class="st1" d="M63,32.8c0-0.5-0.2-0.8-0.6-0.8s-0.6,0.3-0.6,0.8s0.2,0.8,0.6,0.8S63,33.2,63,32.8 M61,32.8
		c0-0.8,0.6-1.4,1.4-1.4c0.8,0,1.4,0.6,1.4,1.4c0,0.8-0.6,1.4-1.4,1.4c0,0,0,0,0,0C61.6,34.1,61,33.6,61,32.8
		C61,32.8,61,32.8,61,32.8"/>
	<path class="st1" d="M64.9,31.9L64.9,31.9c0.2-0.3,0.5-0.5,0.8-0.5c0.5,0,0.9,0.3,0.9,0.8c0,0.1,0,0.1,0,0.2V34h-0.8v-1.5
		c0-0.2-0.1-0.4-0.4-0.5c0,0,0,0-0.1,0c-0.3,0-0.5,0.2-0.5,0.5c0,0,0,0,0,0V34h-0.8v-2.5h0.7L64.9,31.9z"/>
	<path class="st1" d="M67.7,32.5h1.1c0-0.4-0.2-0.6-0.5-0.6S67.7,32.1,67.7,32.5 M66.9,32.8c0-0.7,0.5-1.3,1.2-1.4c0,0,0.1,0,0.1,0
		c0.3,0,0.6,0.1,0.9,0.3c0.3,0.3,0.4,0.8,0.4,1.2h-1.9c0,0.3,0.3,0.6,0.6,0.6c0,0,0,0,0,0c0.2,0,0.4-0.1,0.5-0.2h0.7
		c-0.2,0.5-0.7,0.8-1.2,0.8c-0.7,0-1.3-0.5-1.4-1.2C66.9,32.8,66.9,32.8,66.9,32.8"/>
	<path class="st1" d="M70.6,32.5h1.1c0-0.4-0.2-0.6-0.5-0.6S70.6,32.1,70.6,32.5 M69.8,32.8c0-0.7,0.5-1.3,1.2-1.4c0,0,0.1,0,0.1,0
		c0.3,0,0.6,0.1,0.9,0.3c0.3,0.3,0.5,0.8,0.4,1.2h-1.9c0,0.4,0.3,0.6,0.6,0.6c0.2,0,0.4-0.1,0.5-0.2h0.7c-0.2,0.5-0.7,0.9-1.2,0.8
		c-0.7,0-1.3-0.5-1.4-1.2C69.8,32.8,69.8,32.8,69.8,32.8"/>
	<path class="st1" d="M73.6,31.9L73.6,31.9c0.1-0.3,0.4-0.5,0.7-0.5h0.2v0.7h-0.2c-0.4,0-0.7,0.2-0.7,0.8V34h-0.8v-2.5h0.7
		L73.6,31.9z"/>
	<path class="st1" d="M74.8,31.5h0.8V34h-0.8V31.5z M74.8,30.5h0.8v0.7h-0.8V30.5z"/>
	<path class="st1" d="M76.8,31.9L76.8,31.9c0.2-0.3,0.5-0.5,0.8-0.5c0.5,0,0.9,0.3,0.9,0.8c0,0.1,0,0.1,0,0.2V34h-0.8v-1.5
		c0-0.2-0.1-0.4-0.4-0.5c0,0,0,0-0.1,0c-0.3,0-0.5,0.2-0.5,0.5c0,0,0,0,0,0.1V34h-0.8v-2.5h0.7L76.8,31.9z"/>
	<path class="st1" d="M80.8,32.6c0-0.4-0.2-0.7-0.6-0.7s-0.6,0.3-0.6,0.7s0.2,0.7,0.6,0.7S80.8,33,80.8,32.6 M79,34.1h0.7
		c0,0.2,0.2,0.3,0.5,0.3c0.3,0,0.5-0.1,0.5-0.4c0,0,0-0.1,0-0.1v-0.1c0-0.1,0-0.2,0-0.3l0,0c-0.1,0.3-0.4,0.4-0.7,0.4
		c-0.7-0.1-1.2-0.7-1.1-1.4c0.1-0.6,0.5-1.1,1.1-1.1c0.3,0,0.6,0.1,0.7,0.4l0,0v-0.3h0.7v2.4c0,0.3-0.1,0.6-0.3,0.8
		c-0.3,0.2-0.6,0.3-0.9,0.3C79.6,34.9,79.1,34.6,79,34.1"/>
	<path class="st1" d="M83.1,32.2c-0.1-1,0.7-1.8,1.6-1.9c0.1,0,0.1,0,0.2,0c0.4,0,0.7,0.1,1,0.3c0.3,0.2,0.5,0.6,0.6,1h-0.8
		c-0.1-0.4-0.4-0.6-0.7-0.6c-0.6,0-0.9,0.5-0.9,1.2c0,0.7,0.4,1.2,0.9,1.2c0.4,0,0.7-0.3,0.8-0.7h0.8c0,0.4-0.2,0.7-0.4,0.9
		c-0.3,0.3-0.7,0.4-1.1,0.4c-1,0-1.8-0.8-1.8-1.7C83.1,32.3,83.1,32.3,83.1,32.2"/>
	<path class="st1" d="M88.7,32.8c0-0.5-0.2-0.8-0.6-0.8s-0.6,0.3-0.6,0.8s0.2,0.8,0.6,0.8S88.7,33.2,88.7,32.8 M86.7,32.8
		c0-0.8,0.6-1.4,1.4-1.4c0.8,0,1.4,0.6,1.4,1.4c0,0.8-0.6,1.4-1.4,1.4c0,0,0,0,0,0C87.3,34.1,86.7,33.6,86.7,32.8
		C86.7,32.8,86.7,32.8,86.7,32.8"/>
	<path class="st1" d="M89.8,31.5h0.7v0.4l0,0c0.1-0.3,0.4-0.5,0.8-0.5c0.3,0,0.6,0.2,0.7,0.5l0,0c0.2-0.3,0.5-0.5,0.8-0.5
		c0.5,0,0.9,0.3,0.9,0.8c0,0,0,0.1,0,0.1V34H93v-1.5c0-0.3-0.1-0.5-0.4-0.5s-0.4,0.2-0.4,0.5V34h-0.8v-1.5c0-0.3-0.1-0.5-0.4-0.5
		s-0.4,0.2-0.4,0.5V34h-0.8V31.5z"/>
	<path class="st1" d="M96.1,32.8c0-0.5-0.2-0.8-0.6-0.8S95,32.3,95,32.8s0.2,0.8,0.6,0.8S96.1,33.2,96.1,32.8 M94.2,31.5H95v0.4l0,0
		c0.2-0.3,0.5-0.5,0.8-0.4c0.7,0,1.1,0.6,1.1,1.4s-0.4,1.4-1.1,1.4c-0.3,0-0.6-0.1-0.8-0.4l0,0c0,0.1,0,0.3,0,0.6v0.6h-0.8
		L94.2,31.5z"/>
	<path class="st1" d="M98.8,33.1v-0.3c-0.1,0.1-0.3,0.1-0.4,0.2c-0.3,0.1-0.5,0.2-0.5,0.4s0.2,0.3,0.4,0.3
		C98.5,33.6,98.8,33.4,98.8,33.1C98.8,33.1,98.8,33.1,98.8,33.1 M98.8,33.7L98.8,33.7c-0.2,0.3-0.5,0.4-0.8,0.4
		c-0.4,0.1-0.8-0.2-0.9-0.7c0,0,0-0.1,0-0.1c0-0.6,0.4-0.7,1-0.8s0.7-0.1,0.7-0.3s-0.1-0.3-0.4-0.3S98,32,98,32.2h-0.7
		c0-0.4,0.4-0.9,1.2-0.9c0.3,0,0.5,0,0.7,0.2c0.3,0.2,0.4,0.5,0.4,0.8v1.3c0,0.2,0,0.3,0.1,0.4l0,0h-0.7
		C98.9,33.9,98.9,33.8,98.8,33.7"/>
	<path class="st1" d="M100.8,31.9L100.8,31.9c0.2-0.3,0.5-0.5,0.8-0.5c0.5,0,0.9,0.3,0.9,0.8c0,0.1,0,0.1,0,0.2V34h-0.8v-1.5
		c0-0.2-0.1-0.4-0.4-0.5c0,0,0,0-0.1,0c-0.3,0-0.5,0.2-0.5,0.5c0,0,0,0,0,0.1V34h-0.8v-2.5h0.7L100.8,31.9z"/>
	<path class="st1" d="M103,34.9v-0.6h0.3c0.2,0,0.3-0.1,0.4-0.3c0-0.2-0.1-0.4-0.1-0.5l-0.8-2.1h0.8l0.3,1c0.1,0.3,0.2,0.6,0.2,0.9
		l0,0c0,0,0.1-0.5,0.2-0.9l0.3-1h0.8l-0.9,2.7c-0.2,0.6-0.4,0.8-0.9,0.8L103,34.9"/>
</g>
<path class="st1" d="M155,32.5h-0.5v-0.2h1.2v0.2h-0.5v1.3H155V32.5z M155.9,32.4h0.3l0.5,1.2l0.5-1.2h0.3v1.5h-0.2v-1.3l0,0
	l-0.5,1.3h-0.1l-0.5-1.3l0,0v1.3H156L155.9,32.4z"/>
<g>
	<circle class="st0" cx="121.6" cy="43" r="2.4"/>
	<path class="st1" d="M121.6,74.7c3.2,0,6.3-0.9,9-2.6h-18C115.3,73.8,118.5,74.7,121.6,74.7z"/>
	<path class="st1" d="M108.3,68.3c0.5,0.6,1,1.2,1.6,1.8h23.4c0.6-0.5,1.1-1.1,1.6-1.8H108.3z"/>
	<path class="st1" d="M107.8,47.6c-0.1,0.1-0.2,0.3-0.3,0.4h9.6c0-0.2-0.1-0.3-0.1-0.4H107.8z"/>
	<path class="st1" d="M135.7,48l-0.3-0.4h-9.3c0,0.2-0.1,0.3-0.1,0.4L135.7,48z"/>
	<path class="st1" d="M117.1,48c0.8,2.5,3.5,3.8,6,2.9c1.4-0.5,2.5-1.6,2.9-2.9H117.1z"/>
	<path class="st1" d="M137.9,52.4l-0.2-0.7h-11.8c-0.1,0.2-0.1,0.4-0.2,0.7H137.9z"/>
	<path class="st1" d="M105.6,51.7c-0.1,0.2-0.2,0.4-0.2,0.7h12.1c-0.1-0.2-0.1-0.4-0.2-0.7H105.6z"/>
	<path class="st1" d="M117.5,52.4c0.8,2.2,3.3,3.4,5.6,2.5c1.2-0.4,2.1-1.4,2.5-2.5H117.5z"/>
	<path class="st1" d="M138.7,56.8c0-0.3,0-0.6-0.1-0.9h-13.4c-0.1,0.3-0.2,0.6-0.3,0.9H138.7z"/>
	<path class="st1" d="M104.6,55.9c0,0.3-0.1,0.6-0.1,0.9h13.6c-0.1-0.3-0.2-0.6-0.3-0.9H104.6z"/>
	<path class="st1" d="M118.2,56.8c0.9,1.9,3.2,2.6,5,1.7c0.7-0.4,1.3-1,1.7-1.7H118.2z"/>
	<path class="st1" d="M138.5,60.1h-13.9c-0.1,0.4-0.2,0.8-0.4,1.1h14.2C138.4,60.8,138.5,60.5,138.5,60.1z"/>
	<path class="st1" d="M104.7,60.1c0.1,0.4,0.1,0.7,0.2,1.1H119c-0.2-0.3-0.4-0.7-0.4-1.1H104.7z"/>
	<path class="st1" d="M121.6,62.6c1,0,2-0.5,2.6-1.4H119C119.6,62.1,120.5,62.6,121.6,62.6z"/>
	<path class="st1" d="M119.2,64.3h-13.3c0.2,0.5,0.4,0.9,0.6,1.3h13c-0.2-0.4-0.3-0.8-0.3-1.2C119.2,64.4,119.2,64.3,119.2,64.3z"/>
	<path class="st1" d="M137.4,64.3H124v0.1c0,0.4-0.1,0.8-0.3,1.2h13.1C137,65.1,137.2,64.7,137.4,64.3z"/>
	<path class="st1" d="M121.6,66.8c0.9,0,1.6-0.5,2.1-1.2h-4.1C119.9,66.3,120.7,66.8,121.6,66.8z"/>
	<path class="st1" d="M134,73.2h-0.5V73h1.2v0.2h-0.5v1.3H134V73.2z M134.9,73h0.3l0.5,1.2l0.5-1.2h0.3v1.5h-0.2v-1.3l0,0l-0.5,1.3
		h-0.1l-0.5-1.3l0,0v1.3h-0.2L134.9,73z"/>
</g>
</svg>
