<?xml version="1.0" encoding="utf-8"?>
<!-- Generator: Adobe Illustrator 25.3.1, SVG Export Plug-In . SVG Version: 6.00 Build 0)  -->
<svg version="1.1" id="Layer_1" xmlns="http://www.w3.org/2000/svg" xmlns:xlink="http://www.w3.org/1999/xlink" x="0px" y="0px"
	 viewBox="0 0 139.3 70.9" style="enable-background:new 0 0 139.3 70.9;" xml:space="preserve">
<style type="text/css">
	.st0{fill:#FF414B;}
</style>
<path d="M103.1,62.8c0.1-2.7,1.2-4.3,2.6-4.3s2.2,1.3,2.2,4L103.1,62.8z M111.5,63.8c0.1-3.4-1.4-6.4-5.5-6.4
	c-3.6,0.1-6.5,3.1-6.4,6.8c-0.2,3.3,2.3,6.1,5.5,6.3c0.3,0,0.5,0,0.8,0c2-0.1,3.9-0.9,5.4-2.3l-0.3-0.6c-1.2,0.5-2.6,0.8-3.9,0.8
	c-2.7,0-4-1.6-4-4.6L111.5,63.8z M90.2,59.2l1.7-0.6v-0.8h-7.3v0.8l1.6,0.6l4.8,11h2l4.6-10.8l1.8-0.9v-0.8h-5.4v0.8l1.6,0.8
	l-1.3,3.9l-1.2,3.2H93L90.2,59.2z M79.3,60.2v8.4l-1.8,0.6V70h7v-0.8l-1.7-0.6v-11l-0.5-0.3l-4.8,1.1v0.7L79.3,60.2z M78.8,52.7
	c0,1.2,0.9,2.1,2.1,2.2c0,0,0.1,0,0.1,0c1.3,0,2.3-1,2.3-2.3c0-1.2-0.9-2.2-2.1-2.2c0,0-0.1,0-0.1,0C79.8,50.4,78.8,51.4,78.8,52.7
	 M76.3,69.1v-0.8c-0.6,0.1-1.1,0.1-1.6,0.1c-0.7,0.1-1.3-0.1-1.9-0.4c-0.5-0.4-0.7-1-0.7-2.1v-6.3h4.1v-1.8h-4.1v-3.8h-1l-2,3
	l-2.6,1.8v0.7h2.1V67c0,2.2,1.1,3.2,3.2,3.2C73.4,70.2,74.9,69.8,76.3,69.1 M61.2,67.7c-0.6,0.4-1.3,0.7-2,0.7c-1,0.1-1.8-0.5-2-1.5
	c0-0.1,0-0.3,0-0.4c0-1.4,1.1-2.4,4-2.4V67.7z M64.6,61.2c0-2.6-1.4-3.8-4.3-3.8s-5.8,1.3-5.8,3.1c0,0.9,0.8,1.7,1.7,1.7
	c0,0,0,0,0,0c0.8,0,1.5-0.6,1.6-1.4c0-0.1,0-0.1,0-0.2c0-0.6-0.3-1.1-0.8-1.5c0.4-0.2,0.9-0.2,1.4-0.2c2,0,2.8,0.7,2.8,2.7v1.5
	C56.3,63.4,54,65,54,67.3c0,1.9,1.3,2.9,3.3,2.9c1.5-0.1,2.8-0.7,3.8-1.8l0.3,0.1c0.1,1,1,1.9,2,1.8c0.1,0,0.1,0,0.2,0
	c1,0,2-0.2,3-0.6l-0.1-0.7c-1.6,0-2-0.6-2-1.5L64.6,61.2z M47.5,60.2v8.4l-1.8,0.6V70h7v-0.8L51,68.6v-11l-0.4-0.3l-4.8,1v0.7
	L47.5,60.2z M46.9,52.7c0,1.2,0.9,2.1,2.1,2.2c0,0,0.1,0,0.1,0c1.3,0,2.3-1,2.3-2.3c0-1.2-0.9-2.2-2.1-2.2c0,0-0.1,0-0.1,0
	C47.9,50.4,46.9,51.4,46.9,52.7 M44.4,69.1v-0.8c-0.6,0.1-1.1,0.1-1.6,0.1c-0.7,0.1-1.3-0.1-1.9-0.4c-0.5-0.4-0.7-1-0.7-2.1v-6.3
	h4.1v-1.8h-4.1v-3.8h-1l-2,3l-2.6,1.8v0.7h2.1V67c0,2.2,1.1,3.2,3.2,3.2C41.5,70.2,43,69.8,44.4,69.1 M29.1,60.1v8.4l-1.8,0.6v0.8h7
	v-0.8l-1.7-0.6v-11l-0.5-0.3l-4.8,1.1V59L29.1,60.1z M28.6,52.7c0,1.2,0.9,2.1,2.1,2.2c0,0,0,0,0.1,0c1.3,0,2.3-1,2.3-2.3
	c0-1.2-0.9-2.2-2.1-2.2c0,0-0.1,0-0.1,0C29.6,50.4,28.5,51.4,28.6,52.7 M24.3,61.1c0-2.3-1.2-3.7-3.5-3.7c-1.5,0-2.9,0.7-4.5,2.2
	L16,59.6l0.2-1.9l-0.5-0.3L11,58.4v0.7l1.7,1.1v8.4L11,69.2V70h6.7v-0.8l-1.4-0.6v-8.1c0.7-0.5,1.6-0.7,2.4-0.7c1.5,0,2,1,2,2.6v6.3
	l-1.5,0.6V70H26v-0.8l-1.7-0.6L24.3,61.1z M6.6,68.5V54.3l2.6-0.6v-0.9H0v0.9l2.6,0.6v14.2L0,69.1V70h9.2v-0.9L6.6,68.5z"/>
<path d="M136.2,47.1c0,1.3-1.8,2.4-4,2.4c-2.8,0-3.9-1-3.9-2.4c0-0.6,0.2-1.3,0.6-1.8h4.3C135.3,45.3,136.2,45.8,136.2,47.1
	 M133.7,36.3c0,2.1-0.8,3.2-2,3.2c-1.4,0-2.2-0.7-2.2-3.1s0.9-3.1,2.1-3.1C133,33.3,133.7,34.3,133.7,36.3 M137,36.5
	c0-0.7-0.2-1.4-0.6-2l0.1-0.2l2.3,0.4h0.5v-2.3h-1.5l-2.1,1.2c-1.1-0.8-2.5-1.2-3.9-1.2c-3.1,0-5.4,1.6-5.4,4.1
	c0.1,1.5,1,2.9,2.4,3.5v0.2c-1.6,1.2-2.4,2.2-2.4,3.1c0.1,0.9,0.7,1.6,1.6,1.8v0.3c-1.8,0.7-2.6,1.6-2.6,2.6c0,1.6,1.9,2.8,5.9,2.8
	c4.4,0,7.3-2.2,7.3-4.9c0-2-1.5-3.1-4.3-3.2H131c-1.3,0-1.8-0.4-1.8-1c0.1-0.4,0.2-0.9,0.5-1.2c0.6,0.2,1.3,0.3,2,0.2
	C135,40.6,137,38.9,137,36.5 M124.8,34.6c0-1.1-0.8-2.1-2-2.1c-0.1,0-0.1,0-0.2,0c-1.6,0-2.7,1.1-3.8,3l-0.3-0.1l0.3-2.6l-0.5-0.3
	l-4.6,1.1v0.7l1.7,1.1v8.4l-1.7,0.6v0.8h7.2v-0.8l-1.9-0.6v-7.1c0.5-0.8,1.3-1.3,2.1-1.5c0.1,1,0.9,1.7,1.8,1.7c1.1,0,2-0.9,2-2
	C124.8,34.7,124.8,34.7,124.8,34.6 M104.1,37.9c0.1-2.7,1.2-4.3,2.6-4.3s2.2,1.3,2.2,4L104.1,37.9z M112.4,38.9
	c0.1-3.4-1.4-6.4-5.5-6.4c-3.6,0.1-6.5,3.1-6.4,6.8c-0.2,3.3,2.3,6.1,5.5,6.3c0.3,0,0.5,0,0.8,0c2-0.1,3.9-0.9,5.5-2.3l-0.3-0.6
	c-1.2,0.5-2.6,0.8-3.9,0.8c-2.7,0-4-1.6-4-4.6L112.4,38.9z M95.1,39.5c0,3.4-1.3,4.8-2.7,4.8c-1,0-1.9-0.5-2.5-1.3v-7.8
	c0.6-0.2,1.2-0.4,1.9-0.4C93.8,34.8,95.1,36.3,95.1,39.5 M98.8,38.7c0-3.8-2.3-6.2-4.8-6.2c-1.4,0-2.8,0.6-3.8,1.7l-0.3-0.1v-8.9
	L89.4,25l-4.9,1.3v0.7l1.9,1.1v16.5c1.7,0.5,3.5,0.8,5.3,0.9c3.8,0.2,7-2.7,7.1-6.5c0-0.1,0-0.3,0-0.4 M84.4,34.5
	c0-1.1-0.8-2.1-2-2.1c-0.1,0-0.1,0-0.2,0c-1.6,0-2.7,1.1-3.8,3l-0.3-0.1l0.3-2.6l-0.5-0.3l-4.6,1.1v0.7l1.7,1.1v8.4l-1.7,0.6v0.8
	h7.2v-0.8l-1.9-0.6v-7.1c0.5-0.8,1.3-1.3,2.1-1.5c0.1,1,0.9,1.7,1.8,1.7c1.1,0,2-0.9,1.9-2.1C84.4,34.6,84.4,34.6,84.4,34.5
	 M63.6,37.8c0.1-2.7,1.2-4.3,2.7-4.3c1.5,0,2.2,1.3,2.2,4L63.6,37.8z M72,38.8c0.1-3.4-1.4-6.4-5.5-6.4c-3.6,0.1-6.5,3.1-6.4,6.8
	c-0.2,3.3,2.3,6.1,5.5,6.3c0.3,0,0.5,0,0.8,0c2-0.1,3.9-0.9,5.4-2.3l-0.3-0.6c-1.2,0.5-2.6,0.8-3.9,0.8c-2.7,0-4-1.6-4-4.6H72z
	 M53.6,37.6l3.7-3.3l1.7-0.6v-0.8h-5.7v0.7l1.5,0.9l-3.3,3.7h-1V25.3L50,25l-4.9,1.3v0.7l1.9,1.1v15.5l-1.7,0.6V45h6.6v-0.8
	l-1.3-0.6v-4.1h1l3.1,4.3l-1,0.5V45h6v-0.8l-1.3-0.6L53.6,37.6z M44,35.3c0-1.6-1.7-2.9-4.3-2.9c-3.7-0.1-6.9,2.8-7,6.5
	c0,0.1,0,0.2,0,0.3c-0.1,3.4,2.5,6.1,5.9,6.2c0.1,0,0.3,0,0.4,0c1.9,0,3.8-0.8,5.1-2.2l-0.3-0.7c-1,0.5-2,0.7-3.1,0.7
	c-2.5,0-4.3-1.6-4.3-4.6c0-3.3,1.8-5,3.8-5.1c0.2,0,0.3,0,0.5,0.1c-0.2,0.5-0.3,0.9-0.3,1.4c-0.1,1,0.6,2,1.7,2.1c0.1,0,0.2,0,0.3,0
	c1,0,1.8-0.8,1.8-1.8C43.9,35.4,43.9,35.3,44,35.3 M29.9,42.7V32.6l-0.5-0.3l-4.7,1.1V34l1.7,1.1v7.2c-0.7,0.5-1.6,0.7-2.4,0.7
	c-1.5,0-2.1-0.9-2.1-2.6v-7.8l-0.5-0.3l-4.7,1.1V34l1.7,1.1v6.6c0,2.2,1.2,3.7,3.5,3.7c1.6,0,2.9-0.7,4.5-2.2l0.3,0.1l-0.2,1.9
	l0.5,0.3l4.6-1.1v-0.7L29.9,42.7z M15.5,38.8l-0.6-0.1l-2,2.9c-0.9,1.3-1.6,1.9-3,1.9l-5.1,0.1l10.7-15.1l-0.1-0.7H1.2l-0.5,5.5
	l0.7,0.2l1.7-2.2c1.2-1.5,1.8-2,3.3-2h4.1L-0.2,44.3l0.1,0.7h15L15.5,38.8z"/>
<path d="M61.4,11.1c0-2.3-1.2-3.7-3.5-3.7c-1.5,0-2.9,0.7-4.5,2.2L53,9.5l0.2-1.9l-0.5-0.3l-4.6,1.1v0.7l1.7,1.1v8.4l-1.7,0.6V20
	h6.6v-0.8l-1.4-0.6v-8.2c0.7-0.5,1.6-0.7,2.4-0.7c1.5,0,2,1,2,2.6v6.3l-1.4,0.6V20H63v-0.8l-1.7-0.6L61.4,11.1z M41.5,17.7
	c-0.6,0.4-1.3,0.7-2,0.7c-1,0.1-1.8-0.5-2-1.5c0-0.1,0-0.3,0-0.4c0-1.3,1.1-2.3,3.9-2.4L41.5,17.7z M44.9,11.2
	c0-2.6-1.4-3.8-4.3-3.8s-5.8,1.2-5.8,3.1c0,0.9,0.8,1.7,1.7,1.7c0,0,0,0,0,0c0.8,0.1,1.5-0.5,1.6-1.4c0-0.1,0-0.1,0-0.2
	c0-0.6-0.3-1.1-0.8-1.5c0.5-0.2,0.9-0.2,1.4-0.2c2,0,2.8,0.7,2.8,2.7v1.5c-4.9,0.4-7.2,1.9-7.2,4.2c0,1.9,1.3,2.9,3.3,2.9
	c1.5-0.1,2.8-0.7,3.8-1.8l0.3,0.1c0.1,1.1,1,1.9,2,1.8c0,0,0.1,0,0.1,0c1,0,2-0.2,3-0.6l-0.1-0.7c-1.6,0-2-0.6-2-1.5L44.9,11.2z
	 M27.7,12.2v6.3l-1.5,0.6V20H33v-0.8l-1.7-0.6v-7.5c0-2.2-1.2-3.7-3.5-3.7c-1.7,0.1-3.2,0.8-4.4,2l-0.3-0.1v-9L22.6,0l-4.9,1.3V2
	l1.9,1.1v15.5l-1.7,0.6V20h6.7v-0.8l-1.5-0.6v-8.2c0.8-0.5,1.7-0.7,2.6-0.7C27.2,9.7,27.7,10.7,27.7,12.2 M16.2,14.7l-0.7-0.1
	l-3.2,4.1c-0.6,0.2-1.2,0.3-1.8,0.3c-3.3,0-5.9-2.7-5.9-7.8c0-4.9,2-7.4,4.7-7.4c2.2,0,3.7,1.5,5.5,5.3h1l-0.3-6.6h-0.8l-0.9,0.9
	c-1.3-0.5-2.8-0.8-4.2-0.8c-5-0.2-9.3,3.7-9.4,8.7c0,0.1,0,0.3,0,0.4c0,5.6,4,8.8,9.5,8.8c2.1,0.1,4.1-0.4,6-1.2L16.2,14.7z"/>
<path class="st0" d="M124,61.1c-0.7,0.5-1.5,0.7-2.3,0.7c-1.1,0.1-2.1-0.8-2.2-1.9c0,0,0,0,0-0.1c0-0.6,0.2-1.2,0.6-1.7
	c0.4-0.5,1-0.7,1.6-0.7c0.3,0,0.7,0,1,0.2c0,0-0.1,0.7-0.1,1h1l0.2-1.5l-0.3-0.2c-1.3-0.8-3-0.6-4.1,0.6c-0.6,0.7-0.9,1.5-0.9,2.4
	c0.1,0.8,0.4,1.5,1,2.1c0.6,0.5,1.4,0.8,2.2,0.8h0c0.6,0,1.2-0.1,1.7-0.4l0.7-1.4C124.2,61.1,124.2,61.1,124,61.1"/>
<path class="st0" d="M127.4,64.7l-0.1,1.4l0,0c0,0.5-0.3,0.9-0.7,1.2c-0.5,0.3-1.2,0.1-1.5-0.5c-0.1-0.1-0.1-0.2-0.1-0.3
	c-0.1-0.6,0.2-1.1,0.6-1.4l6.7-4.3c0.1,0.4,0.1,0.8,0.1,1.1c0,4.5-3.6,8.2-8.1,8.2c-4.5,0-8.2-3.6-8.2-8.1c0-4.5,3.6-8.2,8.1-8.2
	c3.3,0,6.2,1.9,7.5,5l0.8-0.5c-2.1-4.6-7.4-6.6-12-4.5c-4.6,2.1-6.6,7.4-4.5,12c2.1,4.6,7.4,6.6,12,4.5c3.3-1.5,5.3-4.7,5.3-8.3
	c0-0.6-0.1-1.1-0.2-1.7c-0.1-0.3-0.1-0.6-0.2-0.9l-1.9,1.2l-2.5,1.6c-0.1-0.4-0.4-0.7-0.7-0.9c-0.7-0.2-1.4-0.1-1.9,0.3l1.9-3.7
	 M127.7,57.6h-3.1l-0.1,1h1.7l-2.4,4.5c0,0.1,0.1,0.2,0.1,0.1l1.3-0.7c0.6-0.3,1.6-0.9,2.1-0.6c0.1,0.1,0.2,0.2,0.2,0.4
	c0,0.1,0,0.1-0.1,0.1l-2.5,1.7c-0.7,0.5-1.1,1.4-1.1,2.3c0.1,0.7,0.5,1.3,1.1,1.6c0.3,0.2,0.7,0.3,1,0.2c0.3,0,0.6-0.1,0.9-0.2
	c0.7-0.4,1.2-1.2,1.3-2l0.2-2.3L127.7,57.6z"/>
</svg>
