<svg id="Layer_1" data-name="Layer 1" xmlns="http://www.w3.org/2000/svg" viewBox="0 0 222.59 29.03"><defs><style>.cls-1{fill:#848484;}.cls-2{fill:#e50030;}</style></defs><path class="cls-1" d="M5.9,27.06a.56.56,0,0,1-.23.14,3.46,3.46,0,0,1-.77.19,7.26,7.26,0,0,1-.92.07,2.58,2.58,0,0,1-2.16-1,4.62,4.62,0,0,1-.75-2.89,4.37,4.37,0,0,1,.79-2.79,2.7,2.7,0,0,1,2.26-1,3.62,3.62,0,0,1,.86.11,3.41,3.41,0,0,1,.78.28.22.22,0,0,1,.12.14.25.25,0,0,1,0,.17l-.19.41s0,.07-.1.1a.15.15,0,0,1-.16,0,3.09,3.09,0,0,0-.62-.25,2.72,2.72,0,0,0-.72-.1,1.75,1.75,0,0,0-1.55.73,4.15,4.15,0,0,0-.48,2.26A5.93,5.93,0,0,0,2.19,25a2.65,2.65,0,0,0,.42.91,1.65,1.65,0,0,0,.67.51,2.28,2.28,0,0,0,.89.17,3.16,3.16,0,0,0,.92-.14V24H3.89a.21.21,0,0,1-.17-.07.27.27,0,0,1-.06-.17v-.4a.25.25,0,0,1,.06-.16.21.21,0,0,1,.17-.08H5.74a.26.26,0,0,1,.16.07.19.19,0,0,1,.07.16v3.49A.37.37,0,0,1,5.9,27.06Z"/><path class="cls-1" d="M11.49,24.85a.19.19,0,0,1-.15.07H8.48a2.4,2.4,0,0,0,.35,1.3,1.26,1.26,0,0,0,1.09.45,2.42,2.42,0,0,0,.57-.05c.16,0,.33-.08.5-.13a.24.24,0,0,1,.19,0,.3.3,0,0,1,.1.14l.1.28a.21.21,0,0,1-.15.29,2.27,2.27,0,0,1-.52.17,3.28,3.28,0,0,1-.78.08,2.21,2.21,0,0,1-1.77-.71,3.11,3.11,0,0,1-.62-2.08,4.06,4.06,0,0,1,.15-1.15,2.65,2.65,0,0,1,.42-.86,1.85,1.85,0,0,1,.64-.54,1.89,1.89,0,0,1,.82-.18,2,2,0,0,1,.74.13,1.4,1.4,0,0,1,.64.45,2.23,2.23,0,0,1,.45.84,4.56,4.56,0,0,1,.16,1.33A.21.21,0,0,1,11.49,24.85Zm-.92-1.21a1.78,1.78,0,0,0-.18-.49,1.12,1.12,0,0,0-.32-.36.81.81,0,0,0-.47-.13,1.24,1.24,0,0,0-.31.05.86.86,0,0,0-.34.22,1.59,1.59,0,0,0-.3.47,2.59,2.59,0,0,0-.17.81h2.16A3.7,3.7,0,0,0,10.57,23.64Z"/><path class="cls-1" d="M15.59,23a.25.25,0,0,1-.23,0l-.29-.07a1.39,1.39,0,0,0-.33-.05.52.52,0,0,0-.26.08.74.74,0,0,0-.25.25,1.36,1.36,0,0,0-.18.42,2.25,2.25,0,0,0-.08.63v2.93a.18.18,0,0,1-.07.15.21.21,0,0,1-.16.07h-.43a.21.21,0,0,1-.16-.07.18.18,0,0,1-.07-.15v-5a.19.19,0,0,1,.07-.16.25.25,0,0,1,.16-.06h.26a.21.21,0,0,1,.23.16l.16.61a1.93,1.93,0,0,1,.55-.61,1.19,1.19,0,0,1,.71-.22.88.88,0,0,1,.45.11.24.24,0,0,1,.13.28l-.11.46A.35.35,0,0,1,15.59,23Z"/><path class="cls-1" d="M23.6,27.33a.21.21,0,0,1-.16.07H23a.21.21,0,0,1-.16-.07.18.18,0,0,1-.07-.15V23.54a1,1,0,0,0-.16-.64.67.67,0,0,0-.54-.2,1.26,1.26,0,0,0-.51.11,1.12,1.12,0,0,0-.41.3,1.33,1.33,0,0,0-.28.44,1.62,1.62,0,0,0-.1.54v3.09a.18.18,0,0,1-.07.15.21.21,0,0,1-.16.07h-.43a.21.21,0,0,1-.16-.07.19.19,0,0,1-.08-.15V23.54a1,1,0,0,0-.16-.64.65.65,0,0,0-.53-.2,1.26,1.26,0,0,0-.51.11,1.25,1.25,0,0,0-.42.3,1.48,1.48,0,0,0-.27.44,1.4,1.4,0,0,0-.1.54v3.09a.21.21,0,0,1-.07.15.23.23,0,0,1-.17.07h-.42a.23.23,0,0,1-.17-.07.21.21,0,0,1-.07-.15v-5a.22.22,0,0,1,.07-.16.27.27,0,0,1,.17-.06h.24a.23.23,0,0,1,.26.17l.12.55a2.33,2.33,0,0,1,.74-.6,1.85,1.85,0,0,1,.81-.18,1.44,1.44,0,0,1,.82.23,1.17,1.17,0,0,1,.47.62,2.87,2.87,0,0,1,.7-.62,1.71,1.71,0,0,1,.91-.23,1.37,1.37,0,0,1,1,.38,1.45,1.45,0,0,1,.37,1v3.84A.19.19,0,0,1,23.6,27.33Z"/><path class="cls-1" d="M29,27.4H28.5a.23.23,0,0,1-.25-.2l-.09-.56a1.45,1.45,0,0,1-.67.63,2,2,0,0,1-.86.19,1.37,1.37,0,0,1-1-.41,1.57,1.57,0,0,1-.4-1.16,1.9,1.9,0,0,1,.15-.8,1.47,1.47,0,0,1,.37-.52,1.52,1.52,0,0,1,.53-.29,2.83,2.83,0,0,1,.58-.11l1.31-.08V23.8a2.07,2.07,0,0,0,0-.46.63.63,0,0,0-.15-.33.7.7,0,0,0-.31-.2,1.9,1.9,0,0,0-.52-.06,2.49,2.49,0,0,0-.59.06l-.47.13a.27.27,0,0,1-.18,0,.22.22,0,0,1-.11-.15l-.06-.36q0-.22.15-.27l.59-.13a3.51,3.51,0,0,1,.72-.07,2.29,2.29,0,0,1,1,.18,1.45,1.45,0,0,1,.55.48,1.56,1.56,0,0,1,.25.64,5.31,5.31,0,0,1,.05.68v2.44a4.49,4.49,0,0,0,.06.48l.07.34C29.16,27.33,29.1,27.4,29,27.4Zm-1.58-2.63a2,2,0,0,0-.5.06,1,1,0,0,0-.41.17.82.82,0,0,0-.26.34,1.23,1.23,0,0,0-.1.55.91.91,0,0,0,.2.64.77.77,0,0,0,.57.21,1.26,1.26,0,0,0,.51-.11,1.5,1.5,0,0,0,.4-.28A1.27,1.27,0,0,0,28,26a.87.87,0,0,0,.09-.36v-.89Z"/><path class="cls-1" d="M34.63,27.33a.21.21,0,0,1-.16.07H34a.21.21,0,0,1-.16-.07.18.18,0,0,1-.07-.15V23.54a1,1,0,0,0-.16-.64.67.67,0,0,0-.54-.2,1.26,1.26,0,0,0-.51.11,1.12,1.12,0,0,0-.41.3,1.33,1.33,0,0,0-.28.44,1.62,1.62,0,0,0-.1.54v3.09a.18.18,0,0,1-.07.15.21.21,0,0,1-.16.07h-.43a.21.21,0,0,1-.16-.07.19.19,0,0,1-.08-.15v-5a.19.19,0,0,1,.08-.16.25.25,0,0,1,.16-.06h.25a.23.23,0,0,1,.25.17l.13.55a2.3,2.3,0,0,1,.73-.6,1.86,1.86,0,0,1,.82-.18,1.37,1.37,0,0,1,1,.38,1.45,1.45,0,0,1,.37,1v3.84A.19.19,0,0,1,34.63,27.33Z"/><path class="cls-1" d="M44.22,27.33c0,.05-.08.07-.16.07h-.67a.18.18,0,0,1-.2-.13c-.16-.5-.3-.94-.42-1.33a5.12,5.12,0,0,0-.44-1c-.06-.11-.14-.22-.21-.34a1.42,1.42,0,0,0-.29-.31,1.47,1.47,0,0,0-.39-.22A1.71,1.71,0,0,0,40.9,24h-.6v3.21a.18.18,0,0,1-.07.15.21.21,0,0,1-.16.07h-.44a.21.21,0,0,1-.16-.07.18.18,0,0,1-.07-.15V20.11a.19.19,0,0,1,.07-.16.25.25,0,0,1,.16-.06h1.9a3,3,0,0,1,1.12.18,1.86,1.86,0,0,1,.68.47,1.42,1.42,0,0,1,.34.59,2.16,2.16,0,0,1,.09.58,2.06,2.06,0,0,1-.14.76,1.73,1.73,0,0,1-.38.57,1.75,1.75,0,0,1-.57.39,2.31,2.31,0,0,1-.69.16,1.82,1.82,0,0,1,.44.17,1.88,1.88,0,0,1,.39.29,2.6,2.6,0,0,1,.3.36,2.65,2.65,0,0,1,.22.4c.06.11.16.36.32.76l.57,1.56A.23.23,0,0,1,44.22,27.33ZM42.5,21a1.33,1.33,0,0,0-1-.32H40.3v2.45h1.09a1.54,1.54,0,0,0,1.06-.34,1.25,1.25,0,0,0,.38-1A1.08,1.08,0,0,0,42.5,21Z"/><path class="cls-1" d="M49.12,24.85a.19.19,0,0,1-.15.07H46.11a2.4,2.4,0,0,0,.35,1.3,1.26,1.26,0,0,0,1.09.45,2.42,2.42,0,0,0,.57-.05c.16,0,.33-.08.5-.13a.24.24,0,0,1,.19,0,.3.3,0,0,1,.1.14l.1.28a.21.21,0,0,1-.15.29,2.27,2.27,0,0,1-.52.17,3.28,3.28,0,0,1-.78.08,2.21,2.21,0,0,1-1.77-.71,3.11,3.11,0,0,1-.62-2.08,4.06,4.06,0,0,1,.15-1.15,2.65,2.65,0,0,1,.42-.86,1.85,1.85,0,0,1,.64-.54,1.89,1.89,0,0,1,.82-.18,2,2,0,0,1,.74.13,1.4,1.4,0,0,1,.64.45,2.23,2.23,0,0,1,.45.84,4.56,4.56,0,0,1,.16,1.33A.21.21,0,0,1,49.12,24.85Zm-.92-1.21a1.78,1.78,0,0,0-.18-.49,1.12,1.12,0,0,0-.32-.36.81.81,0,0,0-.47-.13,1.24,1.24,0,0,0-.31.05.86.86,0,0,0-.34.22,1.59,1.59,0,0,0-.3.47,2.59,2.59,0,0,0-.17.81h2.16A3.7,3.7,0,0,0,48.2,23.64Z"/><path class="cls-1" d="M53.15,27a1.85,1.85,0,0,1-1.28.43,4.29,4.29,0,0,1-.77-.08,2.34,2.34,0,0,1-.72-.24.21.21,0,0,1-.12-.3l.1-.34a.19.19,0,0,1,.12-.15.17.17,0,0,1,.17,0,3.43,3.43,0,0,0,.59.22,2.82,2.82,0,0,0,.65.08c.55,0,.82-.23.82-.7a.66.66,0,0,0-.27-.57,5,5,0,0,0-.69-.41l-.48-.26a2.24,2.24,0,0,1-.43-.31,1.26,1.26,0,0,1-.43-1,1.4,1.4,0,0,1,.46-1.09,1.85,1.85,0,0,1,1.26-.4,2.52,2.52,0,0,1,.66.07,2.82,2.82,0,0,1,.49.16.24.24,0,0,1,.11.31l-.11.28c0,.13-.13.16-.28.11a3.79,3.79,0,0,0-.4-.13,1.73,1.73,0,0,0-.5-.07.87.87,0,0,0-.59.18.57.57,0,0,0-.21.46.59.59,0,0,0,.27.52,6.19,6.19,0,0,0,.65.39c.18.09.35.19.52.29a2.61,2.61,0,0,1,.45.33,1.39,1.39,0,0,1,.31.45,1.43,1.43,0,0,1,.12.62A1.46,1.46,0,0,1,53.15,27Z"/><path class="cls-1" d="M58.69,24.85a.18.18,0,0,1-.15.07H55.68a2.4,2.4,0,0,0,.35,1.3,1.26,1.26,0,0,0,1.09.45,2.42,2.42,0,0,0,.57-.05c.16,0,.33-.08.5-.13a.24.24,0,0,1,.19,0,.3.3,0,0,1,.1.14l.1.28a.21.21,0,0,1-.15.29,2.27,2.27,0,0,1-.52.17,3.28,3.28,0,0,1-.78.08,2.21,2.21,0,0,1-1.77-.71,3.11,3.11,0,0,1-.62-2.08,4.06,4.06,0,0,1,.15-1.15,2.65,2.65,0,0,1,.42-.86,1.85,1.85,0,0,1,.64-.54,1.89,1.89,0,0,1,.82-.18,2,2,0,0,1,.74.13,1.4,1.4,0,0,1,.64.45,2.23,2.23,0,0,1,.45.84,4.56,4.56,0,0,1,.16,1.33A.21.21,0,0,1,58.69,24.85Zm-.92-1.21a1.51,1.51,0,0,0-.18-.49,1.12,1.12,0,0,0-.32-.36.81.81,0,0,0-.47-.13,1.24,1.24,0,0,0-.31.05.86.86,0,0,0-.34.22,1.59,1.59,0,0,0-.3.47,2.59,2.59,0,0,0-.17.81h2.16A3.7,3.7,0,0,0,57.77,23.64Z"/><path class="cls-1" d="M63.65,27.4h-.46a.22.22,0,0,1-.24-.2l-.09-.56a1.52,1.52,0,0,1-.68.63,2,2,0,0,1-.86.19,1.39,1.39,0,0,1-1-.41,1.57,1.57,0,0,1-.4-1.16,1.9,1.9,0,0,1,.15-.8,1.38,1.38,0,0,1,.38-.52,1.4,1.4,0,0,1,.52-.29,3,3,0,0,1,.58-.11l1.31-.08V23.8a2.07,2.07,0,0,0,0-.46.63.63,0,0,0-.15-.33.7.7,0,0,0-.31-.2,1.9,1.9,0,0,0-.52-.06,2.49,2.49,0,0,0-.59.06l-.47.13a.27.27,0,0,1-.18,0,.18.18,0,0,1-.1-.15l-.07-.36c0-.15,0-.24.16-.27l.58-.13a3.51,3.51,0,0,1,.72-.07,2.29,2.29,0,0,1,1,.18,1.57,1.57,0,0,1,.56.48,1.7,1.7,0,0,1,.24.64,5.31,5.31,0,0,1,.05.68v2.44a4.49,4.49,0,0,0,.06.48l.07.34C63.85,27.33,63.79,27.4,63.65,27.4Zm-1.58-2.63a2,2,0,0,0-.5.06,1,1,0,0,0-.41.17.82.82,0,0,0-.26.34,1.23,1.23,0,0,0-.1.55.91.91,0,0,0,.2.64.77.77,0,0,0,.57.21,1.26,1.26,0,0,0,.51-.11,1.5,1.5,0,0,0,.4-.28,1.27,1.27,0,0,0,.25-.37.87.87,0,0,0,.09-.36v-.89Z"/><path class="cls-1" d="M68.12,23a.26.26,0,0,1-.23,0l-.29-.07a1.4,1.4,0,0,0-.34-.05A.52.52,0,0,0,67,23a.66.66,0,0,0-.25.25,1.36,1.36,0,0,0-.18.42,2.25,2.25,0,0,0-.08.63v2.93a.18.18,0,0,1-.07.15.21.21,0,0,1-.16.07h-.43a.21.21,0,0,1-.16-.07.19.19,0,0,1-.08-.15v-5a.19.19,0,0,1,.08-.16.25.25,0,0,1,.16-.06h.26a.21.21,0,0,1,.23.16l.16.61a1.93,1.93,0,0,1,.55-.61,1.19,1.19,0,0,1,.71-.22.88.88,0,0,1,.45.11.24.24,0,0,1,.13.28l-.11.46A.35.35,0,0,1,68.12,23Z"/><path class="cls-1" d="M72.21,27.21a.24.24,0,0,1-.16.11,1.87,1.87,0,0,1-.48.11,4.39,4.39,0,0,1-.54,0,1.94,1.94,0,0,1-1.58-.73,3.16,3.16,0,0,1-.6-2.08A3.46,3.46,0,0,1,69,23.56a2.81,2.81,0,0,1,.45-.86,2.3,2.3,0,0,1,.69-.56,2,2,0,0,1,.87-.2,2.38,2.38,0,0,1,.55.06,2.21,2.21,0,0,1,.41.13c.15.08.21.17.16.28l-.11.33a.22.22,0,0,1-.09.14.19.19,0,0,1-.19,0,3.17,3.17,0,0,0-.33-.11,1.88,1.88,0,0,0-.43-.05,1,1,0,0,0-.86.52,2.62,2.62,0,0,0-.33,1.42q0,2,1.29,2a3,3,0,0,0,.43,0l.36-.07a.18.18,0,0,1,.19,0,.34.34,0,0,1,.09.14l.07.35A.2.2,0,0,1,72.21,27.21Z"/><path class="cls-1" d="M77.36,27.33a.23.23,0,0,1-.17.07h-.4a.21.21,0,0,1-.16-.07.19.19,0,0,1-.08-.15V23.54a.93.93,0,0,0-.17-.64.7.7,0,0,0-.54-.2,1.26,1.26,0,0,0-.51.11,1.25,1.25,0,0,0-.42.3,1.35,1.35,0,0,0-.29.44,1.41,1.41,0,0,0-.11.54v3.09a.18.18,0,0,1-.07.15.21.21,0,0,1-.16.07h-.41a.21.21,0,0,1-.16-.07.18.18,0,0,1-.07-.15V19.69a.21.21,0,0,1,.07-.17.25.25,0,0,1,.16-.06h.41a.25.25,0,0,1,.16.06.21.21,0,0,1,.07.17v3a2.38,2.38,0,0,1,.74-.58,1.84,1.84,0,0,1,.8-.18,1.36,1.36,0,0,1,1,.38,1.41,1.41,0,0,1,.37,1v3.84A.21.21,0,0,1,77.36,27.33Z"/><path class="cls-1" d="M86.11,27.05a.26.26,0,0,1-.11.1,2.77,2.77,0,0,1-.54.21,2.84,2.84,0,0,1-.84.1,2.47,2.47,0,0,1-2.1-1,4.78,4.78,0,0,1-.74-2.86A5.22,5.22,0,0,1,82,22a3.53,3.53,0,0,1,.59-1.18,2.62,2.62,0,0,1,.92-.74,2.87,2.87,0,0,1,1.18-.25,3.77,3.77,0,0,1,.66.06,1.66,1.66,0,0,1,.63.23.23.23,0,0,1,.09.33l-.18.35a.21.21,0,0,1-.3.09l-.4-.16a1.73,1.73,0,0,0-.47-.06,1.63,1.63,0,0,0-1.43.7,3.91,3.91,0,0,0-.5,2.23A5.93,5.93,0,0,0,82.93,25a2.86,2.86,0,0,0,.4.93,1.59,1.59,0,0,0,.6.53,1.67,1.67,0,0,0,.77.17,1.93,1.93,0,0,0,.5-.07,2.54,2.54,0,0,0,.42-.14.18.18,0,0,1,.17,0,.18.18,0,0,1,.11.1l.2.43A.18.18,0,0,1,86.11,27.05Z"/><path class="cls-1" d="M90.89,24.85a.19.19,0,0,1-.15.07H87.88a2.4,2.4,0,0,0,.35,1.3,1.26,1.26,0,0,0,1.09.45,2.42,2.42,0,0,0,.57-.05c.16,0,.33-.08.5-.13a.24.24,0,0,1,.19,0,.3.3,0,0,1,.1.14l.1.28a.21.21,0,0,1-.15.29,2.27,2.27,0,0,1-.52.17,3.28,3.28,0,0,1-.78.08,2.21,2.21,0,0,1-1.77-.71,3.11,3.11,0,0,1-.62-2.08,4.06,4.06,0,0,1,.15-1.15,2.65,2.65,0,0,1,.42-.86,1.85,1.85,0,0,1,.64-.54,1.89,1.89,0,0,1,.82-.18,2,2,0,0,1,.74.13,1.4,1.4,0,0,1,.64.45,2.23,2.23,0,0,1,.45.84A4.56,4.56,0,0,1,91,24.69.21.21,0,0,1,90.89,24.85ZM90,23.64a1.78,1.78,0,0,0-.18-.49,1.12,1.12,0,0,0-.32-.36.81.81,0,0,0-.47-.13,1.24,1.24,0,0,0-.31.05.86.86,0,0,0-.34.22,1.59,1.59,0,0,0-.3.47,2.59,2.59,0,0,0-.17.81H90A3.7,3.7,0,0,0,90,23.64Z"/><path class="cls-1" d="M96.19,27.33a.21.21,0,0,1-.16.07H95.6a.21.21,0,0,1-.16-.07.18.18,0,0,1-.07-.15V23.54a1,1,0,0,0-.16-.64.67.67,0,0,0-.54-.2,1.26,1.26,0,0,0-.51.11,1.12,1.12,0,0,0-.41.3,1.33,1.33,0,0,0-.28.44,1.62,1.62,0,0,0-.1.54v3.09a.18.18,0,0,1-.07.15.21.21,0,0,1-.16.07h-.43a.21.21,0,0,1-.16-.07.18.18,0,0,1-.07-.15v-5a.19.19,0,0,1,.07-.16.25.25,0,0,1,.16-.06H93a.24.24,0,0,1,.26.17l.12.55a2.3,2.3,0,0,1,.73-.6,1.89,1.89,0,0,1,.82-.18,1.37,1.37,0,0,1,1,.38,1.45,1.45,0,0,1,.37,1v3.84A.19.19,0,0,1,96.19,27.33Z"/><path class="cls-1" d="M100.07,27.27a.2.2,0,0,1-.16.11l-.28.05a1.69,1.69,0,0,1-.33,0c-.75,0-1.13-.36-1.13-1.07V22.71h-.56a.2.2,0,0,1-.16-.07.25.25,0,0,1-.06-.16v-.25a.25.25,0,0,1,.06-.16.2.2,0,0,1,.16-.07h.56V20.86a.23.23,0,0,1,.17-.24l.42-.15a.43.43,0,0,1,.19,0c.07,0,.1.05.1.14V22h.67a.21.21,0,0,1,.16.07.26.26,0,0,1,.07.16v.25a.26.26,0,0,1-.07.16.21.21,0,0,1-.16.07h-.67v3.57c0,.29.13.44.4.44h.17l.18,0a.19.19,0,0,1,.24.18l0,.24A.28.28,0,0,1,100.07,27.27Z"/><path class="cls-1" d="M104.82,24.85a.21.21,0,0,1-.16.07H101.8a2.31,2.31,0,0,0,.36,1.3,1.25,1.25,0,0,0,1.09.45,2.38,2.38,0,0,0,.56-.05c.16,0,.33-.08.5-.13a.24.24,0,0,1,.19,0,.24.24,0,0,1,.1.14l.1.28a.21.21,0,0,1-.14.29,2.44,2.44,0,0,1-.52.17,3.28,3.28,0,0,1-.78.08,2.23,2.23,0,0,1-1.78-.71,3.11,3.11,0,0,1-.61-2.08,4.47,4.47,0,0,1,.14-1.15,2.65,2.65,0,0,1,.42-.86,2,2,0,0,1,.64-.54,1.9,1.9,0,0,1,.83-.18,2.1,2.1,0,0,1,.74.13,1.45,1.45,0,0,1,.64.45,2.37,2.37,0,0,1,.44.84,4.56,4.56,0,0,1,.16,1.33A.25.25,0,0,1,104.82,24.85Zm-.92-1.21a1.52,1.52,0,0,0-.19-.49,1.12,1.12,0,0,0-.32-.36.79.79,0,0,0-.47-.13,1.32,1.32,0,0,0-.31.05.83.83,0,0,0-.33.22,1.59,1.59,0,0,0-.3.47,2.57,2.57,0,0,0-.18.81H104A3.68,3.68,0,0,0,103.9,23.64Z"/><path class="cls-1" d="M108.91,23a.24.24,0,0,1-.22,0l-.3-.07a1.39,1.39,0,0,0-.33-.05.56.56,0,0,0-.26.08.74.74,0,0,0-.25.25,1.65,1.65,0,0,0-.18.42,2.28,2.28,0,0,0-.07.63v2.93a.19.19,0,0,1-.08.15.21.21,0,0,1-.16.07h-.43a.21.21,0,0,1-.16-.07.18.18,0,0,1-.07-.15v-5a.19.19,0,0,1,.07-.16.25.25,0,0,1,.16-.06h.26a.23.23,0,0,1,.24.16l.15.61a2.06,2.06,0,0,1,.55-.61,1.19,1.19,0,0,1,.71-.22.88.88,0,0,1,.45.11.24.24,0,0,1,.13.28l-.11.46A.29.29,0,0,1,108.91,23Z"/><path class="cls-1" d="M115,20.31l-.22-.07a.8.8,0,0,0-.26,0,.43.43,0,0,0-.38.17.73.73,0,0,0-.13.47V22h.67a.2.2,0,0,1,.16.07.21.21,0,0,1,.07.16v.25a.21.21,0,0,1-.07.16.2.2,0,0,1-.16.07H114v4.47a.18.18,0,0,1-.07.15.21.21,0,0,1-.16.07h-.41a.21.21,0,0,1-.16-.07.18.18,0,0,1-.07-.15V22.71h-.56a.21.21,0,0,1-.17-.07.25.25,0,0,1-.06-.16v-.25a.25.25,0,0,1,.06-.16.21.21,0,0,1,.17-.07h.56V20.8a1.74,1.74,0,0,1,.1-.65,1.17,1.17,0,0,1,.29-.44,1.19,1.19,0,0,1,.43-.23,1.7,1.7,0,0,1,.51-.07,1.42,1.42,0,0,1,.42.06l.33.11a.25.25,0,0,1,.12.13.37.37,0,0,1,0,.18l-.09.3A.18.18,0,0,1,115,20.31Z"/><path class="cls-1" d="M119.75,25.86a2.4,2.4,0,0,1-.43.86,1.94,1.94,0,0,1-.69.55,2.1,2.1,0,0,1-.88.19,2.07,2.07,0,0,1-.88-.19,1.9,1.9,0,0,1-.68-.55,2.41,2.41,0,0,1-.44-.86,4.13,4.13,0,0,1-.15-1.16,4.18,4.18,0,0,1,.15-1.16,2.55,2.55,0,0,1,.44-.87,2,2,0,0,1,.68-.54,1.93,1.93,0,0,1,.88-.19,2,2,0,0,1,.88.19,2,2,0,0,1,.69.54,2.53,2.53,0,0,1,.43.87,4.17,4.17,0,0,1,.16,1.16A4.12,4.12,0,0,1,119.75,25.86Zm-1.1-2.68a1.07,1.07,0,0,0-1.8,0,2.89,2.89,0,0,0-.32,1.52,2.91,2.91,0,0,0,.32,1.53,1.07,1.07,0,0,0,1.8,0A2.81,2.81,0,0,0,119,24.7,2.8,2.8,0,0,0,118.65,23.18Z"/><path class="cls-1" d="M123.93,23a.23.23,0,0,1-.22,0l-.3-.07a1.26,1.26,0,0,0-.33-.05.56.56,0,0,0-.26.08.64.64,0,0,0-.24.25,1.36,1.36,0,0,0-.19.42,2.28,2.28,0,0,0-.07.63v2.93a.21.21,0,0,1-.07.15.23.23,0,0,1-.17.07h-.42a.23.23,0,0,1-.17-.07.21.21,0,0,1-.07-.15v-5a.22.22,0,0,1,.07-.16.27.27,0,0,1,.17-.06h.25a.23.23,0,0,1,.24.16l.16.61a1.82,1.82,0,0,1,.55-.61,1.16,1.16,0,0,1,.7-.22.88.88,0,0,1,.45.11c.12.08.17.17.14.28l-.12.46A.26.26,0,0,1,123.93,23Z"/><path class="cls-1" d="M131.93,27.33a.23.23,0,0,1-.17.07h-3.41a.21.21,0,0,1-.16-.07.18.18,0,0,1-.07-.15V20.11a.19.19,0,0,1,.07-.16.25.25,0,0,1,.16-.06h3.41a.27.27,0,0,1,.17.06.19.19,0,0,1,.07.16v.37a.28.28,0,0,1-.06.18.25.25,0,0,1-.18.07H129V23h2.51a.25.25,0,0,1,.17.06.26.26,0,0,1,.07.16v.35a.29.29,0,0,1-.07.18.25.25,0,0,1-.17.06H129v2.71h2.72a.24.24,0,0,1,.18.07.2.2,0,0,1,.07.16v.41A.18.18,0,0,1,131.93,27.33Z"/><path class="cls-1" d="M137.23,27.33a.21.21,0,0,1-.16.07h-.43a.21.21,0,0,1-.16-.07.18.18,0,0,1-.07-.15V23.54a1,1,0,0,0-.16-.64.67.67,0,0,0-.54-.2,1.26,1.26,0,0,0-.51.11,1.12,1.12,0,0,0-.41.3,1.33,1.33,0,0,0-.28.44,1.62,1.62,0,0,0-.1.54v3.09a.18.18,0,0,1-.07.15.21.21,0,0,1-.16.07h-.43a.21.21,0,0,1-.16-.07.18.18,0,0,1-.07-.15v-5a.19.19,0,0,1,.07-.16.25.25,0,0,1,.16-.06H134a.24.24,0,0,1,.26.17l.12.55a2.3,2.3,0,0,1,.73-.6,1.89,1.89,0,0,1,.82-.18,1.37,1.37,0,0,1,1,.38,1.45,1.45,0,0,1,.37,1v3.84A.19.19,0,0,1,137.23,27.33Z"/><path class="cls-1" d="M140.82,27.4h-.71a.22.22,0,0,1-.15,0,.29.29,0,0,1-.08-.16l-1.44-4.91a.23.23,0,0,1,0-.22.18.18,0,0,1,.15-.07h.5a.26.26,0,0,1,.28.22l1,3.75a2.31,2.31,0,0,1,.09.47c0,.19,0,.36.06.5,0-.13,0-.3.06-.49a2.29,2.29,0,0,1,.09-.48l.92-3.76a.25.25,0,0,1,.27-.21h.51a.2.2,0,0,1,.15.06.18.18,0,0,1,0,.19l-1.45,4.95A.26.26,0,0,1,140.82,27.4Z"/><path class="cls-1" d="M144.58,20.52a.65.65,0,0,1-.92,0,.63.63,0,0,1-.19-.46.6.6,0,0,1,.19-.46.65.65,0,0,1,.92,0,.64.64,0,0,1,.19.46A.68.68,0,0,1,144.58,20.52Zm-.1,6.81a.21.21,0,0,1-.16.07h-.4a.23.23,0,0,1-.17-.07.18.18,0,0,1-.07-.15v-5a.21.21,0,0,1,.07-.16.27.27,0,0,1,.17-.06h.4a.25.25,0,0,1,.16.06.23.23,0,0,1,.08.16v5A.19.19,0,0,1,144.48,27.33Z"/><path class="cls-1" d="M149,23a.23.23,0,0,1-.22,0l-.3-.07a1.26,1.26,0,0,0-.33-.05.56.56,0,0,0-.26.08.72.72,0,0,0-.24.25,1.36,1.36,0,0,0-.19.42,2.28,2.28,0,0,0-.07.63v2.93a.18.18,0,0,1-.07.15.23.23,0,0,1-.17.07h-.42a.2.2,0,0,1-.16-.07.19.19,0,0,1-.08-.15v-5a.19.19,0,0,1,.08-.16.23.23,0,0,1,.16-.06H147a.22.22,0,0,1,.23.16l.16.61a1.93,1.93,0,0,1,.55-.61,1.16,1.16,0,0,1,.7-.22.88.88,0,0,1,.45.11c.12.08.17.17.14.28l-.11.46A.3.3,0,0,1,149,23Z"/><path class="cls-1" d="M154.14,25.86a2.41,2.41,0,0,1-.44.86,2,2,0,0,1-.68.55,2.14,2.14,0,0,1-.88.19,2.11,2.11,0,0,1-.89-.19,2.09,2.09,0,0,1-.68-.55,2.4,2.4,0,0,1-.43-.86A4.13,4.13,0,0,1,150,24.7a4.18,4.18,0,0,1,.15-1.16,2.53,2.53,0,0,1,.43-.87,2.2,2.2,0,0,1,.68-.54,2.16,2.16,0,0,1,1.77,0,2.09,2.09,0,0,1,.68.54,2.55,2.55,0,0,1,.44.87,4.18,4.18,0,0,1,.15,1.16A4.13,4.13,0,0,1,154.14,25.86ZM153,23.18a1.07,1.07,0,0,0-1.8,0,2.8,2.8,0,0,0-.32,1.52,2.81,2.81,0,0,0,.32,1.53,1.07,1.07,0,0,0,1.8,0,2.81,2.81,0,0,0,.32-1.53A2.8,2.8,0,0,0,153,23.18Z"/><path class="cls-1" d="M159.53,27.33a.23.23,0,0,1-.17.07h-.42a.2.2,0,0,1-.16-.07.19.19,0,0,1-.08-.15V23.54a1,1,0,0,0-.16-.64.66.66,0,0,0-.53-.2,1.26,1.26,0,0,0-.51.11,1.25,1.25,0,0,0-.42.3,1.3,1.3,0,0,0-.27.44,1.4,1.4,0,0,0-.1.54v3.09a.19.19,0,0,1-.08.15.21.21,0,0,1-.16.07H156a.21.21,0,0,1-.16-.07.18.18,0,0,1-.07-.15v-5a.19.19,0,0,1,.07-.16A.25.25,0,0,1,156,22h.25a.24.24,0,0,1,.26.17l.12.55a2.33,2.33,0,0,1,.74-.6,1.85,1.85,0,0,1,.81-.18,1.36,1.36,0,0,1,1,.38,1.41,1.41,0,0,1,.37,1v3.84A.18.18,0,0,1,159.53,27.33Z"/><path class="cls-1" d="M168.12,27.33a.21.21,0,0,1-.16.07h-.43a.21.21,0,0,1-.16-.07.18.18,0,0,1-.07-.15V23.54a1,1,0,0,0-.17-.64.65.65,0,0,0-.53-.2,1.26,1.26,0,0,0-.51.11,1.25,1.25,0,0,0-.42.3,1.48,1.48,0,0,0-.27.44,1.4,1.4,0,0,0-.1.54v3.09a.21.21,0,0,1-.07.15.23.23,0,0,1-.17.07h-.42a.23.23,0,0,1-.17-.07.21.21,0,0,1-.07-.15V23.54a1,1,0,0,0-.16-.64.66.66,0,0,0-.53-.2,1.26,1.26,0,0,0-.51.11,1.25,1.25,0,0,0-.42.3,1.3,1.3,0,0,0-.27.44,1.4,1.4,0,0,0-.1.54v3.09a.19.19,0,0,1-.08.15.21.21,0,0,1-.16.07h-.43a.21.21,0,0,1-.16-.07.18.18,0,0,1-.07-.15v-5a.19.19,0,0,1,.07-.16.25.25,0,0,1,.16-.06H162a.24.24,0,0,1,.26.17l.12.55a2.33,2.33,0,0,1,.74-.6,1.85,1.85,0,0,1,.81-.18,1.46,1.46,0,0,1,.82.23,1.22,1.22,0,0,1,.47.62,3,3,0,0,1,.69-.62,1.73,1.73,0,0,1,.91-.23,1.34,1.34,0,0,1,1,.38,1.41,1.41,0,0,1,.37,1v3.84A.18.18,0,0,1,168.12,27.33Z"/><path class="cls-1" d="M173.71,24.85a.18.18,0,0,1-.15.07H170.7a2.31,2.31,0,0,0,.36,1.3,1.24,1.24,0,0,0,1.08.45,2.42,2.42,0,0,0,.57-.05c.16,0,.33-.08.5-.13a.24.24,0,0,1,.19,0,.3.3,0,0,1,.1.14l.1.28a.21.21,0,0,1-.14.29,2.36,2.36,0,0,1-.53.17,3.13,3.13,0,0,1-.77.08,2.22,2.22,0,0,1-1.78-.71,3.11,3.11,0,0,1-.61-2.08,4.07,4.07,0,0,1,.14-1.15,2.65,2.65,0,0,1,.42-.86,2,2,0,0,1,.64-.54,1.9,1.9,0,0,1,.83-.18,2.1,2.1,0,0,1,.74.13,1.45,1.45,0,0,1,.64.45,2.37,2.37,0,0,1,.44.84,4.56,4.56,0,0,1,.16,1.33A.21.21,0,0,1,173.71,24.85Zm-.92-1.21a1.31,1.31,0,0,0-.18-.49,1.12,1.12,0,0,0-.32-.36.79.79,0,0,0-.47-.13,1.32,1.32,0,0,0-.31.05.86.86,0,0,0-.34.22,1.82,1.82,0,0,0-.29.47,2.57,2.57,0,0,0-.18.81h2.16A3.7,3.7,0,0,0,172.79,23.64Z"/><path class="cls-1" d="M179,27.33a.2.2,0,0,1-.16.07h-.42a.23.23,0,0,1-.17-.07.18.18,0,0,1-.07-.15V23.54a1,1,0,0,0-.16-.64.67.67,0,0,0-.54-.2,1.25,1.25,0,0,0-.5.11,1.15,1.15,0,0,0-.42.3,1.33,1.33,0,0,0-.28.44,1.62,1.62,0,0,0-.1.54v3.09a.18.18,0,0,1-.07.15.21.21,0,0,1-.16.07h-.43a.21.21,0,0,1-.16-.07.18.18,0,0,1-.07-.15v-5a.19.19,0,0,1,.07-.16.25.25,0,0,1,.16-.06h.25a.24.24,0,0,1,.26.17l.12.55a2.23,2.23,0,0,1,.74-.6,1.85,1.85,0,0,1,.81-.18,1.37,1.37,0,0,1,1,.38,1.45,1.45,0,0,1,.37,1v3.84A.19.19,0,0,1,179,27.33Z"/><path class="cls-1" d="M182.89,27.27a.2.2,0,0,1-.16.11l-.28.05a1.69,1.69,0,0,1-.33,0c-.75,0-1.12-.36-1.12-1.07V22.71h-.56a.21.21,0,0,1-.17-.07.25.25,0,0,1-.06-.16v-.25a.25.25,0,0,1,.06-.16.21.21,0,0,1,.17-.07H181V20.86a.22.22,0,0,1,.16-.24l.42-.15a.46.46,0,0,1,.2,0c.06,0,.09.05.09.14V22h.67a.2.2,0,0,1,.16.07.21.21,0,0,1,.07.16v.25a.21.21,0,0,1-.07.16.2.2,0,0,1-.16.07h-.67v3.57c0,.29.14.44.4.44h.17l.18,0a.19.19,0,0,1,.24.18l0,.24A.28.28,0,0,1,182.89,27.27Z"/><path class="cls-1" d="M187.4,27.4h-.46a.23.23,0,0,1-.25-.2l-.08-.56a1.52,1.52,0,0,1-.68.63,2,2,0,0,1-.86.19,1.37,1.37,0,0,1-1-.41,1.57,1.57,0,0,1-.4-1.16,1.9,1.9,0,0,1,.15-.8,1.47,1.47,0,0,1,.37-.52,1.52,1.52,0,0,1,.53-.29,2.83,2.83,0,0,1,.58-.11l1.31-.08V23.8a2.07,2.07,0,0,0,0-.46.72.72,0,0,0-.15-.33.7.7,0,0,0-.31-.2,1.9,1.9,0,0,0-.52-.06,2.49,2.49,0,0,0-.59.06l-.47.13a.27.27,0,0,1-.18,0,.22.22,0,0,1-.11-.15l-.06-.36q0-.22.15-.27l.59-.13a3.51,3.51,0,0,1,.72-.07,2.29,2.29,0,0,1,1,.18,1.45,1.45,0,0,1,.55.48,1.56,1.56,0,0,1,.25.64,5.31,5.31,0,0,1,0,.68v2.44a2.86,2.86,0,0,0,.06.48l.07.34C187.6,27.33,187.54,27.4,187.4,27.4Zm-1.58-2.63a2,2,0,0,0-.5.06,1,1,0,0,0-.41.17.82.82,0,0,0-.26.34,1.23,1.23,0,0,0-.1.55.91.91,0,0,0,.2.64.77.77,0,0,0,.57.21,1.26,1.26,0,0,0,.51-.11,1.5,1.5,0,0,0,.4-.28,1.27,1.27,0,0,0,.25-.37.87.87,0,0,0,.09-.36v-.89Z"/><path class="cls-1" d="M190.16,27.33a.23.23,0,0,1-.17.07h-.4a.21.21,0,0,1-.16-.07.19.19,0,0,1-.08-.15V19.69a.19.19,0,0,1,.08-.16.21.21,0,0,1,.16-.07h.4a.23.23,0,0,1,.17.07.22.22,0,0,1,.07.16v7.49A.21.21,0,0,1,190.16,27.33Z"/><path class="cls-1" d="M199.48,27.33a.23.23,0,0,1-.16.07h-.43a.21.21,0,0,1-.16-.07.19.19,0,0,1-.08-.15V23.82h-2.83v3.36a.19.19,0,0,1-.08.15.2.2,0,0,1-.16.07h-.43a.21.21,0,0,1-.16-.07.18.18,0,0,1-.07-.15V20.11A.19.19,0,0,1,195,20a.25.25,0,0,1,.16-.06h.43a.23.23,0,0,1,.16.06.19.19,0,0,1,.08.16V23h2.83V20.11a.19.19,0,0,1,.08-.16.25.25,0,0,1,.16-.06h.43a.27.27,0,0,1,.16.06.19.19,0,0,1,.07.16v7.07A.18.18,0,0,1,199.48,27.33Z"/><path class="cls-1" d="M205.07,24.85a.2.2,0,0,1-.16.07h-2.86a2.48,2.48,0,0,0,.36,1.3,1.26,1.26,0,0,0,1.09.45,2.42,2.42,0,0,0,.57-.05c.16,0,.32-.08.5-.13a.24.24,0,0,1,.19,0,.3.3,0,0,1,.1.14l.1.28a.22.22,0,0,1-.15.29,2.27,2.27,0,0,1-.52.17,3.28,3.28,0,0,1-.78.08,2.21,2.21,0,0,1-1.77-.71,3.11,3.11,0,0,1-.62-2.08,4.06,4.06,0,0,1,.15-1.15,2.64,2.64,0,0,1,.41-.86,2,2,0,0,1,.65-.54,1.86,1.86,0,0,1,.82-.18,2.06,2.06,0,0,1,.74.13,1.4,1.4,0,0,1,.64.45,2.23,2.23,0,0,1,.45.84,4.93,4.93,0,0,1,.16,1.33A.21.21,0,0,1,205.07,24.85Zm-.92-1.21a1.78,1.78,0,0,0-.18-.49,1.25,1.25,0,0,0-.32-.36.81.81,0,0,0-.47-.13,1.24,1.24,0,0,0-.31.05.86.86,0,0,0-.34.22,1.59,1.59,0,0,0-.3.47,2.57,2.57,0,0,0-.18.81h2.17A3.7,3.7,0,0,0,204.15,23.64Z"/><path class="cls-1" d="M210,27.4h-.46a.23.23,0,0,1-.25-.2l-.08-.56a1.52,1.52,0,0,1-.68.63,2,2,0,0,1-.86.19,1.37,1.37,0,0,1-1-.41,1.57,1.57,0,0,1-.4-1.16,1.9,1.9,0,0,1,.15-.8,1.47,1.47,0,0,1,.37-.52,1.52,1.52,0,0,1,.53-.29,2.83,2.83,0,0,1,.58-.11l1.31-.08V23.8a2.07,2.07,0,0,0,0-.46A.72.72,0,0,0,209,23a.7.7,0,0,0-.31-.2,1.9,1.9,0,0,0-.52-.06,2.49,2.49,0,0,0-.59.06l-.47.13a.27.27,0,0,1-.18,0,.22.22,0,0,1-.11-.15l-.06-.36a.2.2,0,0,1,.15-.27l.59-.13a3.51,3.51,0,0,1,.72-.07,2.29,2.29,0,0,1,1,.18,1.45,1.45,0,0,1,.55.48,1.56,1.56,0,0,1,.25.64,5.31,5.31,0,0,1,.05.68v2.44a2.86,2.86,0,0,0,.06.48l.07.34C210.23,27.33,210.17,27.4,210,27.4Zm-1.58-2.63a2,2,0,0,0-.5.06,1,1,0,0,0-.41.17.82.82,0,0,0-.26.34,1.23,1.23,0,0,0-.1.55.91.91,0,0,0,.2.64.77.77,0,0,0,.57.21,1.26,1.26,0,0,0,.51-.11,1.5,1.5,0,0,0,.4-.28,1.27,1.27,0,0,0,.25-.37.87.87,0,0,0,.09-.36v-.89Z"/><path class="cls-1" d="M212.79,27.33a.23.23,0,0,1-.17.07h-.4a.21.21,0,0,1-.16-.07.19.19,0,0,1-.08-.15V19.69a.19.19,0,0,1,.08-.16.21.21,0,0,1,.16-.07h.4a.23.23,0,0,1,.17.07.22.22,0,0,1,.07.16v7.49A.21.21,0,0,1,212.79,27.33Z"/><path class="cls-1" d="M216.66,27.27a.2.2,0,0,1-.16.11l-.28.05a1.69,1.69,0,0,1-.33,0c-.75,0-1.12-.36-1.12-1.07V22.71h-.56a.21.21,0,0,1-.17-.07.25.25,0,0,1-.06-.16v-.25a.25.25,0,0,1,.06-.16.21.21,0,0,1,.17-.07h.56V20.86a.22.22,0,0,1,.16-.24l.42-.15a.46.46,0,0,1,.2,0c.06,0,.09.05.09.14V22h.67a.2.2,0,0,1,.16.07.21.21,0,0,1,.07.16v.25a.21.21,0,0,1-.07.16.2.2,0,0,1-.16.07h-.67v3.57c0,.29.14.44.4.44h.17l.18,0a.19.19,0,0,1,.24.18l0,.24A.28.28,0,0,1,216.66,27.27Z"/><path class="cls-1" d="M221.51,27.33a.21.21,0,0,1-.16.07H221a.23.23,0,0,1-.17-.07.21.21,0,0,1-.07-.15V23.54a1,1,0,0,0-.17-.64.71.71,0,0,0-.55-.2,1.26,1.26,0,0,0-.51.11,1.25,1.25,0,0,0-.42.3,1.33,1.33,0,0,0-.28.44,1.41,1.41,0,0,0-.11.54v3.09a.18.18,0,0,1-.07.15.23.23,0,0,1-.16.07H218a.21.21,0,0,1-.16-.07.18.18,0,0,1-.07-.15V19.69a.21.21,0,0,1,.07-.17.25.25,0,0,1,.16-.06h.41a.27.27,0,0,1,.16.06.21.21,0,0,1,.07.17v3a2.38,2.38,0,0,1,.74-.58,1.8,1.8,0,0,1,.8-.18,1.37,1.37,0,0,1,1,.38,1.45,1.45,0,0,1,.37,1v3.84A.19.19,0,0,1,221.51,27.33Z"/><path class="cls-2" d="M8.93,14.5a.32.32,0,0,1-.25.11H8a.34.34,0,0,1-.26-.11.31.31,0,0,1-.12-.24V9H3.16v5.29a.34.34,0,0,1-.11.24.36.36,0,0,1-.26.11H2.12a.34.34,0,0,1-.26-.11.3.3,0,0,1-.11-.24V3.12a.3.3,0,0,1,.11-.26.37.37,0,0,1,.26-.1h.67a.39.39,0,0,1,.26.1.33.33,0,0,1,.11.26V7.7H7.63V3.12a.31.31,0,0,1,.12-.26A.37.37,0,0,1,8,2.76h.67a.35.35,0,0,1,.25.1.31.31,0,0,1,.12.26V14.26A.31.31,0,0,1,8.93,14.5Z"/><path class="cls-2" d="M17.75,10.59a.34.34,0,0,1-.25.11H13a3.76,3.76,0,0,0,.57,2.05,2,2,0,0,0,1.72.71,4.66,4.66,0,0,0,.89-.08c.25-.05.51-.12.79-.2a.33.33,0,0,1,.3,0,.39.39,0,0,1,.16.21l.15.44a.33.33,0,0,1-.23.46,3.94,3.94,0,0,1-.82.27,5.09,5.09,0,0,1-1.23.12,3.52,3.52,0,0,1-2.8-1.12,5,5,0,0,1-1-3.29,6.24,6.24,0,0,1,.23-1.8,4,4,0,0,1,.65-1.35,2.77,2.77,0,0,1,1-.85A2.82,2.82,0,0,1,14.73,6a3.49,3.49,0,0,1,1.16.2,2.4,2.4,0,0,1,1,.71,3.49,3.49,0,0,1,.7,1.33,7.25,7.25,0,0,1,.26,2.09A.4.4,0,0,1,17.75,10.59ZM16.3,8.69A2.64,2.64,0,0,0,16,7.9a1.81,1.81,0,0,0-.5-.56,1.3,1.3,0,0,0-.75-.21,1.54,1.54,0,0,0-.48.09,1.29,1.29,0,0,0-.53.34,2.25,2.25,0,0,0-.47.74A4.18,4.18,0,0,0,13,9.57h3.42A5.29,5.29,0,0,0,16.3,8.69Z"/><path class="cls-2" d="M35.06,14.5a.34.34,0,0,1-.26.11h-.67a.34.34,0,0,1-.26-.11.34.34,0,0,1-.11-.24V8.53a1.6,1.6,0,0,0-.26-1,1,1,0,0,0-.84-.31,2,2,0,0,0-.8.17,1.85,1.85,0,0,0-.66.47,2.32,2.32,0,0,0-.59,1.55v4.87a.31.31,0,0,1-.12.24.32.32,0,0,1-.25.11h-.67a.34.34,0,0,1-.26-.11.31.31,0,0,1-.12-.24V8.53a1.61,1.61,0,0,0-.25-1,1,1,0,0,0-.84-.31,2.06,2.06,0,0,0-.81.17,1.9,1.9,0,0,0-.65.47,2.32,2.32,0,0,0-.59,1.55v4.87a.31.31,0,0,1-.12.24.32.32,0,0,1-.25.11H25a.32.32,0,0,1-.25-.11.31.31,0,0,1-.12-.24V6.44a.32.32,0,0,1,.12-.26A.38.38,0,0,1,25,6.09h.39a.37.37,0,0,1,.41.28l.19.87a3.67,3.67,0,0,1,1.16-1A2.92,2.92,0,0,1,28.43,6a2.28,2.28,0,0,1,1.3.36,1.91,1.91,0,0,1,.74,1,4.7,4.7,0,0,1,1.09-1A2.7,2.7,0,0,1,33,6a2.12,2.12,0,0,1,1.59.6,2.21,2.21,0,0,1,.58,1.61v6A.34.34,0,0,1,35.06,14.5Z"/><path class="cls-2" d="M44,14.5a.32.32,0,0,1-.25.11h-.64a.36.36,0,0,1-.26-.11.34.34,0,0,1-.11-.24V8.53a1.48,1.48,0,0,0-.28-1,1.05,1.05,0,0,0-.85-.31,2,2,0,0,0-1.47.64,2.21,2.21,0,0,0-.45.7,2.19,2.19,0,0,0-.17.85v4.87a.31.31,0,0,1-.12.24.32.32,0,0,1-.25.11h-.64a.32.32,0,0,1-.25-.11.31.31,0,0,1-.12-.24V2.44a.3.3,0,0,1,.12-.25.35.35,0,0,1,.25-.1h.64a.35.35,0,0,1,.25.1.3.3,0,0,1,.12.25V7.2a3.81,3.81,0,0,1,1.16-.92A2.83,2.83,0,0,1,42,6a2.1,2.1,0,0,1,1.59.6,2.22,2.22,0,0,1,.59,1.61v6A.31.31,0,0,1,44,14.5Z"/><path class="cls-2" d="M53.1,12.18a4,4,0,0,1-.69,1.36,3.1,3.1,0,0,1-1.08.86,3.39,3.39,0,0,1-2.79,0,3.25,3.25,0,0,1-1.07-.86,4,4,0,0,1-.69-1.36,6.83,6.83,0,0,1-.23-1.83,6.81,6.81,0,0,1,.23-1.82,3.84,3.84,0,0,1,.69-1.37,3.25,3.25,0,0,1,1.07-.86,3.39,3.39,0,0,1,2.79,0,3.1,3.1,0,0,1,1.08.86,3.84,3.84,0,0,1,.69,1.37,6.42,6.42,0,0,1,.24,1.82A6.44,6.44,0,0,1,53.1,12.18ZM51.37,8a1.62,1.62,0,0,0-1.43-.78A1.59,1.59,0,0,0,48.52,8,4.45,4.45,0,0,0,48,10.35a4.45,4.45,0,0,0,.51,2.41,1.58,1.58,0,0,0,1.42.77,1.61,1.61,0,0,0,1.43-.77,4.56,4.56,0,0,0,.5-2.41A4.55,4.55,0,0,0,51.37,8Z"/><path class="cls-2" d="M63.1,14.4a.36.36,0,0,1-.25.18,3.91,3.91,0,0,1-.44.08,2.93,2.93,0,0,1-.53,0q-1.77,0-1.77-1.68V7.22h-.88A.32.32,0,0,1,59,7.1a.39.39,0,0,1-.1-.25V6.46A.42.42,0,0,1,59,6.2a.31.31,0,0,1,.26-.11h.88V4.3a.37.37,0,0,1,.27-.39L61,3.68a.67.67,0,0,1,.31,0c.1,0,.15.08.15.23V6.09h1.06a.31.31,0,0,1,.25.11.38.38,0,0,1,.11.26v.39a.36.36,0,0,1-.11.25.32.32,0,0,1-.25.12H61.49v5.62c0,.46.21.69.64.69a1.19,1.19,0,0,0,.25,0l.3,0c.2,0,.32.06.37.28l.07.38A.44.44,0,0,1,63.1,14.4Z"/><path class="cls-2" d="M69.4,14.5a.36.36,0,0,1-.25.11H64.48a.33.33,0,0,1-.29-.14.63.63,0,0,1-.1-.39v-.41a.59.59,0,0,1,0-.23,1.11,1.11,0,0,1,.09-.19l3.42-5.5a3,3,0,0,1,.2-.32A2.67,2.67,0,0,1,68,7.2a1.11,1.11,0,0,1-.28,0H64.69a.3.3,0,0,1-.25-.12.37.37,0,0,1-.1-.26v-.4a.37.37,0,0,1,.1-.26.3.3,0,0,1,.25-.11h4.37a.32.32,0,0,1,.25.11.37.37,0,0,1,.1.26V7a.79.79,0,0,1-.12.42L66,12.7c-.09.13-.17.27-.27.41s-.18.26-.25.35l.33,0h3.3a.44.44,0,0,1,.25.08.29.29,0,0,1,.1.23v.5A.39.39,0,0,1,69.4,14.5Z"/><path class="cls-2" d="M78.06,14.5a.3.3,0,0,1-.24.11H71.45a.31.31,0,0,1-.25-.11.33.33,0,0,1-.1-.24v-.73a.65.65,0,0,1,.05-.27,1.56,1.56,0,0,1,.1-.22l4.83-8.35a2.64,2.64,0,0,1,.32-.41c.11-.12.21-.22.32-.32a4.78,4.78,0,0,1-1,.09H71.64a.39.39,0,0,1-.27-.1.33.33,0,0,1-.12-.25V3.12a.31.31,0,0,1,.12-.26.39.39,0,0,1,.27-.1h6a.33.33,0,0,1,.25.1.33.33,0,0,1,.1.26v.63a.74.74,0,0,1,0,.29,1.11,1.11,0,0,1-.14.29L73,12.61a2.85,2.85,0,0,1-.32.46,2.45,2.45,0,0,1-.34.32l.41-.07a4.06,4.06,0,0,1,.51,0h4.55a.34.34,0,0,1,.24.11.34.34,0,0,1,.11.25v.62A.34.34,0,0,1,78.06,14.5Z"/><path class="cls-2" d="M85.37,10.59a.36.36,0,0,1-.25.11H80.61a3.68,3.68,0,0,0,.57,2.05,2,2,0,0,0,1.71.71,4.59,4.59,0,0,0,.89-.08c.26-.05.52-.12.79-.2a.33.33,0,0,1,.3,0,.35.35,0,0,1,.16.21l.16.44a.33.33,0,0,1-.23.46,3.94,3.94,0,0,1-.82.27,5.09,5.09,0,0,1-1.23.12,3.5,3.5,0,0,1-2.8-1.12,4.9,4.9,0,0,1-1-3.29,6.61,6.61,0,0,1,.23-1.8A4.05,4.05,0,0,1,80,7.14,2.79,2.79,0,0,1,82.34,6a3.6,3.6,0,0,1,1.17.2,2.46,2.46,0,0,1,1,.71,3.63,3.63,0,0,1,.7,1.33,7.29,7.29,0,0,1,.25,2.09A.39.39,0,0,1,85.37,10.59Zm-1.45-1.9a2.64,2.64,0,0,0-.29-.79,1.84,1.84,0,0,0-.51-.56,1.27,1.27,0,0,0-.74-.21,1.65,1.65,0,0,0-.49.09,1.36,1.36,0,0,0-.53.34,2.42,2.42,0,0,0-.47.74,4.21,4.21,0,0,0-.28,1.27H84A5.27,5.27,0,0,0,83.92,8.69Z"/><path class="cls-2" d="M93.72,14.5a.32.32,0,0,1-.25.11H92.8a.34.34,0,0,1-.26-.11.3.3,0,0,1-.11-.24V8.53a1.6,1.6,0,0,0-.26-1,1,1,0,0,0-.84-.31,2.06,2.06,0,0,0-.81.17,1.9,1.9,0,0,0-.65.47,2.32,2.32,0,0,0-.59,1.55v4.87a.31.31,0,0,1-.12.24.32.32,0,0,1-.25.11h-.68A.32.32,0,0,1,88,14.5a.31.31,0,0,1-.12-.24V6.44A.32.32,0,0,1,88,6.18a.38.38,0,0,1,.25-.09h.39a.37.37,0,0,1,.41.28l.19.87a3.67,3.67,0,0,1,1.16-1A2.92,2.92,0,0,1,91.66,6a2.13,2.13,0,0,1,1.6.6,2.21,2.21,0,0,1,.58,1.61v6A.31.31,0,0,1,93.72,14.5Z"/><path class="cls-2" d="M99.84,14.4a.38.38,0,0,1-.25.18l-.44.08a3.08,3.08,0,0,1-.53,0q-1.77,0-1.77-1.68V7.22H96a.3.3,0,0,1-.25-.12.35.35,0,0,1-.1-.25V6.46a.37.37,0,0,1,.1-.26A.3.3,0,0,1,96,6.09h.89V4.3a.37.37,0,0,1,.26-.39l.66-.23a.66.66,0,0,1,.31,0c.1,0,.15.08.15.23V6.09h1.06a.32.32,0,0,1,.25.11.37.37,0,0,1,.1.26v.39a.35.35,0,0,1-.1.25.33.33,0,0,1-.25.12H98.23v5.62q0,.69.63.69a1.28,1.28,0,0,0,.26,0l.29,0a.3.3,0,0,1,.37.28l.07.38A.44.44,0,0,1,99.84,14.4Z"/><path class="cls-2" d="M105.58,7.63a.35.35,0,0,1-.35,0l-.47-.12a1.91,1.91,0,0,0-.52-.07.83.83,0,0,0-.41.12,1.2,1.2,0,0,0-.39.39,2.8,2.8,0,0,0-.29.67,4,4,0,0,0-.11,1v4.62a.31.31,0,0,1-.12.24.32.32,0,0,1-.25.11H102a.32.32,0,0,1-.25-.11.31.31,0,0,1-.12-.24V6.44a.32.32,0,0,1,.12-.26.38.38,0,0,1,.25-.09h.41a.35.35,0,0,1,.37.26l.25,1a3.06,3.06,0,0,1,.87-1A1.89,1.89,0,0,1,105,6a1.41,1.41,0,0,1,.71.17.38.38,0,0,1,.21.45l-.18.72A.4.4,0,0,1,105.58,7.63Z"/><path class="cls-2" d="M113.73,14.5a.34.34,0,0,1-.26.11h-.4a.36.36,0,0,1-.36-.3l-.23-.92-.37.41a3,3,0,0,1-.5.42,3.35,3.35,0,0,1-.71.34,3.26,3.26,0,0,1-1,.14,2.08,2.08,0,0,1-1.54-.57,2.24,2.24,0,0,1-.56-1.68v-6a.31.31,0,0,1,.11-.26.41.41,0,0,1,.26-.09h.67a.43.43,0,0,1,.26.09.35.35,0,0,1,.11.26v5.84a1.31,1.31,0,0,0,.28.94,1.05,1.05,0,0,0,.8.29,1.94,1.94,0,0,0,1.55-.68,3.14,3.14,0,0,0,.59-2.09V6.44a.35.35,0,0,1,.11-.26.43.43,0,0,1,.26-.09h.67a.41.41,0,0,1,.26.09.31.31,0,0,1,.11.26v7.82A.3.3,0,0,1,113.73,14.5Z"/><path class="cls-2" d="M127.28,14.5a.36.36,0,0,1-.26.11h-.67a.34.34,0,0,1-.26-.11.3.3,0,0,1-.11-.24V8.53a1.6,1.6,0,0,0-.26-1,1,1,0,0,0-.84-.31,2,2,0,0,0-.8.17,1.85,1.85,0,0,0-.66.47,2.32,2.32,0,0,0-.59,1.55v4.87a.31.31,0,0,1-.12.24.32.32,0,0,1-.25.11h-.67a.34.34,0,0,1-.26-.11.31.31,0,0,1-.12-.24V8.53a1.61,1.61,0,0,0-.25-1,1,1,0,0,0-.84-.31,2,2,0,0,0-.81.17,1.9,1.9,0,0,0-.65.47,2.32,2.32,0,0,0-.59,1.55v4.87a.31.31,0,0,1-.12.24.34.34,0,0,1-.26.11h-.67a.32.32,0,0,1-.25-.11.31.31,0,0,1-.12-.24V6.44a.32.32,0,0,1,.12-.26.38.38,0,0,1,.25-.09h.39a.37.37,0,0,1,.41.28l.19.87a3.67,3.67,0,0,1,1.16-1A2.92,2.92,0,0,1,120.65,6a2.23,2.23,0,0,1,1.29.36,1.88,1.88,0,0,1,.75,1,4.5,4.5,0,0,1,1.09-1A2.7,2.7,0,0,1,125.22,6a2.12,2.12,0,0,1,1.59.6,2.21,2.21,0,0,1,.58,1.61v6A.34.34,0,0,1,127.28,14.5Z"/><path class="cls-2" d="M145.21,14.5a.34.34,0,0,1-.26.11h-.67a.32.32,0,0,1-.25-.11.31.31,0,0,1-.12-.24V8.53a1.54,1.54,0,0,0-.26-1,1,1,0,0,0-.84-.31,2,2,0,0,0-.8.17,1.9,1.9,0,0,0-.65.47,2.19,2.19,0,0,0-.44.7,2.38,2.38,0,0,0-.16.85v4.87a.34.34,0,0,1-.11.24.34.34,0,0,1-.26.11h-.67a.36.36,0,0,1-.26-.11.34.34,0,0,1-.11-.24V8.53a1.6,1.6,0,0,0-.26-1,1,1,0,0,0-.84-.31,2,2,0,0,0-.8.17,1.94,1.94,0,0,0-.66.47,2.35,2.35,0,0,0-.43.7,2.18,2.18,0,0,0-.16.85v4.87a.34.34,0,0,1-.11.24.36.36,0,0,1-.26.11h-.67a.34.34,0,0,1-.26-.11.3.3,0,0,1-.11-.24V6.44a.31.31,0,0,1,.11-.26.41.41,0,0,1,.26-.09h.39a.35.35,0,0,1,.4.28l.2.87a3.47,3.47,0,0,1,1.16-1A2.89,2.89,0,0,1,138.59,6a2.23,2.23,0,0,1,1.29.36,1.91,1.91,0,0,1,.74,1,4.54,4.54,0,0,1,1.1-1A2.66,2.66,0,0,1,143.15,6a2.12,2.12,0,0,1,1.59.6,2.22,2.22,0,0,1,.59,1.61v6A.31.31,0,0,1,145.21,14.5Z"/><path class="cls-2" d="M154.27,14.5a.34.34,0,0,1-.26.11h-.41a.36.36,0,0,1-.35-.3l-.23-.92-.37.41a3,3,0,0,1-.5.42,3.61,3.61,0,0,1-.71.34,3.26,3.26,0,0,1-1,.14,2.08,2.08,0,0,1-1.54-.57,2.25,2.25,0,0,1-.57-1.68v-6a.32.32,0,0,1,.12-.26.41.41,0,0,1,.26-.09h.67a.38.38,0,0,1,.25.09.32.32,0,0,1,.12.26v5.84a1.31,1.31,0,0,0,.28.94,1.05,1.05,0,0,0,.8.29,2,2,0,0,0,1.55-.68,3.14,3.14,0,0,0,.59-2.09V6.44a.35.35,0,0,1,.11-.26.41.41,0,0,1,.26-.09H154a.41.41,0,0,1,.26.09.35.35,0,0,1,.11.26v7.82A.34.34,0,0,1,154.27,14.5ZM150.43,4.21a.79.79,0,0,1-.61.25.77.77,0,0,1-.58-.25.81.81,0,0,1-.25-.62.78.78,0,0,1,.25-.59.77.77,0,0,1,.56-.24.84.84,0,0,1,.62.24.78.78,0,0,1,.25.59A.84.84,0,0,1,150.43,4.21Zm3,0a.79.79,0,0,1-.61.25.77.77,0,0,1-.58-.25.81.81,0,0,1-.25-.62.78.78,0,0,1,.25-.59.77.77,0,0,1,.56-.24.84.84,0,0,1,.62.24.78.78,0,0,1,.25.59A.84.84,0,0,1,153.47,4.21Z"/><path class="cls-2" d="M163.25,14.5a.32.32,0,0,1-.25.11h-.68a.32.32,0,0,1-.25-.11.31.31,0,0,1-.12-.24V8.53a1.61,1.61,0,0,0-.25-1,1,1,0,0,0-.84-.31,2,2,0,0,0-.81.17,1.9,1.9,0,0,0-.65.47,2.19,2.19,0,0,0-.44.7,2.38,2.38,0,0,0-.16.85v4.87a.3.3,0,0,1-.11.24.34.34,0,0,1-.26.11h-.67a.36.36,0,0,1-.26-.11.34.34,0,0,1-.11-.24V6.44a.35.35,0,0,1,.11-.26.43.43,0,0,1,.26-.09h.39a.37.37,0,0,1,.41.28l.19.87a3.57,3.57,0,0,1,1.16-1A2.89,2.89,0,0,1,161.19,6a2.12,2.12,0,0,1,1.59.6,2.22,2.22,0,0,1,.59,1.61v6A.31.31,0,0,1,163.25,14.5Z"/><path class="cls-2" d="M171.15,14.31a.44.44,0,0,1-.25.18,4,4,0,0,1-.76.16,7.34,7.34,0,0,1-.85,0,3.1,3.1,0,0,1-2.5-1.14,5,5,0,0,1-.95-3.28,5.6,5.6,0,0,1,.26-1.73,4.15,4.15,0,0,1,.72-1.35,3.25,3.25,0,0,1,1.08-.88A2.91,2.91,0,0,1,169.27,6a3.85,3.85,0,0,1,.86.09,5,5,0,0,1,.65.21c.25.12.33.26.26.44l-.17.51a.35.35,0,0,1-.15.22c-.07.06-.17,0-.3,0a3.17,3.17,0,0,0-.52-.17,2.4,2.4,0,0,0-.68-.08,1.56,1.56,0,0,0-1.35.81,4.12,4.12,0,0,0-.52,2.25c0,2.07.68,3.11,2,3.11a4.73,4.73,0,0,0,.67,0,3.78,3.78,0,0,0,.57-.12.33.33,0,0,1,.3,0,.39.39,0,0,1,.14.23l.12.54A.32.32,0,0,1,171.15,14.31Z"/><path class="cls-2" d="M179.26,14.5a.34.34,0,0,1-.26.11h-.63a.34.34,0,0,1-.26-.11.31.31,0,0,1-.12-.24V8.53a1.54,1.54,0,0,0-.27-1,1.08,1.08,0,0,0-.86-.31,2,2,0,0,0-1.47.64,2.63,2.63,0,0,0-.45.7,2.18,2.18,0,0,0-.16.85v4.87a.31.31,0,0,1-.12.24.34.34,0,0,1-.26.11h-.63a.34.34,0,0,1-.26-.11.3.3,0,0,1-.11-.24V2.44a.3.3,0,0,1,.11-.25.37.37,0,0,1,.26-.1h.63a.37.37,0,0,1,.26.1.3.3,0,0,1,.12.25V7.2a3.78,3.78,0,0,1,1.15-.92A2.91,2.91,0,0,1,177.2,6a2.12,2.12,0,0,1,1.59.6,2.21,2.21,0,0,1,.58,1.61v6A.3.3,0,0,1,179.26,14.5Z"/><path class="cls-2" d="M188.08,10.59a.38.38,0,0,1-.25.11h-4.51a3.68,3.68,0,0,0,.56,2.05,2,2,0,0,0,1.72.71,4.59,4.59,0,0,0,.89-.08c.26-.05.52-.12.79-.2a.33.33,0,0,1,.3,0,.39.39,0,0,1,.16.21l.16.44a.34.34,0,0,1-.23.46,4.15,4.15,0,0,1-.82.27,5.2,5.2,0,0,1-1.23.12,3.54,3.54,0,0,1-2.81-1.12,5,5,0,0,1-1-3.29,6.61,6.61,0,0,1,.23-1.8,4,4,0,0,1,.65-1.35,2.94,2.94,0,0,1,1-.85,2.85,2.85,0,0,1,1.3-.29,3.6,3.6,0,0,1,1.17.2,2.46,2.46,0,0,1,1,.71,3.79,3.79,0,0,1,.7,1.33,7.29,7.29,0,0,1,.25,2.09A.39.39,0,0,1,188.08,10.59Zm-1.45-1.9a2.41,2.41,0,0,0-.3-.79,1.7,1.7,0,0,0-.5-.56,1.27,1.27,0,0,0-.74-.21,1.6,1.6,0,0,0-.49.09,1.36,1.36,0,0,0-.53.34,2.42,2.42,0,0,0-.47.74,4.21,4.21,0,0,0-.28,1.27h3.41A6.59,6.59,0,0,0,186.63,8.69Z"/><path class="cls-2" d="M196.43,14.5a.32.32,0,0,1-.25.11h-.68a.34.34,0,0,1-.25-.11.31.31,0,0,1-.12-.24V8.53a1.61,1.61,0,0,0-.25-1A1,1,0,0,0,194,7.2a2,2,0,0,0-.81.17,1.9,1.9,0,0,0-.65.47A2.2,2.2,0,0,0,192,9.39v4.87a.31.31,0,0,1-.12.24.34.34,0,0,1-.26.11h-.67a.32.32,0,0,1-.25-.11.31.31,0,0,1-.12-.24V6.44a.32.32,0,0,1,.12-.26.38.38,0,0,1,.25-.09h.39a.37.37,0,0,1,.41.28l.19.87a3.67,3.67,0,0,1,1.16-1A2.92,2.92,0,0,1,194.37,6a2.1,2.1,0,0,1,1.59.6,2.22,2.22,0,0,1,.59,1.61v6A.31.31,0,0,1,196.43,14.5Z"/><path class="cls-2" d="M58.41,13.46l.14.48a.5.5,0,0,1,0,.27.31.31,0,0,1-.19.2,4.22,4.22,0,0,1-.52.19,2.07,2.07,0,0,1-.66.1,2.74,2.74,0,0,1-.81-.12,1.7,1.7,0,0,1-1.13-1.05,2.81,2.81,0,0,1-.17-1V2.44a.33.33,0,0,1,.12-.25.36.36,0,0,1,.25-.1h.64a.37.37,0,0,1,.26.1.36.36,0,0,1,.11.25v10a1.21,1.21,0,0,0,.2.74.69.69,0,0,0,.6.27,1.15,1.15,0,0,0,.41-.08l.35-.12C58.21,13.21,58.35,13.27,58.41,13.46Z"/><path class="cls-2" d="M22.88,13.46l.14.48a.5.5,0,0,1,0,.27.32.32,0,0,1-.18.2,4.44,4.44,0,0,1-.53.19,2,2,0,0,1-.66.1,2.63,2.63,0,0,1-.8-.12,1.74,1.74,0,0,1-.68-.37,1.76,1.76,0,0,1-.45-.68,2.61,2.61,0,0,1-.17-1V2.44a.36.36,0,0,1,.11-.25.37.37,0,0,1,.26-.1h.64a.36.36,0,0,1,.25.1.33.33,0,0,1,.12.25v10a1.21,1.21,0,0,0,.19.74.69.69,0,0,0,.6.27,1.25,1.25,0,0,0,.42-.08l.34-.12C22.69,13.21,22.82,13.27,22.88,13.46Z"/></svg>