<svg id="Layer_1" data-name="Layer 1" xmlns="http://www.w3.org/2000/svg" viewBox="0 0 159.72 34.93"><defs><style>.cls-1{fill:#ff4438;}.cls-2{fill:#636569;}.cls-3{opacity:0.5;}</style></defs><title>logotypemarkcolor</title><circle class="cls-1" cx="142.57" cy="2.4" r="2.4"/><path class="cls-2" d="M142.65,34.13a17,17,0,0,0,9-2.57h-18A17,17,0,0,0,142.65,34.13Z"/><path class="cls-2" d="M129.32,27.72a18,18,0,0,0,1.62,1.76h23.42A18.07,18.07,0,0,0,156,27.72Z"/><path class="cls-2" d="M128.86,7c-.11.14-.22.29-.32.44h9.59c0-.15-.09-.29-.12-.44Z"/><path class="cls-2" d="M156.76,7.4,156.45,7h-9.26c0,.15-.08.29-.13.44Z"/><path class="cls-2" d="M138.13,7.4a4.72,4.72,0,0,0,8.93,0Z"/><path class="cls-2" d="M158.92,11.79l-.23-.66H146.86a4.6,4.6,0,0,1-.2.66Z"/><path class="cls-2" d="M126.61,11.13c-.08.22-.15.44-.22.66h12.14a3.58,3.58,0,0,1-.19-.66Z"/><path class="cls-2" d="M138.53,11.79a4.34,4.34,0,0,0,8.13,0Z"/><path class="cls-2" d="M159.72,16.18c0-.29,0-.58-.07-.88H146.27a3.29,3.29,0,0,1-.31.88Z"/><path class="cls-2" d="M125.65,15.3c0,.3-.05.59-.07.88h13.65a3.67,3.67,0,0,1-.31-.88Z"/><path class="cls-2" d="M139.23,16.18a3.75,3.75,0,0,0,6.73,0Z"/><path class="cls-2" d="M159.56,19.48H145.61a3,3,0,0,1-.45,1.1h14.21C159.45,20.22,159.51,19.85,159.56,19.48Z"/><path class="cls-2" d="M125.74,19.48c.05.37.12.74.19,1.1H140a3.23,3.23,0,0,1-.45-1.1Z"/><path class="cls-2" d="M142.6,22a3.07,3.07,0,0,0,2.56-1.38H140A3.08,3.08,0,0,0,142.6,22Z"/><path class="cls-2" d="M140.23,23.65H126.89q.28.68.63,1.32h13a2.37,2.37,0,0,1-.32-1.18S140.23,23.7,140.23,23.65Z"/><path class="cls-2" d="M158.41,23.65H145v.14a2.36,2.36,0,0,1-.31,1.18h13.12Q158.13,24.33,158.41,23.65Z"/><path class="cls-2" d="M142.6,26.17a2.37,2.37,0,0,0,2.06-1.2h-4.12A2.34,2.34,0,0,0,142.6,26.17Z"/><path class="cls-2" d="M23.46,20.12c-1.48,4.61-5,8.28-11.3,8.28C4.77,28.4,0,23.7,0,16.49a12.71,12.71,0,0,1,2.65-8C4.77,5.88,8.08,4.54,12.4,4.54c3.87,0,7,1.24,9,3.64a7.67,7.67,0,0,1,1.95,4.67H21c-.91-4.12-3.83-6.28-8.54-6.28-4,0-7,1.44-8.63,4.15a11,11,0,0,0-1.5,5.73c0,6.05,3.79,9.93,9.68,9.93,3.38,0,6.13-1.27,7.7-3.57A7.06,7.06,0,0,0,21,20.12Z"/><path class="cls-2" d="M43.68,23.15A6.56,6.56,0,0,1,42,25.86a10,10,0,0,1-6.87,2.54c-5.45,0-9.18-3.57-9.18-8.82s3.8-8.93,9.36-8.93a9,9,0,0,1,8,4.19,9.49,9.49,0,0,1,1.24,5.29H28.18a6.48,6.48,0,0,0,2.19,4.7,7.5,7.5,0,0,0,4.83,1.62,6.31,6.31,0,0,0,6-3.3Zm-1.61-4.81a6,6,0,0,0-1.17-3.12,7,7,0,0,0-5.74-2.61A6.74,6.74,0,0,0,29,15.9a6.68,6.68,0,0,0-.7,2.44Z"/><path class="cls-2" d="M47.4,5h2.16v22.9H47.4Z"/><path class="cls-2" d="M53.16,5h2.16v22.9H53.16Z"/><path class="cls-2" d="M76.41,27.92a4.83,4.83,0,0,1-2,.23c-1.18-.14-2-1.46-2.24-2.91a8.87,8.87,0,0,1-7.47,3.16c-4.12,0-6.67-1.89-6.67-4.91a4.24,4.24,0,0,1,2.79-4.19A16,16,0,0,1,65,18.38l3.56-.48c2.69-.38,3.49-.9,3.49-2.3,0-2-1.78-3-5.06-3-4,0-5.8,1.17-6.07,3.95H58.68A5.9,5.9,0,0,1,60.14,13c1.43-1.65,3.49-2.3,7-2.3,3.1,0,5.09.69,6.21,2.2.77,1,.91,1.72.91,4.33v7.55c0,1,.35,1.48,1.12,1.48a3.21,3.21,0,0,0,1-.12ZM72.12,20c0-.58,0-1.47.07-2.09-.75,1-1.2,1.5-4,1.88L65,20.27c-3.7.58-4.54,1.25-4.54,3,0,2,1.66,3,4.66,3a7.59,7.59,0,0,0,6-2.28c.73-.86.94-.83.94-2.27Z"/><path class="cls-2" d="M79,27.92V11.13h2.06V13c0,.39,0,.5,0,1.2a6.64,6.64,0,0,1,5.44-3.26,8.87,8.87,0,0,1,2,.21v2a8.36,8.36,0,0,0-2.12-.26,5.33,5.33,0,0,0-4.83,3.38,4.81,4.81,0,0,0-.35,2.44v9.3Z"/><path class="cls-2" d="M105.37,28a25.75,25.75,0,0,1-3.26.21c-1.55,0-2.52-.48-3-1.34-.38-.68-.48-1.58-.48-4.22V13h-3V11.13h3v-5h2.2v5h3.67l.88,1.86h-4.55v11c0,1.85.32,2.27,1.69,2.27a24.14,24.14,0,0,0,2.85-.12Z"/><path class="cls-2" d="M106.76,31.44a20.73,20.73,0,0,0,3.64.88c1.84.17,2.68-.59,3.36-2.17l1-2.23-8-16.79h2.44L114.28,22A41.67,41.67,0,0,1,115.93,26c1-2.57,1.2-3.12,1.65-4.08l5-10.82h2.31l-8.52,18.41a11.22,11.22,0,0,1-2.28,3.79,4.33,4.33,0,0,1-3.33,1,30.52,30.52,0,0,1-4-.82Z"/><path class="cls-2" d="M90.87,27.92V11.13H93.1V27.92Z"/><circle class="cls-2" cx="91.99" cy="6.27" r="1.34"/><g class="cls-3"><path class="cls-2" d="M31.71,32.75h.93l-.22-.67a9.33,9.33,0,0,1-.23-1h0s-.13.61-.24,1Zm.06-2.32h.86l1.3,3.6h-.87l-.23-.69H31.52L31.3,34h-.83Z"/><polygon class="cls-2" points="35.46 30.43 38.11 30.43 38.11 31.13 36.28 31.13 36.28 31.91 37.8 31.91 37.8 32.59 36.28 32.59 36.28 34.03 35.46 34.03 35.46 30.43"/><rect class="cls-2" x="38.52" y="30.43" width="0.77" height="3.61"/><path class="cls-2" d="M41.37,33.11v-.34a1.58,1.58,0,0,1-.45.15c-.33.07-.49.15-.49.38s.17.3.37.3a.51.51,0,0,0,.57-.49m0,.61h0a.88.88,0,0,1-.78.38.78.78,0,0,1-.89-.78c0-.57.46-.72,1-.79s.65-.13.65-.33-.12-.31-.39-.31-.43.14-.45.34h-.7c0-.44.38-.85,1.14-.85a1.42,1.42,0,0,1,.75.16.83.83,0,0,1,.39.77v1.32c0,.2,0,.32.1.36v0h-.75a.85.85,0,0,1-.08-.31"/><path class="cls-2" d="M44.35,32.63c0-.39-.19-.67-.56-.67s-.54.26-.54.67.2.67.54.67.56-.29.56-.67m-1.79,1.49h.74c.05.16.19.27.49.27a.47.47,0,0,0,.54-.5v-.06c0-.13,0-.25,0-.34h0a.74.74,0,0,1-.7.38,1.13,1.13,0,0,1-1.12-1.22,1.14,1.14,0,0,1,1.09-1.27.76.76,0,0,1,.74.4h0v-.33h.72V33.8a1.08,1.08,0,0,1-.33.85,1.41,1.41,0,0,1-.93.28c-.71,0-1.16-.3-1.24-.81"/><path class="cls-2" d="M45.41,33.24h.71a.48.48,0,0,0,.53.38c.27,0,.42-.12.42-.3s-.3-.26-.66-.33-.93-.2-.93-.8.48-.81,1.09-.81,1.08.31,1.14.76H47c0-.18-.2-.27-.44-.27s-.38.09-.38.26.28.22.63.28,1,.21,1,.86-.5.84-1.17.84-1.19-.35-1.23-.87"/><path class="cls-2" d="M48.94,31.82h0a.91.91,0,0,1,1.68.52V34h-.76V32.48a.42.42,0,0,0-.43-.47.51.51,0,0,0-.5.57V34h-.76v-3.6h.76v1.39"/><path class="cls-2" d="M51.11,31.45h.76V34h-.76Zm0-1h.77v.66h-.77Z"/><path class="cls-2" d="M54.25,32.77c0-.46-.18-.78-.56-.78s-.58.34-.58.78.2.75.59.75.55-.29.55-.75m-1.88-1.32h.74v.37h0a.86.86,0,0,1,.79-.44c.68,0,1.11.57,1.11,1.36s-.45,1.37-1.14,1.37a.85.85,0,0,1-.76-.4h0a5.22,5.22,0,0,1,0,.56v.62h-.77Z"/><path class="cls-2" d="M57.46,32.13h.7a.48.48,0,0,0,.54-.51.47.47,0,0,0-.53-.49h-.71Zm-.84-1.7h1.6a1.31,1.31,0,0,1,1,.33,1.18,1.18,0,0,1,.34.86,1.11,1.11,0,0,1-1.21,1.16h-.86V34h-.84Z"/><path class="cls-2" d="M59.89,31.45h.76V34h-.76Zm0-1h.77v.66h-.77Z"/><path class="cls-2" d="M63,32.75c0-.49-.22-.83-.59-.83s-.6.34-.6.83.21.81.6.81.59-.33.59-.81m-2,0a1.37,1.37,0,1,1,1.37,1.36A1.32,1.32,0,0,1,61,32.75"/><path class="cls-2" d="M64.88,31.85h0a.85.85,0,0,1,.8-.47.86.86,0,0,1,.89,1V34h-.75V32.48a.42.42,0,0,0-.44-.47.51.51,0,0,0-.49.57V34h-.76V31.45h.74Z"/><path class="cls-2" d="M67.7,32.5h1.1c0-.36-.23-.58-.53-.58s-.53.22-.57.58m-.76.25a1.3,1.3,0,0,1,1.33-1.37,1.27,1.27,0,0,1,.89.33,1.63,1.63,0,0,1,.41,1.23H67.69a.62.62,0,0,0,.63.62.49.49,0,0,0,.47-.25h.73a1.17,1.17,0,0,1-1.21.8,1.3,1.3,0,0,1-1.37-1.36"/><path class="cls-2" d="M70.58,32.5h1.1c0-.36-.22-.58-.52-.58s-.53.22-.58.58m-.75.25a1.3,1.3,0,0,1,1.33-1.37,1.24,1.24,0,0,1,.88.33,1.67,1.67,0,0,1,.42,1.23H70.58c0,.38.26.62.62.62a.47.47,0,0,0,.47-.25h.74a1.17,1.17,0,0,1-1.22.8,1.3,1.3,0,0,1-1.36-1.36"/><path class="cls-2" d="M73.57,31.91h0a.75.75,0,0,1,.72-.5l.16,0v.66h-.18c-.42,0-.69.25-.69.76V34h-.76V31.45h.73Z"/><path class="cls-2" d="M74.83,31.45h.76V34h-.76Zm0-1h.77v.66h-.77Z"/><path class="cls-2" d="M76.83,31.85h0a.85.85,0,0,1,.8-.47.86.86,0,0,1,.9,1V34h-.76V32.48a.42.42,0,0,0-.43-.47.51.51,0,0,0-.5.57V34h-.76V31.45h.74Z"/><path class="cls-2" d="M80.77,32.63c0-.39-.19-.67-.56-.67s-.55.26-.55.67.21.67.55.67.56-.29.56-.67M79,34.12h.74c0,.16.19.27.49.27a.46.46,0,0,0,.53-.5v-.06a3.11,3.11,0,0,1,0-.34h0a.74.74,0,0,1-.7.38,1.25,1.25,0,0,1,0-2.49.75.75,0,0,1,.74.4h0v-.33h.73V33.8a1.08,1.08,0,0,1-.33.85,1.45,1.45,0,0,1-.93.28c-.71,0-1.17-.3-1.24-.81"/><path class="cls-2" d="M83.06,32.24a1.75,1.75,0,0,1,1.77-1.88,1.68,1.68,0,0,1,1,.28,1.45,1.45,0,0,1,.56,1h-.83a.69.69,0,0,0-.73-.59c-.61,0-.92.51-.92,1.19s.36,1.19.93,1.19a.71.71,0,0,0,.75-.66h.83a1.43,1.43,0,0,1-.44.94,1.56,1.56,0,0,1-1.14.4,1.75,1.75,0,0,1-1.77-1.87"/><path class="cls-2" d="M88.67,32.75c0-.49-.22-.83-.59-.83s-.6.34-.6.83.21.81.6.81.59-.33.59-.81m-2,0a1.37,1.37,0,1,1,1.37,1.36,1.32,1.32,0,0,1-1.37-1.36"/><path class="cls-2" d="M89.82,31.45h.73v.41h0a.81.81,0,0,1,.77-.48.72.72,0,0,1,.71.49h0a.92.92,0,0,1,.82-.49.84.84,0,0,1,.87.95V34H93V32.46c0-.28-.14-.45-.38-.45s-.44.22-.44.55V34H91.4V32.46c0-.28-.12-.45-.37-.45s-.45.22-.45.55V34h-.76Z"/><path class="cls-2" d="M96.1,32.77c0-.46-.18-.78-.55-.78s-.58.34-.58.78.2.75.59.75.54-.29.54-.75m-1.87-1.32H95v.37h0a.85.85,0,0,1,.78-.44c.68,0,1.11.57,1.11,1.36s-.45,1.37-1.13,1.37a.85.85,0,0,1-.76-.4h0c0,.1,0,.29,0,.56v.62h-.76Z"/><path class="cls-2" d="M98.83,33.11v-.34a1.58,1.58,0,0,1-.45.15c-.33.07-.49.15-.49.38s.17.3.38.3a.5.5,0,0,0,.56-.49m0,.61h0a.87.87,0,0,1-.78.38.77.77,0,0,1-.88-.78c0-.57.45-.72,1-.79s.65-.13.65-.33-.12-.31-.38-.31S98,32,98,32.23h-.7c0-.44.38-.85,1.15-.85a1.38,1.38,0,0,1,.74.16.83.83,0,0,1,.39.77v1.32c0,.2,0,.32.1.36v0h-.74a.67.67,0,0,1-.09-.31"/><path class="cls-2" d="M100.8,31.85h0a.85.85,0,0,1,.8-.47.86.86,0,0,1,.9,1V34h-.76V32.48a.42.42,0,0,0-.43-.47.51.51,0,0,0-.5.57V34h-.76V31.45h.74Z"/><path class="cls-2" d="M103,34.89v-.6h.29c.24,0,.35-.08.37-.26a1.66,1.66,0,0,0-.14-.52l-.8-2.06h.8l.33,1a7.8,7.8,0,0,1,.22.9h0s.11-.55.22-.9l.32-1h.75l-.92,2.65c-.2.59-.44.8-.94.8H103"/></g><path class="cls-2" d="M155,32.55h-.48v-.16h1.16v.16h-.49v1.32H155Zm.94-.16h.31l.48,1.2.46-1.2h.31v1.48h-.19V32.56h0l-.53,1.31h-.1l-.53-1.31h0v1.31h-.19Z"/></svg>