<?xml version="1.0" encoding="utf-8"?>
<!-- Generator: Adobe Illustrator 25.3.1, SVG Export Plug-In . SVG Version: 6.00 Build 0)  -->
<svg version="1.1" id="Layer_1" xmlns="http://www.w3.org/2000/svg" xmlns:xlink="http://www.w3.org/1999/xlink" x="0px" y="0px"
	 viewBox="0 0 58.8 28" style="enable-background:new 0 0 58.8 28;" xml:space="preserve">
<style type="text/css">
	.st0{fill:#00356B;}
</style>
<symbol  id="yale-logo" viewBox="-29.2 -12.6 58.3 25.2">
	<path class="st0" d="M-9.8-7.3l-5.9,10v6.7c0.7,1.6,2.4,1.8,4.1,1.9v1h-11.7v-0.9c1.7-0.1,3.7-0.3,4.2-1.4V3.1l-6-10.2
		c-1.1-1.8-2.1-2.4-4.1-2.6v-0.9H-19v0.9c-1.9,0.2-2.5,0.5-3,0.9l5.6,9.7l5.5-9.6c-0.6-0.5-1.4-0.8-3.3-1v-0.9h8.6v0.9
		C-7.6-9.6-8.8-8.9-9.8-7.3z M2,12.6c-1.9,0-2.9-1.3-3-2.3c-1.2,1.3-2.8,2.3-4.3,2.3c-1.9,0-3.6-1.2-3.6-3.2c0-1,0.3-2.1,0.8-2.9
		l7.2-2.6V1.2C-0.9-0.4-1.7-2-3.3-2c-1,0-1.9,1.2-2,3l-3.2,0.5V1.3c1.1-3.2,4.6-4.5,6.4-4.5c3.3,0,4.5,1.7,4.4,4.4L2.2,8.8
		c0,1.5,0.8,1.8,1.5,1.8c0.6,0,1.2-0.4,1.8-1v1C4.7,11.5,3.3,12.6,2,12.6z M-5.2,6.8c-0.1,0.6-0.3,1.1-0.3,1.9
		c0,1.1,0.6,2.2,1.8,2.2c1.1,0,1.7-0.4,2.7-1.1V4.9C-1.9,5.2-4.2,6.3-5.2,6.8z M5.8,12.3v-0.8c1.6-0.1,2.1-0.5,2.4-1.1V-8.3
		c0-1.2-0.2-1.7-2.7-1.9v-0.7l6.6-1.7l0.2,0.6l-1,1.3v21.1c0.4,0.7,1,1,2.5,1.1v0.8H5.8z M22.5,12.6c-3.8,0-6.7-3-6.7-7.2
		c0-5.1,3.1-8.6,7.6-8.6c3.6,0,5.5,2,5.5,5.2v0.6l-9.7-0.1C19,2.9,19,3.5,19,4.3c0,3.7,2.3,6.1,5.4,6.1c1.8,0,2.8-0.6,4.2-1.9
		l0.5,0.8C27.2,11.4,25.5,12.6,22.5,12.6z M22.8-2.1c-1.8,0-3.1,1.4-3.5,3.7l6.3-0.1C25.7-0.3,24.5-2.1,22.8-2.1z"/>
</symbol>
<use xlink:href="#yale-logo"  width="58.3" height="25.2" x="-29.2" y="-12.6" transform="matrix(1 0 0 1 29.25 14.7)" style="overflow:visible;"/>
</svg>
