<svg id="Layer_1" data-name="Layer 1" xmlns="http://www.w3.org/2000/svg" viewBox="0 0 1445.84 692.96"><defs><style>.cls-1{fill:#f67088;}.cls-2{fill:#4dc1ce;}.cls-3{fill:#98c456;}.cls-4{font-size:26.99px;}.cls-19,.cls-22,.cls-4{font-family:Arial-BoldMT, Arial;font-weight:700;}.cls-14,.cls-18,.cls-21,.cls-5{fill:none;stroke:#000;stroke-miterlimit:10;}.cls-5{stroke-width:3.94px;}.cls-6{fill:#efd3d9;}.cls-7{fill:#b5e0e2;}.cls-8{fill:#e1efca;}.cls-9{font-size:20px;}.cls-12,.cls-16,.cls-17,.cls-9{font-family:ArialMT, Arial;}.cls-10{letter-spacing:-0.07em;}.cls-11,.cls-16{letter-spacing:-0.06em;}.cls-12{font-size:29.87px;}.cls-13{font-size:25px;font-family:Arial-ItalicMT, Arial;font-style:italic;}.cls-14{stroke-width:3.17px;}.cls-15{fill:#7bcbe0;}.cls-16,.cls-17{font-size:24px;}.cls-18{stroke-width:1.5px;}.cls-19{font-size:23.3px;}.cls-20{fill:#e2e2e2;}.cls-21{stroke-width:4px;}.cls-22{font-size:44px;}</style></defs><circle class="cls-1" cx="1329.23" cy="575.88" r="3.52"/><circle class="cls-1" cx="1333.98" cy="584.4" r="3.52"/><circle class="cls-1" cx="1337.42" cy="570.32" r="3.52"/><circle class="cls-1" cx="1340.86" cy="577.36" r="3.52"/><circle class="cls-1" cx="1342.82" cy="586.04" r="3.52"/><circle class="cls-1" cx="1346.26" cy="569.83" r="3.52"/><circle class="cls-1" cx="1349.37" cy="579.49" r="3.52"/><circle class="cls-1" cx="1335.61" cy="593.73" r="3.52"/><circle class="cls-1" cx="1346.58" cy="595.05" r="3.52"/><circle class="cls-1" cx="1340.52" cy="601.1" r="3.52"/><circle class="cls-1" cx="1356.25" cy="572.62" r="3.52"/><circle class="cls-1" cx="1352.15" cy="586.86" r="3.52"/><circle class="cls-1" cx="1355.75" cy="596.19" r="3.52"/><circle class="cls-1" cx="1359.87" cy="581.31" r="3.52"/><circle class="cls-1" cx="1360.17" cy="589.48" r="3.52"/><circle class="cls-1" cx="1364.76" cy="573.11" r="3.52"/><circle class="cls-2" cx="1387.23" cy="631.92" r="3.52"/><circle class="cls-1" cx="1350.02" cy="602.58" r="3.52"/><circle class="cls-1" cx="1349.7" cy="562.14" r="3.52"/><circle class="cls-3" cx="1408.51" cy="572.4" r="3.52"/><circle class="cls-3" cx="1435.95" cy="592.78" r="3.52"/><circle class="cls-3" cx="1404.5" cy="579.93" r="3.52"/><circle class="cls-3" cx="1407.92" cy="586.98" r="3.52"/><circle class="cls-3" cx="1409.86" cy="595.66" r="3.52"/><circle class="cls-3" cx="1413.34" cy="579.46" r="3.52"/><circle class="cls-3" cx="1416.42" cy="589.13" r="3.52"/><circle class="cls-3" cx="1423.32" cy="582.28" r="3.52"/><circle class="cls-3" cx="1419.19" cy="596.51" r="3.52"/><circle class="cls-3" cx="1426.92" cy="590.98" r="3.52"/><circle class="cls-3" cx="1427.2" cy="599.15" r="3.52"/><circle class="cls-2" cx="1359.5" cy="632.59" r="3.52"/><circle class="cls-2" cx="1366.76" cy="643.38" r="3.52"/><circle class="cls-2" cx="1364.9" cy="625.06" r="3.52"/><circle class="cls-2" cx="1354.65" cy="643.22" r="3.52"/><circle class="cls-2" cx="1374.89" cy="627.84" r="3.52"/><circle class="cls-2" cx="1369.22" cy="635.36" r="3.52"/><circle class="cls-2" cx="1378.52" cy="636.53" r="3.52"/><circle class="cls-2" cx="1380.19" cy="646.66" r="3.52"/><circle class="cls-2" cx="1389.95" cy="621.62" r="3.52"/><circle class="cls-2" cx="1396.72" cy="629.47" r="3.52"/><circle class="cls-2" cx="1377.08" cy="617.68" r="3.52"/><circle class="cls-2" cx="1395.85" cy="638.65" r="3.52"/><circle class="cls-2" cx="1406.59" cy="626.55" r="3.52"/><circle class="cls-2" cx="1412.44" cy="639.95" r="3.52"/><circle class="cls-2" cx="1389.63" cy="647.32" r="3.52"/><circle class="cls-2" cx="1393.12" cy="657.96" r="3.52"/><circle class="cls-2" cx="1396.07" cy="667.45" r="3.52"/><circle class="cls-2" cx="1398.47" cy="646.83" r="3.52"/><circle class="cls-2" cx="1401.58" cy="656.49" r="3.52"/><circle class="cls-2" cx="1408.45" cy="649.62" r="3.52"/><circle class="cls-2" cx="1404.36" cy="663.86" r="3.52"/><circle class="cls-2" cx="1412.08" cy="658.31" r="3.52"/><circle class="cls-2" cx="1362.28" cy="652.24" r="3.52"/><circle class="cls-2" cx="1366.27" cy="665.16" r="3.52"/><circle class="cls-2" cx="1371.12" cy="651.74" r="3.52"/><circle class="cls-2" cx="1375.11" cy="659.59" r="3.52"/><circle class="cls-2" cx="1383.63" cy="656.65" r="3.52"/><circle class="cls-2" cx="1377.02" cy="668.77" r="3.52"/><circle class="cls-2" cx="1386.93" cy="668.14" r="3.52"/><circle class="cls-3" cx="1420.3" cy="570.47" r="3.52"/><circle class="cls-3" cx="1430.44" cy="574.1" r="3.52"/><circle class="cls-3" cx="1434.34" cy="583.44" r="3.52"/><circle class="cls-2" cx="1358.25" cy="660.41" r="3.52"/><circle class="cls-1" cx="1339.39" cy="561.32" r="3.52"/><circle class="cls-1" cx="1328.58" cy="566.39" r="3.52"/><circle class="cls-2" cx="1404.25" cy="635.69" r="3.52"/><circle class="cls-1" cx="1358.75" cy="562.98" r="3.52"/><circle class="cls-1" cx="1368.69" cy="582.28" r="3.52"/><text class="cls-4" transform="translate(1100.09 527.45)">Label Conservation</text><circle class="cls-1" cx="1050.19" cy="559.95" r="4.11"/><circle class="cls-1" cx="1165.31" cy="606.13" r="4.11"/><circle class="cls-1" cx="1154.66" cy="655.89" r="4.11"/><circle class="cls-1" cx="1063.75" cy="561.68" r="4.11"/><circle class="cls-1" cx="1164.74" cy="569.82" r="4.11"/><circle class="cls-1" cx="1132.47" cy="610.24" r="4.11"/><circle class="cls-1" cx="1106.01" cy="573.79" r="4.11"/><circle class="cls-1" cx="1057.63" cy="580.78" r="4.11"/><circle class="cls-1" cx="1070.43" cy="582.31" r="4.11"/><circle class="cls-1" cx="1072.82" cy="627.61" r="4.11"/><circle class="cls-1" cx="1114.76" cy="623.04" r="4.11"/><circle class="cls-1" cx="1108.52" cy="553.07" r="4.11"/><circle class="cls-1" cx="1124.82" cy="590.02" r="4.11"/><circle class="cls-1" cx="1115.85" cy="635.72" r="4.11"/><circle class="cls-1" cx="1144.21" cy="585.92" r="4.11"/><circle class="cls-1" cx="1091.64" cy="556.72" r="4.11"/><circle class="cls-2" cx="1133.73" cy="578.46" r="4.11"/><circle class="cls-1" cx="1034.79" cy="620.81" r="4.11"/><circle class="cls-1" cx="1177.73" cy="596.24" r="4.11"/><circle class="cls-3" cx="1182.91" cy="548.1" r="4.11"/><circle class="cls-3" cx="1184.78" cy="580.78" r="4.11"/><circle class="cls-3" cx="1132.47" cy="564.38" r="4.11"/><circle class="cls-3" cx="1087.53" cy="575.41" r="4.11"/><circle class="cls-3" cx="1126.78" cy="633.45" r="4.11"/><circle class="cls-3" cx="1148.32" cy="564.13" r="4.11"/><circle class="cls-3" cx="1079.84" cy="562.25" r="4.11"/><circle class="cls-3" cx="1077.5" cy="549.91" r="4.11"/><circle class="cls-3" cx="1156.53" cy="589.37" r="4.11"/><circle class="cls-3" cx="1107.69" cy="643.3" r="4.11"/><circle class="cls-3" cx="1099.07" cy="670.89" r="4.11"/><circle class="cls-2" cx="1096.84" cy="566.82" r="4.11"/><circle class="cls-2" cx="1039.94" cy="567.32" r="4.11"/><circle class="cls-2" cx="1091.81" cy="617.32" r="4.11"/><circle class="cls-2" cx="1079.84" cy="638.51" r="4.11"/><circle class="cls-2" cx="1181.83" cy="567.42" r="4.11"/><circle class="cls-2" cx="1096.84" cy="629.34" r="4.11"/><circle class="cls-2" cx="1100.33" cy="584.68" r="4.11"/><circle class="cls-2" cx="1150.55" cy="575.03" r="4.11"/><circle class="cls-2" cx="1123.26" cy="601.53" r="4.11"/><circle class="cls-2" cx="1128.93" cy="622.47" r="4.11"/><circle class="cls-2" cx="1106.01" cy="608.71" r="4.11"/><circle class="cls-2" cx="1043" cy="631.73" r="4.11"/><circle class="cls-2" cx="1144.21" cy="604.61" r="4.11"/><circle class="cls-2" cx="1147.27" cy="634.69" r="4.11"/><circle class="cls-2" cx="1156.53" cy="621.43" r="4.11"/><circle class="cls-2" cx="1133.73" cy="658.28" r="4.11"/><circle class="cls-2" cx="1116.01" cy="566.82" r="4.11"/><circle class="cls-2" cx="1164.49" cy="582.56" r="4.11"/><circle class="cls-2" cx="1081.4" cy="588.79" r="4.11"/><circle class="cls-2" cx="1134.59" cy="642.46" r="4.11"/><circle class="cls-2" cx="1066.15" cy="593.48" r="4.11"/><circle class="cls-2" cx="1041.51" cy="601.53" r="4.11"/><circle class="cls-2" cx="1088.75" cy="649.03" r="4.11"/><circle class="cls-2" cx="1093.4" cy="664.11" r="4.11"/><circle class="cls-2" cx="1099.07" cy="648.46" r="4.11"/><circle class="cls-2" cx="1047.68" cy="620.81" r="4.11"/><circle class="cls-2" cx="1113.65" cy="654.17" r="4.11"/><circle class="cls-2" cx="1112.62" cy="672.43" r="4.11"/><circle class="cls-2" cx="1120.72" cy="663.56" r="4.11"/><circle class="cls-3" cx="1046.08" cy="588.79" r="4.11"/><circle class="cls-3" cx="1057.99" cy="631.73" r="4.11"/><circle class="cls-3" cx="1067.86" cy="650.92" r="4.11"/><circle class="cls-2" cx="1084.04" cy="658.57" r="4.11"/><circle class="cls-1" cx="1062.04" cy="542.96" r="4.11"/><circle class="cls-1" cx="1159.94" cy="637.56" r="4.11"/><circle class="cls-2" cx="1137.72" cy="629.72" r="4.11"/><circle class="cls-1" cx="1067.86" cy="604.61" r="4.11"/><circle class="cls-1" cx="1084.63" cy="605.64" r="4.11"/><text class="cls-4" transform="translate(1075.31 339.09)">Cell Cycle Preservation</text><path class="cls-5" d="M1386.25,364.72a41.71,41.71,0,1,1-20.74,5.51"/><polygon points="1366.48 376.41 1373.26 366.78 1361.53 365.73 1366.48 376.41"/><circle class="cls-1" cx="1435.07" cy="420.28" r="4.27"/><circle class="cls-1" cx="1381.98" cy="472.66" r="4.27"/><circle class="cls-1" cx="1343.32" cy="366.55" r="4.27"/><circle class="cls-1" cx="1354.87" cy="366.45" r="4.27"/><circle class="cls-1" cx="1337.08" cy="443.54" r="4.27"/><circle class="cls-1" cx="1384.67" cy="461.82" r="4.27"/><circle class="cls-1" cx="1371.54" cy="467.86" r="4.27"/><circle class="cls-1" cx="1347.58" cy="462.75" r="4.27"/><circle class="cls-1" cx="1425.75" cy="374.31" r="4.27"/><circle class="cls-3" cx="1406.19" cy="359.67" r="4.27"/><circle class="cls-3" cx="1428.72" cy="363.6" r="4.27"/><circle class="cls-3" cx="1396.87" cy="468.39" r="4.27"/><circle class="cls-3" cx="1395.22" cy="455.59" r="4.27"/><circle class="cls-3" cx="1346.34" cy="376.31" r="4.27"/><circle class="cls-3" cx="1373.79" cy="455.88" r="4.27"/><circle class="cls-2" cx="1359.14" cy="462.75" r="4.27"/><circle class="cls-2" cx="1350.6" cy="440.74" r="4.27"/><circle class="cls-2" cx="1343.32" cy="432.21" r="4.27"/><circle class="cls-2" cx="1417.22" cy="365.66" r="4.27"/><circle class="cls-2" cx="1359.87" cy="451.33" r="4.27"/><circle class="cls-2" cx="1334.98" cy="376.17" r="4.27"/><circle class="cls-2" cx="1434.56" cy="430.97" r="4.27"/><circle class="cls-2" cx="1347.58" cy="451.43" r="4.27"/><circle class="cls-2" cx="1411.87" cy="450.25" r="4.27"/><circle class="cls-2" cx="1425.75" cy="438.13" r="4.27"/><circle class="cls-2" cx="1436.03" cy="406.51" r="4.27"/><circle class="cls-2" cx="1340.2" cy="387.37" r="4.27"/><circle class="cls-2" cx="1338.03" cy="421.49" r="4.27"/><circle class="cls-2" cx="1407.5" cy="461.75" r="4.27"/><circle class="cls-1" cx="1371.54" cy="479.83" r="4.27"/><circle class="cls-2" cx="1424.26" cy="448.59" r="4.27"/><circle class="cls-1" cx="1359.87" cy="474.17" r="4.27"/><circle class="cls-1" cx="1419.29" cy="460.24" r="4.27"/><path class="cls-5" d="M1098.42,370.81a41.69,41.69,0,1,1-20.89,5.5"/><polygon points="1078.5 382.5 1085.28 372.87 1073.55 371.81 1078.5 382.5"/><circle class="cls-1" cx="1123.89" cy="455.18" r="4.27"/><circle class="cls-1" cx="1084.29" cy="461.97" r="4.27"/><circle class="cls-1" cx="1111.51" cy="462.57" r="4.27"/><circle class="cls-1" cx="1110.29" cy="473.94" r="4.27"/><circle class="cls-1" cx="1071.89" cy="456.84" r="4.27"/><circle class="cls-1" cx="1096.69" cy="464.14" r="4.27"/><circle class="cls-1" cx="1072.4" cy="468.41" r="4.27"/><circle class="cls-3" cx="1047.84" cy="394.85" r="4.27"/><circle class="cls-3" cx="1047" cy="407.45" r="4.27"/><circle class="cls-3" cx="1063.87" cy="372.09" r="4.27"/><circle class="cls-3" cx="1047" cy="382.25" r="4.27"/><circle class="cls-3" cx="1058.36" cy="382.4" r="4.27"/><circle class="cls-3" cx="1051.27" cy="368.77" r="4.27"/><circle class="cls-2" cx="1158.46" cy="401.01" r="4.27"/><circle class="cls-2" cx="1139.38" cy="366.26" r="4.27"/><circle class="cls-2" cx="1129.24" cy="360.01" r="4.27"/><circle class="cls-2" cx="1129.24" cy="371.75" r="4.27"/><circle class="cls-2" cx="1157.39" cy="389.2" r="4.27"/><circle class="cls-2" cx="1159.34" cy="378.13" r="4.27"/><circle class="cls-2" cx="1147.09" cy="384.66" r="4.27"/><circle class="cls-2" cx="1148.69" cy="423.45" r="4.27"/><circle class="cls-2" cx="1119.62" cy="366.26" r="4.27"/><circle class="cls-2" cx="1107.24" cy="363.38" r="4.27"/><circle class="cls-2" cx="1147.09" cy="396.75" r="4.27"/><circle class="cls-2" cx="1149.52" cy="408.83" r="4.27"/><circle class="cls-2" cx="1158.46" cy="415.64" r="4.27"/><circle class="cls-2" cx="1137.77" cy="377.3" r="4.27"/><circle class="cls-1" cx="1096.69" cy="475.22" r="4.27"/><circle class="cls-2" cx="1149.52" cy="373.14" r="4.27"/><circle class="cls-1" cx="1084.29" cy="473.73" r="4.27"/><text class="cls-4" transform="translate(1155.83 114.26)">Alignment</text><circle class="cls-1" cx="1080.79" cy="151.04" r="3.52"/><circle class="cls-1" cx="1092.41" cy="152.51" r="3.52"/><circle class="cls-1" cx="1094.37" cy="161.19" r="3.52"/><circle class="cls-1" cx="1097.82" cy="144.98" r="3.52"/><circle class="cls-1" cx="1100.92" cy="154.64" r="3.52"/><circle class="cls-1" cx="1098.14" cy="170.2" r="3.52"/><circle class="cls-1" cx="1107.3" cy="171.35" r="3.52"/><circle class="cls-1" cx="1111.43" cy="156.46" r="3.52"/><circle class="cls-1" cx="1111.73" cy="164.63" r="3.52"/><circle class="cls-1" cx="1116.32" cy="148.26" r="3.52"/><circle class="cls-3" cx="1182.32" cy="170.78" r="3.52"/><circle class="cls-3" cx="1209.77" cy="191.16" r="3.52"/><circle class="cls-3" cx="1178.31" cy="178.31" r="3.52"/><circle class="cls-3" cx="1181.73" cy="185.36" r="3.52"/><circle class="cls-3" cx="1190.24" cy="187.52" r="3.52"/><circle class="cls-3" cx="1197.13" cy="180.66" r="3.52"/><circle class="cls-3" cx="1201.02" cy="197.53" r="3.52"/><circle class="cls-2" cx="1139.95" cy="218.83" r="3.52"/><circle class="cls-2" cx="1129.7" cy="237" r="3.52"/><circle class="cls-2" cx="1149.94" cy="221.62" r="3.52"/><circle class="cls-2" cx="1144.27" cy="229.14" r="3.52"/><circle class="cls-2" cx="1153.57" cy="230.31" r="3.52"/><circle class="cls-2" cx="1155.24" cy="240.43" r="3.52"/><circle class="cls-2" cx="1171.78" cy="223.24" r="3.52"/><circle class="cls-2" cx="1152.13" cy="211.46" r="3.52"/><circle class="cls-2" cx="1170.9" cy="232.42" r="3.52"/><circle class="cls-2" cx="1164.68" cy="241.1" r="3.52"/><circle class="cls-2" cx="1171.12" cy="261.23" r="3.52"/><circle class="cls-2" cx="1176.63" cy="250.27" r="3.52"/><circle class="cls-2" cx="1183.51" cy="243.39" r="3.52"/><circle class="cls-2" cx="1187.14" cy="252.09" r="3.52"/><circle class="cls-2" cx="1137.34" cy="246.01" r="3.52"/><circle class="cls-2" cx="1146.18" cy="245.52" r="3.52"/><circle class="cls-2" cx="1150.16" cy="253.37" r="3.52"/><circle class="cls-2" cx="1152.07" cy="262.55" r="3.52"/><circle class="cls-2" cx="1161.99" cy="261.92" r="3.52"/><circle class="cls-3" cx="1208.16" cy="181.83" r="3.52"/><circle class="cls-2" cx="1133.3" cy="254.19" r="3.52"/><circle class="cls-1" cx="1090.94" cy="136.47" r="3.52"/><circle class="cls-2" cx="1179.31" cy="229.47" r="3.52"/><circle class="cls-1" cx="1110.3" cy="138.13" r="3.52"/><circle class="cls-6" cx="1038.61" cy="176.99" r="3.52"/><circle class="cls-6" cx="1042.05" cy="162.91" r="3.52"/><circle class="cls-6" cx="1040.24" cy="186.32" r="3.52"/><circle class="cls-6" cx="1045.15" cy="193.69" r="3.52"/><circle class="cls-6" cx="1060.88" cy="165.21" r="3.52"/><circle class="cls-6" cx="1056.78" cy="179.45" r="3.52"/><circle class="cls-7" cx="1080.03" cy="229.25" r="3.52"/><circle class="cls-6" cx="1054.65" cy="195.17" r="3.52"/><circle class="cls-6" cx="1054.33" cy="154.72" r="3.52"/><circle class="cls-8" cx="1145.85" cy="176.11" r="3.52"/><circle class="cls-8" cx="1149.33" cy="159.91" r="3.52"/><circle class="cls-8" cx="1155.18" cy="176.96" r="3.52"/><circle class="cls-8" cx="1159.41" cy="166.68" r="3.52"/><circle class="cls-7" cx="1065.55" cy="232.3" r="3.52"/><circle class="cls-7" cx="1074.91" cy="242.49" r="3.52"/><circle class="cls-7" cx="1082.76" cy="218.95" r="3.52"/><circle class="cls-7" cx="1099.39" cy="223.88" r="3.52"/><circle class="cls-7" cx="1092.41" cy="232.77" r="3.52"/><circle class="cls-7" cx="1085.92" cy="255.29" r="3.52"/><circle class="cls-7" cx="1091.27" cy="244.16" r="3.52"/><circle class="cls-7" cx="1099.39" cy="255.05" r="3.52"/><circle class="cls-7" cx="1065.55" cy="255.05" r="3.52"/><circle class="cls-7" cx="1076.43" cy="253.98" r="3.52"/><circle class="cls-8" cx="1156.29" cy="150.92" r="3.52"/><circle class="cls-8" cx="1142.33" cy="168.15" r="3.52"/><circle class="cls-6" cx="1033.21" cy="158.98" r="3.52"/><circle class="cls-6" cx="1065.55" cy="187.52" r="3.52"/><circle class="cls-1" cx="1310.37" cy="154.89" r="3.52"/><circle class="cls-6" cx="1315.11" cy="163.41" r="3.52"/><circle class="cls-6" cx="1318.56" cy="149.33" r="3.52"/><circle class="cls-1" cx="1321.99" cy="156.37" r="3.52"/><circle class="cls-1" cx="1323.95" cy="165.05" r="3.52"/><circle class="cls-1" cx="1327.4" cy="148.84" r="3.52"/><circle class="cls-1" cx="1330.5" cy="158.5" r="3.52"/><circle class="cls-6" cx="1316.75" cy="172.74" r="3.52"/><circle class="cls-1" cx="1327.72" cy="174.05" r="3.52"/><circle class="cls-6" cx="1321.66" cy="180.11" r="3.52"/><circle class="cls-6" cx="1337.38" cy="151.63" r="3.52"/><circle class="cls-6" cx="1333.29" cy="165.87" r="3.52"/><circle class="cls-1" cx="1336.88" cy="175.2" r="3.52"/><circle class="cls-1" cx="1341.01" cy="160.32" r="3.52"/><circle class="cls-1" cx="1341.31" cy="168.49" r="3.52"/><circle class="cls-1" cx="1345.9" cy="152.12" r="3.52"/><circle class="cls-7" cx="1368.36" cy="210.93" r="3.52"/><circle class="cls-6" cx="1331.15" cy="181.59" r="3.52"/><circle class="cls-6" cx="1330.84" cy="141.15" r="3.52"/><circle class="cls-3" cx="1389.64" cy="151.41" r="3.52"/><circle class="cls-3" cx="1417.09" cy="171.79" r="3.52"/><circle class="cls-3" cx="1385.63" cy="158.94" r="3.52"/><circle class="cls-3" cx="1389.05" cy="165.99" r="3.52"/><circle class="cls-8" cx="1390.99" cy="174.67" r="3.52"/><circle class="cls-8" cx="1394.48" cy="158.47" r="3.52"/><circle class="cls-3" cx="1397.56" cy="168.14" r="3.52"/><circle class="cls-3" cx="1404.45" cy="161.28" r="3.52"/><circle class="cls-8" cx="1400.32" cy="175.52" r="3.52"/><circle class="cls-8" cx="1408.06" cy="169.99" r="3.52"/><circle class="cls-3" cx="1408.34" cy="178.16" r="3.52"/><circle class="cls-7" cx="1340.64" cy="211.6" r="3.52"/><circle class="cls-7" cx="1347.9" cy="222.39" r="3.52"/><circle class="cls-2" cx="1346.04" cy="204.07" r="3.52"/><circle class="cls-2" cx="1335.78" cy="222.23" r="3.52"/><circle class="cls-2" cx="1356.03" cy="206.85" r="3.52"/><circle class="cls-2" cx="1350.35" cy="214.37" r="3.52"/><circle class="cls-2" cx="1359.66" cy="215.54" r="3.52"/><circle class="cls-2" cx="1361.32" cy="225.67" r="3.52"/><circle class="cls-7" cx="1371.09" cy="200.63" r="3.52"/><circle class="cls-2" cx="1377.86" cy="208.48" r="3.52"/><circle class="cls-2" cx="1358.21" cy="196.69" r="3.52"/><circle class="cls-2" cx="1376.98" cy="217.66" r="3.52"/><circle class="cls-7" cx="1387.72" cy="205.55" r="3.52"/><circle class="cls-7" cx="1393.58" cy="218.95" r="3.52"/><circle class="cls-2" cx="1370.76" cy="226.33" r="3.52"/><circle class="cls-7" cx="1374.26" cy="236.96" r="3.52"/><circle class="cls-2" cx="1377.2" cy="246.46" r="3.52"/><circle class="cls-7" cx="1379.6" cy="225.84" r="3.52"/><circle class="cls-2" cx="1382.71" cy="235.5" r="3.52"/><circle class="cls-2" cx="1389.59" cy="228.62" r="3.52"/><circle class="cls-7" cx="1385.5" cy="242.87" r="3.52"/><circle class="cls-2" cx="1393.22" cy="237.32" r="3.52"/><circle class="cls-2" cx="1343.42" cy="231.24" r="3.52"/><circle class="cls-7" cx="1347.41" cy="244.17" r="3.52"/><circle class="cls-2" cx="1352.26" cy="230.75" r="3.52"/><circle class="cls-2" cx="1356.25" cy="238.6" r="3.52"/><circle class="cls-7" cx="1364.76" cy="235.65" r="3.52"/><circle class="cls-2" cx="1358.15" cy="247.78" r="3.52"/><circle class="cls-2" cx="1368.07" cy="247.15" r="3.52"/><circle class="cls-8" cx="1401.43" cy="149.48" r="3.52"/><circle class="cls-8" cx="1411.58" cy="153.11" r="3.52"/><circle class="cls-3" cx="1415.48" cy="162.45" r="3.52"/><circle class="cls-2" cx="1339.38" cy="239.42" r="3.52"/><circle class="cls-1" cx="1320.52" cy="140.32" r="3.52"/><circle class="cls-6" cx="1309.72" cy="145.4" r="3.52"/><circle class="cls-2" cx="1385.39" cy="214.7" r="3.52"/><circle class="cls-1" cx="1339.88" cy="141.99" r="3.52"/><circle class="cls-6" cx="1349.82" cy="161.29" r="3.52"/><text class="cls-9" transform="translate(1001.35 259.03)"><tspan class="cls-10">AT</tspan><tspan x="22.59" y="0">AC</tspan></text><text class="cls-9" transform="translate(1200.65 264.75)">RN<tspan class="cls-11" x="28.89" y="0">A</tspan></text><text class="cls-12" transform="translate(701.43 261.23)">Ιntegrated<tspan x="-28.23" y="35.85">representation</tspan><tspan class="cls-13"><tspan x="-28.61" y="65.85">(100 dimensions)</tspan></tspan></text><polyline class="cls-14" points="844.67 476.57 696.57 476.57 696.57 350.26"/><circle class="cls-1" cx="722.39" cy="359.54" r="6.96"/><circle class="cls-1" cx="732.08" cy="374.88" r="6.96"/><circle class="cls-1" cx="754.28" cy="374.88" r="6.96"/><circle class="cls-1" cx="748.22" cy="391.42" r="6.96"/><circle class="cls-1" cx="739.75" cy="359.54" r="6.96"/><circle class="cls-1" cx="769.21" cy="394.25" r="6.96"/><circle class="cls-3" cx="759.52" cy="455.18" r="6.96"/><circle class="cls-3" cx="762.35" cy="435" r="6.96"/><circle class="cls-3" cx="769.21" cy="416.84" r="6.96"/><ellipse class="cls-15" cx="795.05" cy="378.78" rx="6.87" ry="6.94" transform="translate(-81.41 464.83) rotate(-31.08)"/><ellipse class="cls-15" cx="791.4" cy="401.66" rx="6.87" ry="6.94" transform="translate(-93.74 466.22) rotate(-31.08)"/><ellipse class="cls-15" cx="808.35" cy="391.26" rx="6.87" ry="6.94" transform="translate(-85.94 473.48) rotate(-31.08)"/><ellipse class="cls-15" cx="816.73" cy="373.72" rx="6.87" ry="6.94" transform="translate(-75.68 475.29) rotate(-31.08)"/><text class="cls-16" transform="translate(384.67 259.55)">A</text><text class="cls-17" transform="translate(458.88 259.54)">B</text><text class="cls-17" transform="translate(532.37 259.55)">C</text><rect class="cls-1" x="379.27" y="215.05" width="29.38" height="17.9"/><rect class="cls-3" x="453.29" y="161.23" width="29.38" height="71.72"/><rect class="cls-15" x="527.31" y="183.09" width="29.38" height="49.85"/><polyline class="cls-18" points="359.1 161.23 359.1 232.95 567.89 232.95"/><text class="cls-16" transform="translate(107.12 260.81)">A</text><text class="cls-17" transform="translate(181.33 260.81)">B</text><text class="cls-17" transform="translate(254.82 260.81)">C</text><text class="cls-16" transform="translate(386.37 454.09)">A</text><text class="cls-17" transform="translate(460.57 454.09)">B</text><text class="cls-17" transform="translate(534.07 454.09)">C</text><rect class="cls-1" x="383.75" y="354.25" width="29.38" height="74.24"/><rect class="cls-3" x="457.77" y="387.58" width="29.38" height="40.91"/><rect class="cls-15" x="531.79" y="363.6" width="29.38" height="64.89"/><polyline class="cls-18" points="363.58 358.62 363.58 428.49 572.37 428.49"/><text class="cls-12" transform="translate(31.35 479.77) rotate(-90)">Accessability</text><text class="cls-19" transform="translate(150.16 112.29)">Cell 1</text><text class="cls-19" transform="translate(151.26 329.8)">Cell 2</text><path class="cls-20" d="M290.78,216.4c-2.85-5-2.74-13.14-5.36-20.77-3.19-9.27-8.15-11.58-11.66-8-5.36,5.48-6.09,23.24-10.56,24.49-5.12,1.43-6.85-21-12.14-19.7-4.86,1.2-6.32,20.79-10.56,19.17-2.13-.82-2.93-6.23-5.83-16.51-1.26-4.47-4-24.89-9.14-23.42-6,0-7.6,38.07-10.26,44.18a6.76,6.76,0,0,1-2.44,3.28c-2.51,1.72-4.75-1.42-7.44-5.32-1.88-2.72-1.51-3-2.33-3.69-2-1.81-3.66.2-7.32,4.51-3.43,4-6.64,4.8-10.12-5.32-3.83-11.18-4.79-20.45-8.14-27.41-1.21-2.52-9.88-8.47-16.15,1.22-4.45,6.86-6,39.19-12.44,38.05-5-.89-10.48-.19-11.86-3.68-2.16-5.43-3-13.53-3.61-19.64-.92-9.05-.54-12.43-1.39-31.91-.48-10.88-.82-18.39-1.28-18.41s-.74,9.25-1.86,27.82c-1.32,22-2.22,29.38-3.14,35.18-1.92,12.18-2.59,13.74-3.56,14.9-1.45,1.73-2.28,2.29-4.46,2.29s-5.33-13.33-7.13-14.61-3.71-1.27-5.71,1.34-2.15,6.41-4.5,7.44c-1.78.79-5.28,2.62-7.19,1.77s-5.7-2.3-7-5.74-4.17-20.71-7.17-20.71c-.46,0-3.14,4.08-3.82,4.09-2.16,0-5.26-22.92-9.54-22.92s-8.42,21.19-9.31,22.9c-1.67,3.22-2.37-3.63-5.45-3.32-.72.08-1.45,1.26-2.25,3.1l-5,12.44v19.17h74.07l111.11,0H297.4V222.29A15.09,15.09,0,0,1,290.78,216.4Z"/><path class="cls-1" d="M117.75,232.79h0m19.34-.24V217.44c-2.16-5.41-3-13.51-3.63-19.6-.93-9-.55-12.43-1.43-31.9-.49-10.87-.84-18.39-1.3-18.4s-.73,9.26-1.83,27.84c-1.29,22-2.19,29.39-3.1,35.21-1.9,12.2-2.57,13.77-3.54,14.93-1.45,1.74-2.28,2.31-4.46,2.33s-5.34-13.28-7.15-14.54-3.71-1.24-5.7,1.4-2.15,6.42-4.49,7.48v10.54"/><path class="cls-15" d="M297.4,232.68V222.24a15.09,15.09,0,0,1-6.62-5.89c-2.85-5-2.74-13.14-5.36-20.76-3.19-9.28-8.15-11.59-11.66-8-5.36,5.49-6.09,23.24-10.56,24.49-5.12,1.43-6.85-21-12.14-19.7-4.86,1.2-6.32,20.79-10.56,19.17v21.12Z"/><path class="cls-3" d="M215.37,215.69a6.59,6.59,0,0,1-2.44,3.27c-2.51,1.73-4.75-1.41-7.44-5.31-1.88-2.72-1.51-3-2.33-3.69-2-1.81-3.66.2-7.32,4.5-3.42,4-6.64,4.81-10.12-5.32-3.83-11.17-4.78-20.45-8.13-27.41-1.22-2.52-9.88-8.46-16.16,1.23v49.77h53.94Z"/><polyline class="cls-18" points="43.32 161.23 43.32 232.73 303.84 232.73"/><path class="cls-20" d="M44.25,411.48c.55-3.59,1.35-9.22,2-16.38,1.14-11.72,1.08-18,2.29-19.23,1.45-1.44,3.5,5.76,4.09,7.83,2.78,9.73,2.07,17.83,4.82,23.15A6,6,0,0,0,60,409.7c2.6,1.5,4.91-1.23,7.7-4.63,2-2.37,1.57-2.57,2.41-3.21,2.1-1.57,3.79.17,7.59,3.92,3.54,3.5,6.88,4.18,10.47-4.63,4-9.73,5-17.8,8.43-23.86,1.26-2.19,4.78,13.11,11.28,21.54,4.6,6,11.64,13.65,18.34,12.65,5.22-.78,8.33.11,9.76-2.93,2.23-4.73,7-36.23,10.12-36.23s6.78,43.75,10,43.75,7.59-31.47,11.52-31.47c4.88,0,4.84,8,6.81,13.32,3.3,8.87,9.67,3.88,13.05-10,4.52-18.49,7.25-38.16,10.61-38.16,5.39,0,8.17,22.27,9.47,27.53,3,12.08,3.83,18.43,6,19.39,4.39,1.91,5.85,12.39,10.88,11,5.48-1.53,7.33-8.67,12.63-10.35,4.63-1.47,8.7,1.26,14.25-5.19,3.63-4.22,5.46-25.11,8.76-14.21,2.71,9,2.6,18.53,5.55,24.4a29,29,0,0,0,6.86,8.39c2.48-.44,4.6-.77,6.32-1,2.62-.38,12-1.41,17.62-9v29.7H44.25Z"/><path class="cls-15" d="M296.56,430.4V400.7c-5.59,7.56-15,8.59-17.62,9-1.72.25-3.84.58-6.32,1a29,29,0,0,1-6.86-8.39c-2.95-5.87-2.84-15.44-5.55-24.4-3.3-10.9-5.13,10-8.76,14.21-4.74,5.51-8.4,4.32-12.26,4.77V430.4Z"/><path class="cls-3" d="M213.65,396.67c-2.78-5.84-4.67-14.05-6-19.39s-4.08-27.53-9.47-27.53c-3.36,0-6.09,19.67-10.61,38.16-3.38,13.89-9.75,18.88-13,10-2-5.28-1.93-13.32-6.81-13.32-2.3,0-4.75,10.81-7,19.76v26h53Z"/><path class="cls-1" d="M136,408.55c-1.43,3-4.54,2.15-9.76,2.93-6.7,1-13.74-6.68-18.34-12.65-3.37-4.37-5.94-10.58-7.81-15.25V430.4H136Z"/><polyline class="cls-18" points="44.25 357.49 44.25 429.18 302.92 429.18"/><text class="cls-19" transform="translate(437.78 112.29)">Cell 1</text><text class="cls-19" transform="translate(437.91 330.1)">Cell 2</text><text class="cls-12" transform="translate(339.11 467.35) rotate(-90)">Expression</text><text class="cls-16" transform="translate(107.12 465.49)">A</text><text class="cls-17" transform="translate(181.33 465.49)">B</text><text class="cls-17" transform="translate(254.82 465.49)">C</text><path class="cls-20" d="M296.44,609.76c-.56-3.09-1.36-7.93-2.05-14.09-1.14-10.07-1.08-15.51-2.29-16.54-1.46-1.23-3.51,5-4.1,6.74-2.78,8.37-2.07,15.33-4.83,19.91a5.58,5.58,0,0,1-2.53,2.45c-2.6,1.29-4.92-1.06-7.71-4-1.95-2-1.57-2.21-2.42-2.76-2.1-1.35-3.79.15-7.59,3.37-3.55,3-6.89,3.6-10.49-4-4-8.37-5-15.31-8.44-20.52-1.26-1.89-4.79,11.27-11.3,18.53-4.61,5.13-11.66,11.73-18.37,10.87-5.23-.66-8.34.1-9.78-2.52-2.23-4.06-7-31.15-10.13-31.15s-6.79,37.62-10,37.62-7.59-27.06-11.53-27.06c-4.88,0-4.85,6.91-6.82,11.45-3.31,7.63-9.68,3.34-13.08-8.6-4.52-15.91-7.25-32.83-10.62-32.83-5.4,0-8.18,19.16-9.48,23.68-3,10.39-3.84,15.85-6.05,16.68-4.4,1.64-5.86,10.65-10.89,9.44-5.5-1.32-7.35-7.46-12.65-8.9-4.64-1.27-8.72,1.08-14.28-4.46-3.64-3.64-5.47-21.6-8.77-12.22-2.72,7.7-2.61,15.93-5.56,21a26.16,26.16,0,0,1-6.87,7.21c-2.48-.38-4.61-.66-6.33-.87-2.63-.33-12-1.22-17.65-7.72V626H296.44Z"/><path class="cls-1" d="M99.83,597.38a14.53,14.53,0,0,1,3.41.45c5.3,1.45,7.15,7.58,12.65,8.91,5,1.21,6.49-7.81,10.89-9.45,2.21-.82,3-6.29,6.05-16.68.6-2.1,1.53-7.36,2.89-12.39v57.22h-36Z"/><path class="cls-3" d="M213.45,609.67c-3.66-.15-8.09-.64-8.91-2.13-2.23-4.07-7-31.16-10.13-31.16s-6.79,37.63-10,37.63-7.59-27.07-11.53-27.07c-4.88,0-4.85,6.91-6.82,11.46-1.45,3.34-3.49,4.4-5.61,3.51V625h53Z"/><path class="cls-15" d="M239.05,588.87c2.59-5.26,4.19-9.65,5-8.51,3.47,5.21,4.46,12.15,8.44,20.52,3.6,7.58,6.94,7,10.49,4,3.8-3.22,5.49-4.72,7.59-3.37.85.55.47.73,2.42,2.76,2.79,2.92,5.11,5.27,7.71,4a5.58,5.58,0,0,0,2.53-2.45c2.76-4.58,2.05-11.54,4.83-19.91.59-1.78,2.64-8,4.1-6.74,1.21,1,1.15,6.47,2.29,16.54.69,6.16,1.49,11,2,14.09V626H239.05Z"/><polyline class="cls-18" points="44.25 553.93 44.32 625.44 303.38 625.44"/><text class="cls-16" transform="translate(390.85 651.08)">A</text><text class="cls-17" transform="translate(465.06 651.08)">B</text><text class="cls-17" transform="translate(538.55 651.08)">C</text><rect class="cls-1" x="388.23" y="551.24" width="29.38" height="74.24"/><rect class="cls-3" x="462.25" y="584.58" width="29.38" height="40.91"/><rect class="cls-15" x="536.27" y="560.59" width="29.38" height="64.89"/><polyline class="cls-18" points="368.07 555.62 368.07 625.49 576.85 625.49"/><text class="cls-19" transform="translate(442.39 527.1)">Cell 3</text><text class="cls-19" transform="translate(152.35 533.45)">Cell 3</text><text class="cls-16" transform="translate(107.12 651.16)">A</text><text class="cls-17" transform="translate(181.33 651.16)">B</text><text class="cls-17" transform="translate(254.82 651.16)">C</text><text class="cls-17" transform="translate(160.4 681.72)">Gene</text><text class="cls-17" transform="translate(443.49 681.72)">Gene</text><line class="cls-21" x1="593.2" y1="242.12" x2="639.04" y2="307.7"/><polygon points="629.2 311.02 647.26 319.46 645.54 299.59 629.2 311.02"/><line class="cls-21" x1="600.69" y1="591.28" x2="646.54" y2="525.71"/><polygon points="653.04 533.81 654.76 513.94 636.69 522.38 653.04 533.81"/><line class="cls-21" x1="600.69" y1="416.7" x2="640.41" y2="416.7"/><polygon points="637.49 426.68 654.76 416.7 637.49 406.73 637.49 426.68"/><text class="cls-22" transform="translate(270.59 49.66)"><tspan class="cls-10">T</tspan><tspan x="23.61" y="0">ask</tspan></text><text class="cls-22" transform="translate(1158.46 50.23)">Metric</text></svg>