<svg id="Layer_1" data-name="Layer 1" xmlns="http://www.w3.org/2000/svg" viewBox="0 0 1445.84 692.96"><defs><style>.cls-1{font-size:29.87px;}.cls-1,.cls-10,.cls-15,.cls-17,.cls-20,.cls-24,.cls-26,.cls-9{font-family:ArialMT, Arial;}.cls-2{font-size:23.3px;}.cls-14,.cls-18,.cls-2,.cls-28{font-family:Arial-BoldMT, Arial;font-weight:700;}.cls-3{fill:#e2e2e2;}.cls-23,.cls-4{fill:#f67088;}.cls-5{fill:#7bcbe0;}.cls-6{fill:#98c456;}.cls-11,.cls-13,.cls-16,.cls-19,.cls-7,.cls-8{fill:none;}.cls-11,.cls-13,.cls-16,.cls-19,.cls-23,.cls-7,.cls-8{stroke:#000;stroke-miterlimit:10;}.cls-7{stroke-width:1.51px;}.cls-8{stroke-width:1.64px;}.cls-10,.cls-9{font-size:25.63px;}.cls-10{letter-spacing:-0.06em;}.cls-11{stroke-width:2.3px;}.cls-12{fill:#dcf9dd;}.cls-13{stroke-width:0.67px;}.cls-14,.cls-15{font-size:30px;}.cls-16{stroke-width:5px;}.cls-17{font-size:34px;}.cls-18{font-size:25px;}.cls-19{stroke-width:3px;}.cls-20{font-size:24px;}.cls-21{letter-spacing:-0.06em;}.cls-22,.cls-26{letter-spacing:-0.07em;}.cls-23{stroke-width:2px;}.cls-24,.cls-26{font-size:21px;}.cls-25{letter-spacing:-0.06em;}.cls-27{letter-spacing:0em;}.cls-28{font-size:44px;}</style></defs><text class="cls-1" transform="translate(36.53 319.42) rotate(-90)">Accessability</text><text class="cls-2" transform="translate(74.99 105.68)">Cell ?</text><text class="cls-2" transform="translate(76.28 209.22)">Cell ?</text><path class="cls-3" d="M520.61,152c-5.31-4.3-5.12-11.3-10-17.86-6-8-15.23-10-21.79-6.87-10,4.72-11.37,20-19.73,21.06-9.55,1.23-12.78-18.06-22.67-16.94-9.07,1-11.81,17.88-19.73,16.48-4-.7-5.48-5.35-10.89-14.19-2.36-3.85-7.45-21.41-17.08-20.15-11.14,0-14.2,32.74-19.17,38a9.87,9.87,0,0,1-4.56,2.82c-4.68,1.48-8.87-1.21-13.9-4.57-3.5-2.34-2.82-2.54-4.34-3.17-3.79-1.56-6.84.16-13.69,3.87-6.39,3.46-12.41,4.13-18.89-4.57-7.17-9.62-9-17.59-15.21-23.58-2.26-2.17-18.46-7.28-30.19,1.06-8.3,5.89-11.16,33.7-23.24,32.72-9.42-.77-19.56-.17-22.15-3.17-4-4.67-5.57-11.64-6.73-16.89-1.73-7.78-1-10.69-2.61-27.44-.89-9.36-1.52-15.82-2.39-15.84s-1.39,8-3.48,23.93C215.7,135.61,214,142,212.3,147c-3.59,10.48-4.83,11.82-6.65,12.81-2.71,1.49-4.27,2-8.34,2S187.37,150.3,184,149.21a12.23,12.23,0,0,0-10.66,1.15c-3.73,2.25-4,5.51-8.41,6.4-3.33.68-9.86,2.25-13.44,1.52s-10.65-2-13-4.94-7.8-17.81-13.39-17.81c-.86,0-5.87,3.51-7.15,3.52-4,0-9.82-19.72-17.82-19.72S84.36,137.56,82.7,139c-3.12,2.77-4.44-3.12-10.18-2.85-1.35.06-2.7,1.08-4.21,2.67l-9.38,10.69V166H197.31l207.59,0H533v-9S525,155.57,520.61,152Z"/><path class="cls-4" d="M197.36,166.13h0m36.13-.21,0-13c-4-4.65-5.6-11.61-6.78-16.86-1.74-7.77-1-10.68-2.68-27.43-.91-9.35-1.56-15.82-2.43-15.83s-1.37,8-3.41,24c-2.42,18.89-4.09,25.28-5.79,30.28-3.56,10.49-4.8,11.84-6.62,12.84-2.7,1.5-4.26,2-8.33,2s-10-11.42-13.36-12.5a12.26,12.26,0,0,0-10.65,1.2c-3.72,2.26-4,5.52-8.39,6.43l0,9.07"/><path class="cls-5" d="M533,166v-9s-8-1.52-12.37-5.07c-5.31-4.3-5.12-11.3-10-17.85-6-8-15.23-10-21.79-6.87-10,4.72-11.37,20-19.73,21.06-9.55,1.23-12.78-18.07-22.67-16.94-9.07,1-11.81,17.88-19.73,16.48V166Z"/><path class="cls-6" d="M379.73,151.42a9.91,9.91,0,0,1-4.56,2.81c-4.68,1.49-8.87-1.21-13.9-4.57-3.5-2.34-2.82-2.54-4.34-3.17-3.79-1.56-6.84.17-13.69,3.87-6.39,3.46-12.4,4.13-18.89-4.57-7.17-9.62-9-17.59-15.21-23.58-2.26-2.16-18.46-7.27-30.19,1.06v42.8H379.73Z"/><polyline class="cls-7" points="58.3 122.44 58.3 166.07 545.02 166.07"/><path class="cls-3" d="M59.87,245.68a126.9,126.9,0,0,0,3.85-14.08c2.14-10.08,2-15.52,4.3-16.54,2.74-1.24,6.59,4.95,7.71,6.73,5.21,8.37,3.87,15.33,9.06,19.91a10.77,10.77,0,0,0,4.76,2.45c4.88,1.29,9.24-1.05,14.49-4,3.66-2,2.95-2.21,4.54-2.76,4-1.35,7.12.15,14.27,3.37,6.67,3,12.94,3.6,19.71-4,7.47-8.37,9.33-15.31,15.86-20.52,2.36-1.89,9,11.28,21.22,18.53,8.66,5.13,21.91,11.73,34.51,10.87,9.83-.66,15.67.1,18.37-2.52,4.2-4.06,13.23-31.15,19-31.15s12.75,37.62,18.88,37.62,14.28-27.06,21.68-27.06c9.17,0,9.09,6.91,12.8,11.46,6.22,7.62,18.19,3.33,24.57-8.61,8.49-15.91,13.63-32.83,20-32.83,10.14,0,15.36,19.16,17.82,23.68,5.64,10.39,7.21,15.85,11.36,16.68,8.26,1.64,11,10.65,20.46,9.44,10.32-1.32,13.8-7.46,23.77-8.9,8.71-1.27,16.38,1.08,26.82-4.46,6.84-3.64,10.28-21.6,16.48-12.22,5.1,7.7,4.9,15.93,10.44,21,4.58,4.17,12.9,7.21,12.9,7.21,4.68-.37,8.67-.66,11.91-.87,4.93-.33,22.62-1.22,33.15-7.72V262H59.87Z"/><path class="cls-5" d="M534.62,262V236.41c-10.52,6.5-28.21,7.39-33.14,7.72-3.25.21-7.23.5-11.91.87,0,0-8.33-3-12.9-7.21-5.54-5-5.34-13.28-10.44-21-6.21-9.38-9.65,8.58-16.49,12.22-8.91,4.73-15.81,3.71-23.06,4.1V262Z"/><path class="cls-6" d="M378.62,233c-5.24-5-8.79-12.09-11.29-16.68s-7.68-23.68-17.81-23.68c-6.34,0-11.47,16.92-20,32.83C323.18,237.36,311.2,241.65,305,234c-3.71-4.55-3.64-11.46-12.81-11.46-4.34,0-8.93,9.3-13.23,17V262h99.67Z"/><path class="cls-4" d="M232.59,243.16c-2.7,2.62-8.54,1.86-18.37,2.52-12.6.86-25.84-5.74-34.5-10.87-6.34-3.76-11.18-9.11-14.69-13.12V262h67.56Z"/><polyline class="cls-8" points="59.87 209.64 59.87 260.91 546.59 260.91"/><path class="cls-3" d="M534.55,343.49a124,124,0,0,1-3.86-14.09c-2.13-10.07-2-15.51-4.3-16.54-2.73-1.23-6.59,5-7.7,6.74-5.22,8.37-3.88,15.33-9.06,19.91a10.82,10.82,0,0,1-4.76,2.45c-4.89,1.29-9.25-1.06-14.5-4-3.65-2-2.94-2.21-4.53-2.76-3.95-1.35-7.13.15-14.27,3.37-6.68,3-12.95,3.6-19.71-4-7.48-8.37-9.34-15.31-15.86-20.52-2.36-1.89-9,11.27-21.23,18.53-8.66,5.13-21.9,11.73-34.5,10.87-9.83-.66-15.67.1-18.37-2.52-4.2-4.06-13.24-31.15-19-31.15S330.11,347.44,324,347.44s-14.27-27.06-21.67-27.06c-9.17,0-9.1,6.91-12.81,11.45-6.21,7.63-18.19,3.34-24.57-8.6-8.49-15.91-13.62-32.83-20-32.83-10.13,0-15.35,19.16-17.81,23.68-5.65,10.39-7.21,15.85-11.37,16.68-8.25,1.64-11,10.65-20.46,9.44-10.32-1.32-13.8-7.46-23.76-8.9-8.72-1.27-16.38,1.08-26.82-4.46-6.84-3.64-10.28-21.6-16.49-12.22-5.1,7.7-4.9,15.93-10.44,21-4.57,4.17-12.9,7.21-12.9,7.21-4.68-.38-8.66-.66-11.91-.87-4.92-.33-22.62-1.22-33.14-7.72v25.54H534.55Z"/><path class="cls-4" d="M165.17,331.11a50.18,50.18,0,0,1,6.4.45c10,1.45,13.44,7.58,23.76,8.91,9.46,1.21,12.21-7.81,20.46-9.45,4.16-.82,5.72-6.29,11.37-16.68,1.14-2.1,2.88-7.36,5.43-12.39v55.22H165Z"/><path class="cls-6" d="M378.62,343.4c-6.87-.15-15.19-.64-16.72-2.13-4.2-4.07-13.24-31.16-19-31.16S330.11,347.74,324,347.74s-14.27-27.07-21.67-27.07c-9.17,0-9.1,6.91-12.81,11.46A10.16,10.16,0,0,1,279,335.64v23.11h99.67Z"/><path class="cls-5" d="M426.72,322.6c4.88-5.26,7.88-9.65,9.32-8.51,6.52,5.21,8.38,12.15,15.85,20.52,6.77,7.58,13,7,19.71,4,7.15-3.22,10.32-4.72,14.28-3.37,1.59.55.87.73,4.53,2.76,5.25,2.92,9.61,5.27,14.5,4a10.74,10.74,0,0,0,4.75-2.45c5.19-4.58,3.85-11.54,9.06-19.91,1.12-1.78,5-8,7.71-6.74,2.27,1,2.16,6.47,4.3,16.54a126.57,126.57,0,0,0,3.85,14.09v16.27H426.72Z"/><polyline class="cls-8" points="60.87 307.9 60.87 359.17 547.59 359.17"/><text class="cls-2" transform="translate(76.08 301.95)">Cell ?</text><text class="cls-9" transform="translate(96.06 668.87)">Gene </text><text class="cls-1" transform="translate(36.53 609.75) rotate(-90)">Expression</text><text class="cls-10" transform="translate(80.2 641.03)">A</text><text class="cls-9" transform="translate(122.42 641.33)">B</text><text class="cls-9" transform="translate(163.93 641.03)">C</text><rect class="cls-4" x="74.06" y="585.05" width="29.38" height="29.38"/><rect class="cls-6" x="116.28" y="496.73" width="29.38" height="117.7"/><rect class="cls-5" x="158.49" y="532.61" width="29.38" height="81.82"/><polyline class="cls-11" points="63.89 454.83 63.89 614.43 196.43 614.43"/><text class="cls-10" transform="translate(262.39 642.83)">A</text><text class="cls-9" transform="translate(304.61 643.14)">B</text><text class="cls-9" transform="translate(346.12 642.83)">C</text><rect class="cls-4" x="256.26" y="566.39" width="29.38" height="49.84"/><rect class="cls-6" x="298.47" y="557.38" width="29.38" height="58.85"/><rect class="cls-5" x="340.69" y="507.78" width="29.38" height="108.46"/><polyline class="cls-11" points="246.09 456.64 246.09 616.23 378.62 616.23"/><text class="cls-10" transform="translate(418.4 642.68)">A</text><text class="cls-9" transform="translate(460.62 642.98)">B</text><text class="cls-9" transform="translate(502.12 642.68)">C</text><rect class="cls-4" x="412.26" y="536.43" width="29.38" height="79.64"/><rect class="cls-6" x="454.47" y="586.7" width="29.38" height="29.38"/><rect class="cls-5" x="496.69" y="534.26" width="29.38" height="81.82"/><polyline class="cls-11" points="402.09 456.48 402.09 616.08 534.62 616.08"/><text class="cls-2" transform="translate(103.44 445.99)">Cell ?</text><text class="cls-2" transform="translate(279.54 442.62)">Cell ?</text><text class="cls-2" transform="translate(441.64 443.54)">Cell ?</text><rect class="cls-12" x="1266.83" y="468.65" width="59.52" height="59.52"/><rect class="cls-12" x="1207.31" y="587.22" width="59.52" height="59.52"/><rect class="cls-12" x="1147.79" y="528.17" width="59.52" height="59.52"/><rect class="cls-13" x="1147.79" y="468.65" width="178.56" height="178.56"/><line class="cls-13" x1="1147.79" y1="587.69" x2="1326.35" y2="587.69"/><line class="cls-13" x1="1147.79" y1="528.17" x2="1326.35" y2="528.17"/><line class="cls-13" x1="1266.83" y1="468.65" x2="1266.83" y2="647.22"/><line class="cls-13" x1="1207.31" y1="468.65" x2="1207.31" y2="647.22"/><text class="cls-14" transform="translate(1105.4 505.47)">1</text><text class="cls-14" transform="translate(1105.4 565.36)">2</text><text class="cls-14" transform="translate(1105.4 630.35)">3</text><text class="cls-15" transform="translate(1155.42 506.35)">0.4</text><text class="cls-15" transform="translate(1216.22 506.7)">0.2</text><text class="cls-15" transform="translate(1276.49 569.24)">0.2</text><text class="cls-15" transform="translate(1277.22 507.06)">0.4</text><text class="cls-15" transform="translate(1155.93 569.24)">0.5</text><text class="cls-15" transform="translate(1216.22 569.6)">0.3</text><text class="cls-15" transform="translate(1216.22 630.35)">0.8</text><text class="cls-15" transform="translate(1156.34 630.71)">0.1</text><text class="cls-15" transform="translate(1277.25 630.35)">0.1</text><text class="cls-14" transform="translate(1170.18 459.63)">1</text><text class="cls-14" transform="translate(1230.91 459.63)">2</text><text class="cls-14" transform="translate(1288.96 459.63)">3</text><rect class="cls-13" x="716.9" y="331.79" width="178.56" height="178.56"/><line class="cls-13" x1="716.9" y1="450.83" x2="895.47" y2="450.83"/><line class="cls-13" x1="716.9" y1="391.31" x2="895.47" y2="391.31"/><line class="cls-13" x1="835.95" y1="331.79" x2="835.95" y2="510.35"/><line class="cls-13" x1="776.42" y1="331.79" x2="776.42" y2="510.35"/><text class="cls-14" transform="translate(674.52 368.6)">1</text><text class="cls-14" transform="translate(674.52 428.5)">2</text><text class="cls-14" transform="translate(674.52 493.49)">3</text><text class="cls-15" transform="translate(724.54 369.48)">0.4</text><text class="cls-15" transform="translate(785.33 369.84)">0.2</text><text class="cls-15" transform="translate(843.61 432.38)">0.2</text><text class="cls-15" transform="translate(844.33 370.2)">0.4</text><text class="cls-15" transform="translate(725.05 432.38)">0.5</text><text class="cls-15" transform="translate(785.33 432.74)">0.3</text><text class="cls-15" transform="translate(785.33 493.49)">0.8</text><text class="cls-15" transform="translate(725.46 493.85)">0.1</text><text class="cls-15" transform="translate(844.36 493.49)">0.1</text><text class="cls-14" transform="translate(739.29 322.77)">1</text><text class="cls-14" transform="translate(800.02 322.77)">2</text><text class="cls-14" transform="translate(858.07 322.77)">3</text><text class="cls-14" transform="translate(684.07 223.45)">Predicted match</text><line class="cls-16" x1="561.53" y1="536.43" x2="590.33" y2="494.77"/><polygon points="596.88 502.84 598.5 482.96 580.47 491.5 596.88 502.84"/><line class="cls-16" x1="561.53" y1="295.82" x2="590.31" y2="337.27"/><polygon points="580.46 340.56 598.5 349.06 596.84 329.19 580.46 340.56"/><text class="cls-17" transform="translate(1375.69 567.42)">1.7</text><text class="cls-18" transform="translate(1364.58 526.24)">Score</text><line class="cls-19" x1="1334.03" y1="557.1" x2="1362.38" y2="557.1"/><polygon points="1360.63 563.08 1371 557.1 1360.63 551.11 1360.63 563.08"/><text class="cls-20" transform="translate(655.51 477) rotate(-90)">RN<tspan class="cls-21" x="34.66" y="0">A</tspan><tspan x="49.35" y="0" xml:space="preserve"> profile</tspan></text><text class="cls-20" transform="translate(738.32 276.49)"><tspan class="cls-22">AT</tspan><tspan x="27.11" y="0">AC profile</tspan></text><circle class="cls-4" cx="1155.18" cy="200.38" r="15.7"/><circle class="cls-6" cx="1155.18" cy="297.14" r="15.7"/><ellipse class="cls-5" cx="1155.18" cy="248.76" rx="15.51" ry="15.66" transform="translate(37.42 632.08) rotate(-31.08)"/><circle class="cls-5" cx="1305.77" cy="200.38" r="15.7"/><circle class="cls-4" cx="1305.77" cy="297.14" r="15.7"/><ellipse class="cls-6" cx="1305.77" cy="248.76" rx="15.51" ry="15.66" transform="translate(59.04 709.82) rotate(-31.08)"/><text class="cls-14" transform="translate(1106.26 211.16)">1</text><text class="cls-14" transform="translate(1106.86 259.54)">2</text><text class="cls-14" transform="translate(1107.17 307.91)">3</text><text class="cls-14" transform="translate(1339.46 206.11)">1</text><text class="cls-14" transform="translate(1340.06 254.49)">2</text><text class="cls-14" transform="translate(1340.37 302.87)">3</text><line class="cls-23" x1="1186.85" y1="200.38" x2="1279.71" y2="293.25"/><line class="cls-23" x1="1188.01" y1="249.29" x2="1279.71" y2="206.11"/><line class="cls-23" x1="1186.85" y1="297.14" x2="1279.71" y2="254.01"/><text class="cls-14" transform="translate(1141.38 134.06)">Ground truth</text><text class="cls-24" transform="translate(1133.59 171.25)">RN<tspan class="cls-25" x="30.33" y="0">A</tspan></text><text class="cls-26" transform="translate(1279.34 171.25)">AT<tspan class="cls-27" x="23.72" y="0">AC</tspan></text><text class="cls-20" transform="translate(1089.55 621.21) rotate(-90)">RN<tspan class="cls-21" x="34.66" y="0">A</tspan><tspan x="49.35" y="0" xml:space="preserve"> profile</tspan></text><text class="cls-20" transform="translate(1172.36 420.7)"><tspan class="cls-22">AT</tspan><tspan x="27.11" y="0">AC profile</tspan></text><text class="cls-28" transform="translate(231.33 50.8)"><tspan class="cls-22">T</tspan><tspan x="23.61" y="0">ask</tspan></text><text class="cls-28" transform="translate(1170.88 49.66)">Metric</text></svg>